<svg class="main-svg" xmlns="http://www.w3.org/2000/svg" xmlns:xlink="http://www.w3.org/1999/xlink" width="1680" height="960" style="" viewBox="0 0 560 320"><rect x="0" y="0" width="560" height="320" style="fill: rgb(255, 255, 255); fill-opacity: 1;"/><defs id="defs-45241b"><g class="clips"><clipPath id="clip45241bxyplot" class="plotclip"><rect width="216.2" height="140"/></clipPath><clipPath id="clip45241bx2y2plot" class="plotclip"><rect width="216.2" height="140"/></clipPath><clipPath class="axesclip" id="clip45241bx"><rect x="70" y="0" width="216.2" height="320"/></clipPath><clipPath class="axesclip" id="clip45241by"><rect x="0" y="70" width="560" height="140"/></clipPath><clipPath class="axesclip" id="clip45241bxy"><rect x="70" y="70" width="216.2" height="140"/></clipPath><clipPath class="axesclip" id="clip45241by2"><rect x="0" y="70" width="560" height="140"/></clipPath><clipPath class="axesclip" id="clip45241bxy2"><rect x="70" y="70" width="216.2" height="140"/></clipPath><clipPath class="axesclip" id="clip45241bx2"><rect x="313.8" y="0" width="216.2" height="320"/></clipPath><clipPath class="axesclip" id="clip45241bx2y"><rect x="313.8" y="70" width="216.2" height="140"/></clipPath><clipPath class="axesclip" id="clip45241bx2y2"><rect x="313.8" y="70" width="216.2" height="140"/></clipPath></g><g class="gradients"/><g class="patterns"/></defs><g class="bglayer"/><g class="layer-below"><g class="imagelayer"/><g class="shapelayer"/></g><g class="cartesianlayer"><g class="subplot xy"><g class="layer-subplot"><g class="shapelayer"/><g class="imagelayer"/></g><g class="minor-gridlayer"><g class="x"/><g class="y"/></g><g class="gridlayer"><g class="x"/><g class="y"/></g><g class="zerolinelayer"><path class="xzl zl crisp" transform="translate(178.1,0)" d="M0,70v140" style="stroke: rgb(255, 255, 255); stroke-opacity: 1; stroke-width: 2px;"/><path class="yzl zl crisp" transform="translate(0,210)" d="M70,0h216.2" style="stroke: rgb(255, 255, 255); stroke-opacity: 1; stroke-width: 2px;"/></g><g class="layer-between"><g class="shapelayer"/><g class="imagelayer"/></g><path class="xlines-below"/><path class="ylines-below"/><g class="overlines-below"/><g class="xaxislayer-below"/><g class="yaxislayer-below"/><g class="overaxes-below"/><g class="overplot"><g class="xy" transform="translate(70,70)" clip-path="url(#clip45241bxyplot)"><g class="scatterlayer mlayer"><g class="trace scatter tracef5c14f" style="stroke-miterlimit: 2;"><g class="fills"><g><path class="js-fill" d="M216.2,140L0,140L0,140L61.77,140L61.77,138.3L92.66,138.3L92.66,24.73L123.54,24.73L123.54,97.39L154.43,97.39L154.43,139.81L216.2,140L216.2,140" style="fill: rgb(31, 119, 180); fill-opacity: 0.45; stroke-width: 0;"/></g></g><g class="errorbars"/><g class="lines"><path class="js-line" d="M0,140L61.77,140L61.77,138.3L92.66,138.3L92.66,24.73L123.54,24.73L123.54,97.39L154.43,97.39L154.43,139.81L216.2,140L216.2,140" style="vector-effect: none; fill: none; stroke: rgb(99, 110, 250); stroke-opacity: 1; stroke-width: 0px; opacity: 1;"/></g><g class="points"/><g class="text"/></g><g class="trace scatter tracecd2f83" style="stroke-miterlimit: 2; opacity: 1;"><g class="fills"/><g class="errorbars"/><g class="lines"><path class="js-line" d="M0,140L61.77,140L61.77,138.3L92.66,138.3L92.66,24.73L123.54,24.73L123.54,97.39L154.43,97.39L154.43,139.81L216.2,140L216.2,140" style="vector-effect: none; fill: none; stroke: rgb(10, 63, 100); stroke-opacity: 1; stroke-width: 1.2px; opacity: 1;"/></g><g class="points"/><g class="text"/></g><g class="trace scatter trace281827" style="stroke-miterlimit: 2;"><g class="fills"><g><path class="js-fill" d="M216.2,140L0,140L0,140L61.77,139.93L61.77,136.22L92.66,136.22L92.66,10.37L123.54,10.37L123.54,113.61L154.43,113.61L154.43,139.93L216.2,140L216.2,140" style="fill: rgb(255, 127, 14); fill-opacity: 0.35; stroke-width: 0;"/></g></g><g class="errorbars"/><g class="lines"><path class="js-line" d="M0,140L61.77,139.93L61.77,136.22L92.66,136.22L92.66,10.37L123.54,10.37L123.54,113.61L154.43,113.61L154.43,139.93L216.2,140L216.2,140" style="vector-effect: none; fill: none; stroke: rgb(0, 204, 150); stroke-opacity: 1; stroke-width: 0px; opacity: 1;"/></g><g class="points"/><g class="text"/></g><g class="trace scatter traceac43fe" style="stroke-miterlimit: 2; opacity: 1;"><g class="fills"/><g class="errorbars"/><g class="lines"><path class="js-line" d="M0,140L61.77,139.93L61.77,136.22L92.66,136.22L92.66,10.37L123.54,10.37L123.54,113.61L154.43,113.61L154.43,139.93L216.2,140L216.2,140" style="vector-effect: none; fill: none; stroke: rgb(179, 90, 0); stroke-opacity: 1; stroke-width: 1.2px; opacity: 1;"/></g><g class="points"/><g class="text"/></g><g class="trace scatter trace5cf692" style="stroke-miterlimit: 2;"><g class="fills"><g><path class="js-fill" d="M216.2,140L0,140L0,140L61.77,139.81L61.77,136.96L92.66,136.96L92.66,15.55L123.54,15.55L123.54,107.8L154.43,107.8L154.43,139.89L216.2,140L216.2,140" style="fill: rgb(0, 109, 67); fill-opacity: 0.35; stroke-width: 0;"/></g></g><g class="errorbars"/><g class="lines"><path class="js-line" d="M0,140L61.77,139.81L61.77,136.96L92.66,136.96L92.66,15.55L123.54,15.55L123.54,107.8L154.43,107.8L154.43,139.89L216.2,140L216.2,140" style="vector-effect: none; fill: none; stroke: rgb(255, 161, 90); stroke-opacity: 1; stroke-width: 0px; opacity: 1;"/></g><g class="points"/><g class="text"/></g><g class="trace scatter trace4589de" style="stroke-miterlimit: 2; opacity: 1;"><g class="fills"/><g class="errorbars"/><g class="lines"><path class="js-line" d="M0,140L61.77,139.81L61.77,136.96L92.66,136.96L92.66,15.55L123.54,15.55L123.54,107.8L154.43,107.8L154.43,139.89L216.2,140L216.2,140" style="vector-effect: none; fill: none; stroke: rgb(0, 77, 41); stroke-opacity: 1; stroke-width: 1.2px; opacity: 1;"/></g><g class="points"/><g class="text"/></g></g></g></g><path class="xlines-above crisp" d="M69,210.5H287.2M69,69.5H287.2" style="fill: none; stroke-width: 1px; stroke: rgb(0, 0, 0); stroke-opacity: 1;"/><path class="ylines-above crisp" d="M69.5,70V210M286.7,70V210" style="fill: none; stroke-width: 1px; stroke: rgb(0, 0, 0); stroke-opacity: 1;"/><g class="overlines-above"/><g class="xaxislayer-above"><g class="xtick"><text text-anchor="middle" x="0" y="223" transform="translate(85.44,0)" style="font-family: 'Open Sans', verdana, arial, sans-serif; font-size: 10px; fill: rgb(42, 63, 95); fill-opacity: 1; white-space: pre; opacity: 1;">-100</text></g><g class="xtick"><text text-anchor="middle" x="0" y="223" style="font-family: 'Open Sans', verdana, arial, sans-serif; font-size: 10px; fill: rgb(42, 63, 95); fill-opacity: 1; white-space: pre; opacity: 1;" transform="translate(116.33,0)">-67</text></g><g class="xtick"><text text-anchor="middle" x="0" y="223" style="font-family: 'Open Sans', verdana, arial, sans-serif; font-size: 10px; fill: rgb(42, 63, 95); fill-opacity: 1; white-space: pre; opacity: 1;" transform="translate(147.20999999999998,0)">-33</text></g><g class="xtick"><text text-anchor="middle" x="0" y="223" style="font-family: 'Open Sans', verdana, arial, sans-serif; font-size: 10px; fill: rgb(42, 63, 95); fill-opacity: 1; white-space: pre; opacity: 1;" transform="translate(178.1,0)">0</text></g><g class="xtick"><text text-anchor="middle" x="0" y="223" style="font-family: 'Open Sans', verdana, arial, sans-serif; font-size: 10px; fill: rgb(42, 63, 95); fill-opacity: 1; white-space: pre; opacity: 1;" transform="translate(208.99,0)">+33</text></g><g class="xtick"><text text-anchor="middle" x="0" y="223" style="font-family: 'Open Sans', verdana, arial, sans-serif; font-size: 10px; fill: rgb(42, 63, 95); fill-opacity: 1; white-space: pre; opacity: 1;" transform="translate(239.87,0)">+67</text></g><g class="xtick"><text text-anchor="middle" x="0" y="223" style="font-family: 'Open Sans', verdana, arial, sans-serif; font-size: 10px; fill: rgb(42, 63, 95); fill-opacity: 1; white-space: pre; opacity: 1;" transform="translate(270.76,0)">+100</text></g></g><g class="yaxislayer-above"><g class="ytick"><text text-anchor="end" x="67" y="3.5" transform="translate(0,210)" style="font-family: 'Open Sans', verdana, arial, sans-serif; font-size: 10px; fill: rgb(42, 63, 95); fill-opacity: 1; white-space: pre; opacity: 1;">0</text></g><g class="ytick"><text text-anchor="end" x="67" y="3.5" style="font-family: 'Open Sans', verdana, arial, sans-serif; font-size: 10px; fill: rgb(42, 63, 95); fill-opacity: 1; white-space: pre; opacity: 1;" transform="translate(0,172.98000000000002)">1000</text></g><g class="ytick"><text text-anchor="end" x="67" y="3.5" style="font-family: 'Open Sans', verdana, arial, sans-serif; font-size: 10px; fill: rgb(42, 63, 95); fill-opacity: 1; white-space: pre; opacity: 1;" transform="translate(0,135.97)">2000</text></g><g class="ytick"><text text-anchor="end" x="67" y="3.5" style="font-family: 'Open Sans', verdana, arial, sans-serif; font-size: 10px; fill: rgb(42, 63, 95); fill-opacity: 1; white-space: pre; opacity: 1;" transform="translate(0,98.95)">3000</text></g></g><g class="overaxes-above"/></g><g class="subplot x2y2"><g class="layer-subplot"><g class="shapelayer"/><g class="imagelayer"/></g><g class="minor-gridlayer"><g class="x2"/><g class="y2"/></g><g class="gridlayer"><g class="x2"/><g class="y2"/></g><g class="zerolinelayer"><path class="x2zl zl crisp" transform="translate(421.9,0)" d="M0,70v140" style="stroke: rgb(255, 255, 255); stroke-opacity: 1; stroke-width: 2px;"/><path class="y2zl zl crisp" transform="translate(0,210)" d="M313.8,0h216.2" style="stroke: rgb(255, 255, 255); stroke-opacity: 1; stroke-width: 2px;"/></g><g class="layer-between"><g class="shapelayer"/><g class="imagelayer"/></g><path class="xlines-below"/><path class="ylines-below"/><g class="overlines-below"/><g class="xaxislayer-below"/><g class="yaxislayer-below"/><g class="overaxes-below"/><g class="overplot"><g class="x2y2" transform="translate(313.8,70)" clip-path="url(#clip45241bx2y2plot)"><g class="scatterlayer mlayer"><g class="trace scatter trace6ae99d" style="stroke-miterlimit: 2;"><g class="fills"><g><path class="js-fill" d="M216.2,140L0,140L0,140L92.66,139.44L92.66,47.72L123.54,47.72L123.54,73.85L154.43,73.85L154.43,139.19L185.31,139.19L185.31,140L216.2,140L216.2,140" style="fill: rgb(31, 119, 180); fill-opacity: 0.45; stroke-width: 0;"/></g></g><g class="errorbars"/><g class="lines"><path class="js-line" d="M0,140L92.66,139.44L92.66,47.72L123.54,47.72L123.54,73.85L154.43,73.85L154.43,139.19L185.31,139.19L185.31,140L216.2,140L216.2,140" style="vector-effect: none; fill: none; stroke: rgb(255, 102, 146); stroke-opacity: 1; stroke-width: 0px; opacity: 1;"/></g><g class="points"/><g class="text"/></g><g class="trace scatter trace4f9f00" style="stroke-miterlimit: 2; opacity: 1;"><g class="fills"/><g class="errorbars"/><g class="lines"><path class="js-line" d="M0,140L92.66,139.44L92.66,47.72L123.54,47.72L123.54,73.85L154.43,73.85L154.43,139.19L185.31,139.19L185.31,140L216.2,140L216.2,140" style="vector-effect: none; fill: none; stroke: rgb(10, 63, 100); stroke-opacity: 1; stroke-width: 1.2px; opacity: 1;"/></g><g class="points"/><g class="text"/></g><g class="trace scatter trace841837" style="stroke-miterlimit: 2;"><g class="fills"><g><path class="js-fill" d="M216.2,140L0,140L0,140L61.77,139.96L61.77,136.56L92.66,136.56L92.66,17.92L123.54,17.92L123.54,105.76L154.43,105.76L154.43,140L216.2,140L216.2,140" style="fill: rgb(255, 127, 14); fill-opacity: 0.35; stroke-width: 0;"/></g></g><g class="errorbars"/><g class="lines"><path class="js-line" d="M0,140L61.77,139.96L61.77,136.56L92.66,136.56L92.66,17.92L123.54,17.92L123.54,105.76L154.43,105.76L154.43,140L216.2,140L216.2,140" style="vector-effect: none; fill: none; stroke: rgb(255, 151, 255); stroke-opacity: 1; stroke-width: 0px; opacity: 1;"/></g><g class="points"/><g class="text"/></g><g class="trace scatter trace52a77f" style="stroke-miterlimit: 2; opacity: 1;"><g class="fills"/><g class="errorbars"/><g class="lines"><path class="js-line" d="M0,140L61.77,139.96L61.77,136.56L92.66,136.56L92.66,17.92L123.54,17.92L123.54,105.76L154.43,105.76L154.43,140L216.2,140L216.2,140" style="vector-effect: none; fill: none; stroke: rgb(179, 90, 0); stroke-opacity: 1; stroke-width: 1.2px; opacity: 1;"/></g><g class="points"/><g class="text"/></g><g class="trace scatter trace956b8a" style="stroke-miterlimit: 2;"><g class="fills"><g><path class="js-fill" d="M216.2,140L0,140L0,140L61.77,139.96L61.77,134.89L92.66,134.89L92.66,13.66L123.54,13.66L123.54,111.42L154.43,111.42L154.43,140L216.2,140L216.2,140" style="fill: rgb(0, 109, 67); fill-opacity: 0.35; stroke-width: 0;"/></g></g><g class="errorbars"/><g class="lines"><path class="js-line" d="M0,140L61.77,139.96L61.77,134.89L92.66,134.89L92.66,13.66L123.54,13.66L123.54,111.42L154.43,111.42L154.43,140L216.2,140L216.2,140" style="vector-effect: none; fill: none; stroke: rgb(99, 110, 250); stroke-opacity: 1; stroke-width: 0px; opacity: 1;"/></g><g class="points"/><g class="text"/></g><g class="trace scatter trace9a6761" style="stroke-miterlimit: 2; opacity: 1;"><g class="fills"/><g class="errorbars"/><g class="lines"><path class="js-line" d="M0,140L61.77,139.96L61.77,134.89L92.66,134.89L92.66,13.66L123.54,13.66L123.54,111.42L154.43,111.42L154.43,140L216.2,140L216.2,140" style="vector-effect: none; fill: none; stroke: rgb(0, 77, 41); stroke-opacity: 1; stroke-width: 1.2px; opacity: 1;"/></g><g class="points"/><g class="text"/></g></g></g></g><path class="xlines-above crisp" d="M312.8,210.5H531M312.8,69.5H531" style="fill: none; stroke-width: 1px; stroke: rgb(0, 0, 0); stroke-opacity: 1;"/><path class="ylines-above crisp" d="M313.3,70V210M530.5,70V210" style="fill: none; stroke-width: 1px; stroke: rgb(0, 0, 0); stroke-opacity: 1;"/><g class="overlines-above"/><g class="xaxislayer-above"><g class="x2tick"><text text-anchor="middle" x="0" y="223" transform="translate(329.24,0)" style="font-family: 'Open Sans', verdana, arial, sans-serif; font-size: 10px; fill: rgb(42, 63, 95); fill-opacity: 1; white-space: pre; opacity: 1;">-100</text></g><g class="x2tick"><text text-anchor="middle" x="0" y="223" style="font-family: 'Open Sans', verdana, arial, sans-serif; font-size: 10px; fill: rgb(42, 63, 95); fill-opacity: 1; white-space: pre; opacity: 1;" transform="translate(360.13,0)">-67</text></g><g class="x2tick"><text text-anchor="middle" x="0" y="223" style="font-family: 'Open Sans', verdana, arial, sans-serif; font-size: 10px; fill: rgb(42, 63, 95); fill-opacity: 1; white-space: pre; opacity: 1;" transform="translate(391.01,0)">-33</text></g><g class="x2tick"><text text-anchor="middle" x="0" y="223" style="font-family: 'Open Sans', verdana, arial, sans-serif; font-size: 10px; fill: rgb(42, 63, 95); fill-opacity: 1; white-space: pre; opacity: 1;" transform="translate(421.9,0)">0</text></g><g class="x2tick"><text text-anchor="middle" x="0" y="223" style="font-family: 'Open Sans', verdana, arial, sans-serif; font-size: 10px; fill: rgb(42, 63, 95); fill-opacity: 1; white-space: pre; opacity: 1;" transform="translate(452.79,0)">+33</text></g><g class="x2tick"><text text-anchor="middle" x="0" y="223" style="font-family: 'Open Sans', verdana, arial, sans-serif; font-size: 10px; fill: rgb(42, 63, 95); fill-opacity: 1; white-space: pre; opacity: 1;" transform="translate(483.67,0)">+67</text></g><g class="x2tick"><text text-anchor="middle" x="0" y="223" style="font-family: 'Open Sans', verdana, arial, sans-serif; font-size: 10px; fill: rgb(42, 63, 95); fill-opacity: 1; white-space: pre; opacity: 1;" transform="translate(514.56,0)">+100</text></g></g><g class="yaxislayer-above"/><g class="overaxes-above"/></g></g><g class="polarlayer"/><g class="smithlayer"/><g class="ternarylayer"/><g class="geolayer"/><g class="funnelarealayer"/><g class="pielayer"/><g class="iciclelayer"/><g class="treemaplayer"/><g class="sunburstlayer"/><g class="glimages"/><defs id="topdefs-45241b"><g class="clips"/><clipPath id="legend45241b"><rect width="285" height="29" x="0" y="0"/></clipPath></defs><g class="layer-above"><g class="imagelayer"/><g class="shapelayer"/></g><g class="infolayer"><g class="legend" pointer-events="all" transform="translate(157.5,254.8)"><rect class="bg" shape-rendering="crispEdges" style="stroke: rgb(68, 68, 68); stroke-opacity: 1; fill: rgb(255, 255, 255); fill-opacity: 1; stroke-width: 0px;" width="285" height="29" x="0" y="0"/><g class="scrollbox" transform="" clip-path="url(#legend45241b)"><g class="groups"><g class="traces" transform="translate(0,14.5)" style="opacity: 1;"><text class="legendtext" text-anchor="start" x="40" y="4.29" style="font-family: 'Open Sans', verdana, arial, sans-serif; font-size: 11px; fill: rgb(42, 63, 95); fill-opacity: 1; white-space: pre;">MediaPipe</text><g class="layers"><g class="legendfill"><path class="js-fill" d="M5,-2h30v6h-30z" style="stroke-width: 0; fill: rgb(31, 119, 180); fill-opacity: 0.45;"/></g><g class="legendlines"><path class="js-line" d="M5,-2h30" style="fill: none; stroke: rgb(99, 110, 250); stroke-opacity: 1; stroke-width: 0px;"/></g><g class="legendsymbols"><g class="legendpoints"/></g></g><rect class="legendtoggle" x="0" y="-9.5" width="98.3125" height="19" style="fill: rgb(0, 0, 0); fill-opacity: 0;"/></g><g class="traces" transform="translate(100.8125,14.5)" style="opacity: 1;"><text class="legendtext" text-anchor="start" x="40" y="4.29" style="font-family: 'Open Sans', verdana, arial, sans-serif; font-size: 11px; fill: rgb(42, 63, 95); fill-opacity: 1; white-space: pre;">RTMPose</text><g class="layers"><g class="legendfill"><path class="js-fill" d="M5,-2h30v6h-30z" style="stroke-width: 0; fill: rgb(255, 127, 14); fill-opacity: 0.35;"/></g><g class="legendlines"><path class="js-line" d="M5,-2h30" style="fill: none; stroke: rgb(0, 204, 150); stroke-opacity: 1; stroke-width: 0px;"/></g><g class="legendsymbols"><g class="legendpoints"/></g></g><rect class="legendtoggle" x="0" y="-9.5" width="91.65625" height="19" style="fill: rgb(0, 0, 0); fill-opacity: 0;"/></g><g class="traces" transform="translate(194.96875,14.5)" style="opacity: 1;"><text class="legendtext" text-anchor="start" x="40" y="4.29" style="font-family: 'Open Sans', verdana, arial, sans-serif; font-size: 11px; fill: rgb(42, 63, 95); fill-opacity: 1; white-space: pre;">ViTPose</text><g class="layers"><g class="legendfill"><path class="js-fill" d="M5,-2h30v6h-30z" style="stroke-width: 0; fill: rgb(0, 109, 67); fill-opacity: 0.35;"/></g><g class="legendlines"><path class="js-line" d="M5,-2h30" style="fill: none; stroke: rgb(255, 161, 90); stroke-opacity: 1; stroke-width: 0px;"/></g><g class="legendsymbols"><g class="legendpoints"/></g></g><rect class="legendtoggle" x="0" y="-9.5" width="86.59375" height="19" style="fill: rgb(0, 0, 0); fill-opacity: 0;"/></g></g></g><rect class="scrollbar" rx="20" ry="3" width="0" height="0" style="fill: rgb(128, 139, 164); fill-opacity: 1;" x="0" y="0"/></g><g class="g-gtitle"/><g class="g-xtitle"><text class="xtitle" x="178.1" y="247.9" text-anchor="middle" style="opacity: 1; font-family: 'Open Sans', verdana, arial, sans-serif; font-size: 12px; fill: rgb(42, 63, 95); fill-opacity: 1; white-space: pre;"><tspan style="font-weight:bold">Error (ms)</tspan></text></g><g class="g-x2title"><text class="x2title" x="421.9" y="247.9" text-anchor="middle" style="opacity: 1; font-family: 'Open Sans', verdana, arial, sans-serif; font-size: 12px; fill: rgb(42, 63, 95); fill-opacity: 1; white-space: pre;"><tspan style="font-weight:bold">Error (ms)</tspan></text></g><g class="g-ytitle"><text class="ytitle" transform="rotate(-90,22.862499999999997,140)" x="22.862499999999997" y="140" text-anchor="middle" style="opacity: 1; font-family: 'Open Sans', verdana, arial, sans-serif; font-size: 12px; fill: rgb(42, 63, 95); fill-opacity: 1; white-space: pre;"><tspan style="font-weight:bold">Count</tspan></text></g><g class="g-y2title"/><g class="annotation" data-index="0" style="opacity: 1;"><g class="annotation-text-g" transform="rotate(0,178.1,58.5)"><g class="cursor-pointer" transform="translate(127,47)"><rect class="bg" x="0.5" y="0.5" width="101" height="22" style="stroke-width: 1px; stroke: rgb(0, 0, 0); stroke-opacity: 0; fill: rgb(0, 0, 0); fill-opacity: 0;"/><text class="annotation-text" text-anchor="middle" x="50.578125" y="18" style="font-family: 'Open Sans', verdana, arial, sans-serif; font-size: 16px; fill: rgb(42, 63, 95); fill-opacity: 1; white-space: pre;"><tspan style="font-weight:bold">Heel strike</tspan></text></g></g></g><g class="annotation" data-index="1" style="opacity: 1;"><g class="annotation-text-g" transform="rotate(0,421.90000000000003,58.5)"><g class="cursor-pointer" transform="translate(388,47)"><rect class="bg" x="0.5" y="0.5" width="67" height="22" style="stroke-width: 1px; stroke: rgb(0, 0, 0); stroke-opacity: 0; fill: rgb(0, 0, 0); fill-opacity: 0;"/><text class="annotation-text" text-anchor="middle" x="33.25" y="18" style="font-family: 'Open Sans', verdana, arial, sans-serif; font-size: 16px; fill: rgb(42, 63, 95); fill-opacity: 1; white-space: pre;"><tspan style="font-weight:bold">Toe off</tspan></text></g></g></g></g></svg>