<svg class="main-svg" xmlns="http://www.w3.org/2000/svg" xmlns:xlink="http://www.w3.org/1999/xlink" width="1350" height="1350" style="" viewBox="0 0 450 450"><rect x="0" y="0" width="450" height="450" style="fill: rgb(255, 255, 255); fill-opacity: 1;"/><defs id="defs-ac12f0"><g class="clips"><clipPath id="clipac12f0xyplot" class="plotclip"><rect width="351" height="340"/></clipPath><clipPath class="axesclip" id="clipac12f0x"><rect x="69" y="0" width="351" height="450"/></clipPath><clipPath class="axesclip" id="clipac12f0y"><rect x="0" y="50" width="450" height="340"/></clipPath><clipPath class="axesclip" id="clipac12f0xy"><rect x="69" y="50" width="351" height="340"/></clipPath></g><g class="gradients"/><g class="patterns"/></defs><g class="bglayer"/><g class="layer-below"><g class="imagelayer"/><g class="shapelayer"/></g><g class="cartesianlayer"><g class="subplot xy"><g class="layer-subplot"><g class="shapelayer"/><g class="imagelayer"/></g><g class="minor-gridlayer"><g class="x"/><g class="y"/></g><g class="gridlayer"><g class="x"/><g class="y"><path class="ygrid crisp" transform="translate(0,342.62)" d="M69,0h351" style="stroke: rgb(235, 240, 248); stroke-opacity: 1; stroke-width: 1px;"/><path class="ygrid crisp" transform="translate(0,277.16999999999996)" d="M69,0h351" style="stroke: rgb(235, 240, 248); stroke-opacity: 1; stroke-width: 1px;"/><path class="ygrid crisp" transform="translate(0,211.73)" d="M69,0h351" style="stroke: rgb(235, 240, 248); stroke-opacity: 1; stroke-width: 1px;"/><path class="ygrid crisp" transform="translate(0,146.28)" d="M69,0h351" style="stroke: rgb(235, 240, 248); stroke-opacity: 1; stroke-width: 1px;"/><path class="ygrid crisp" transform="translate(0,80.84)" d="M69,0h351" style="stroke: rgb(235, 240, 248); stroke-opacity: 1; stroke-width: 1px;"/></g></g><g class="zerolinelayer"/><g class="layer-between"><g class="shapelayer"/><g class="imagelayer"/></g><path class="xlines-below"/><path class="ylines-below"/><g class="overlines-below"/><g class="xaxislayer-below"/><g class="yaxislayer-below"/><g class="overaxes-below"/><g class="overplot"><g class="xy" transform="translate(69,50)" clip-path="url(#clipac12f0xyplot)"><g class="boxlayer mlayer"><g class="trace boxes" style="opacity: 0.75;"><path class="box" d="M29.84,84.55H87.17M29.84,119.55H87.17V68.01H29.84ZM58.5,119.55V171.36M58.5,68.01V17M44.17,171.36H72.83M44.17,17H72.83" style="vector-effect: none; stroke-width: 2px; stroke: rgb(211, 102, 0); stroke-opacity: 1; fill: rgb(211, 102, 0); fill-opacity: 0.5;"/><g class="points"><path class="point" transform="translate(60.97,171.36)" d="M3.5,0A3.5,3.5 0 1,1 0,-3.5A3.5,3.5 0 0,1 3.5,0Z" style="opacity: 0.6; stroke-width: 0px; fill: rgb(211, 102, 0); fill-opacity: 1;"/><path class="point" transform="translate(55.71,151.38)" d="M3.5,0A3.5,3.5 0 1,1 0,-3.5A3.5,3.5 0 0,1 3.5,0Z" style="opacity: 0.6; stroke-width: 0px; fill: rgb(211, 102, 0); fill-opacity: 1;"/><path class="point" transform="translate(62.12,143.7)" d="M3.5,0A3.5,3.5 0 1,1 0,-3.5A3.5,3.5 0 0,1 3.5,0Z" style="opacity: 0.6; stroke-width: 0px; fill: rgb(211, 102, 0); fill-opacity: 1;"/><path class="point" transform="translate(54.76,140.91)" d="M3.5,0A3.5,3.5 0 1,1 0,-3.5A3.5,3.5 0 0,1 3.5,0Z" style="opacity: 0.6; stroke-width: 0px; fill: rgb(211, 102, 0); fill-opacity: 1;"/><path class="point" transform="translate(57.37,140.22)" d="M3.5,0A3.5,3.5 0 1,1 0,-3.5A3.5,3.5 0 0,1 3.5,0Z" style="opacity: 0.6; stroke-width: 0px; fill: rgb(211, 102, 0); fill-opacity: 1;"/><path class="point" transform="translate(61.01,128.49)" d="M3.5,0A3.5,3.5 0 1,1 0,-3.5A3.5,3.5 0 0,1 3.5,0Z" style="opacity: 0.6; stroke-width: 0px; fill: rgb(211, 102, 0); fill-opacity: 1;"/><path class="point" transform="translate(58.3,110.61)" d="M3.5,0A3.5,3.5 0 1,1 0,-3.5A3.5,3.5 0 0,1 3.5,0Z" style="opacity: 0.6; stroke-width: 0px; fill: rgb(211, 102, 0); fill-opacity: 1;"/><path class="point" transform="translate(60.14,109.03)" d="M3.5,0A3.5,3.5 0 1,1 0,-3.5A3.5,3.5 0 0,1 3.5,0Z" style="opacity: 0.6; stroke-width: 0px; fill: rgb(211, 102, 0); fill-opacity: 1;"/><path class="point" transform="translate(56.67,92.29)" d="M3.5,0A3.5,3.5 0 1,1 0,-3.5A3.5,3.5 0 0,1 3.5,0Z" style="opacity: 0.6; stroke-width: 0px; fill: rgb(211, 102, 0); fill-opacity: 1;"/><path class="point" transform="translate(54.45,89.03)" d="M3.5,0A3.5,3.5 0 1,1 0,-3.5A3.5,3.5 0 0,1 3.5,0Z" style="opacity: 0.6; stroke-width: 0px; fill: rgb(211, 102, 0); fill-opacity: 1;"/><path class="point" transform="translate(60.13,86.67)" d="M3.5,0A3.5,3.5 0 1,1 0,-3.5A3.5,3.5 0 0,1 3.5,0Z" style="opacity: 0.6; stroke-width: 0px; fill: rgb(211, 102, 0); fill-opacity: 1;"/><path class="point" transform="translate(56.12,85.78)" d="M3.5,0A3.5,3.5 0 1,1 0,-3.5A3.5,3.5 0 0,1 3.5,0Z" style="opacity: 0.6; stroke-width: 0px; fill: rgb(211, 102, 0); fill-opacity: 1;"/><path class="point" transform="translate(63.03,83.32)" d="M3.5,0A3.5,3.5 0 1,1 0,-3.5A3.5,3.5 0 0,1 3.5,0Z" style="opacity: 0.6; stroke-width: 0px; fill: rgb(211, 102, 0); fill-opacity: 1;"/><path class="point" transform="translate(50.32,82.23)" d="M3.5,0A3.5,3.5 0 1,1 0,-3.5A3.5,3.5 0 0,1 3.5,0Z" style="opacity: 0.6; stroke-width: 0px; fill: rgb(211, 102, 0); fill-opacity: 1;"/><path class="point" transform="translate(53.52,76.75)" d="M3.5,0A3.5,3.5 0 1,1 0,-3.5A3.5,3.5 0 0,1 3.5,0Z" style="opacity: 0.6; stroke-width: 0px; fill: rgb(211, 102, 0); fill-opacity: 1;"/><path class="point" transform="translate(64.24,76.47)" d="M3.5,0A3.5,3.5 0 1,1 0,-3.5A3.5,3.5 0 0,1 3.5,0Z" style="opacity: 0.6; stroke-width: 0px; fill: rgb(211, 102, 0); fill-opacity: 1;"/><path class="point" transform="translate(56.99,73.64)" d="M3.5,0A3.5,3.5 0 1,1 0,-3.5A3.5,3.5 0 0,1 3.5,0Z" style="opacity: 0.6; stroke-width: 0px; fill: rgb(211, 102, 0); fill-opacity: 1;"/><path class="point" transform="translate(53.27,71.13)" d="M3.5,0A3.5,3.5 0 1,1 0,-3.5A3.5,3.5 0 0,1 3.5,0Z" style="opacity: 0.6; stroke-width: 0px; fill: rgb(211, 102, 0); fill-opacity: 1;"/><path class="point" transform="translate(56.7,64.89)" d="M3.5,0A3.5,3.5 0 1,1 0,-3.5A3.5,3.5 0 0,1 3.5,0Z" style="opacity: 0.6; stroke-width: 0px; fill: rgb(211, 102, 0); fill-opacity: 1;"/><path class="point" transform="translate(58.38,62.84)" d="M3.5,0A3.5,3.5 0 1,1 0,-3.5A3.5,3.5 0 0,1 3.5,0Z" style="opacity: 0.6; stroke-width: 0px; fill: rgb(211, 102, 0); fill-opacity: 1;"/><path class="point" transform="translate(60.8,40.65)" d="M3.5,0A3.5,3.5 0 1,1 0,-3.5A3.5,3.5 0 0,1 3.5,0Z" style="opacity: 0.6; stroke-width: 0px; fill: rgb(211, 102, 0); fill-opacity: 1;"/><path class="point" transform="translate(59.04,32.28)" d="M3.5,0A3.5,3.5 0 1,1 0,-3.5A3.5,3.5 0 0,1 3.5,0Z" style="opacity: 0.6; stroke-width: 0px; fill: rgb(211, 102, 0); fill-opacity: 1;"/><path class="point" transform="translate(57.19,31.22)" d="M3.5,0A3.5,3.5 0 1,1 0,-3.5A3.5,3.5 0 0,1 3.5,0Z" style="opacity: 0.6; stroke-width: 0px; fill: rgb(211, 102, 0); fill-opacity: 1;"/><path class="point" transform="translate(54.74,17)" d="M3.5,0A3.5,3.5 0 1,1 0,-3.5A3.5,3.5 0 0,1 3.5,0Z" style="opacity: 0.6; stroke-width: 0px; fill: rgb(211, 102, 0); fill-opacity: 1;"/></g></g><g class="trace boxes" style="opacity: 0.75;"><path class="box" d="M146.83,93.24H204.17M146.83,119.06H204.17V73.05H146.83ZM175.5,119.06V167.46M175.5,73.05V46.57M161.17,167.46H189.83M161.17,46.57H189.83" style="vector-effect: none; stroke-width: 2px; stroke: rgb(5, 79, 133); stroke-opacity: 1; fill: rgb(5, 79, 133); fill-opacity: 0.5;"/><g class="points"><path class="point" transform="translate(177.29,206.58)" d="M3.5,3.5H-3.5V-3.5H3.5Z" style="opacity: 0.6; stroke-width: 0px; fill: rgb(5, 79, 133); fill-opacity: 1;"/><path class="point" transform="translate(173.26,167.46)" d="M3.5,3.5H-3.5V-3.5H3.5Z" style="opacity: 0.6; stroke-width: 0px; fill: rgb(5, 79, 133); fill-opacity: 1;"/><path class="point" transform="translate(178.31,165.13)" d="M3.5,3.5H-3.5V-3.5H3.5Z" style="opacity: 0.6; stroke-width: 0px; fill: rgb(5, 79, 133); fill-opacity: 1;"/><path class="point" transform="translate(172.26,164.84)" d="M3.5,3.5H-3.5V-3.5H3.5Z" style="opacity: 0.6; stroke-width: 0px; fill: rgb(5, 79, 133); fill-opacity: 1;"/><path class="point" transform="translate(174.52,153.82)" d="M3.5,3.5H-3.5V-3.5H3.5Z" style="opacity: 0.6; stroke-width: 0px; fill: rgb(5, 79, 133); fill-opacity: 1;"/><path class="point" transform="translate(177.68,125.36)" d="M3.5,3.5H-3.5V-3.5H3.5Z" style="opacity: 0.6; stroke-width: 0px; fill: rgb(5, 79, 133); fill-opacity: 1;"/><path class="point" transform="translate(175.31,112.75)" d="M3.5,3.5H-3.5V-3.5H3.5Z" style="opacity: 0.6; stroke-width: 0px; fill: rgb(5, 79, 133); fill-opacity: 1;"/><path class="point" transform="translate(176.98,103.8)" d="M3.5,3.5H-3.5V-3.5H3.5Z" style="opacity: 0.6; stroke-width: 0px; fill: rgb(5, 79, 133); fill-opacity: 1;"/><path class="point" transform="translate(173.88,101.92)" d="M3.5,3.5H-3.5V-3.5H3.5Z" style="opacity: 0.6; stroke-width: 0px; fill: rgb(5, 79, 133); fill-opacity: 1;"/><path class="point" transform="translate(171.66,96.45)" d="M3.5,3.5H-3.5V-3.5H3.5Z" style="opacity: 0.6; stroke-width: 0px; fill: rgb(5, 79, 133); fill-opacity: 1;"/><path class="point" transform="translate(177.22,95.13)" d="M3.5,3.5H-3.5V-3.5H3.5Z" style="opacity: 0.6; stroke-width: 0px; fill: rgb(5, 79, 133); fill-opacity: 1;"/><path class="point" transform="translate(173.06,94.74)" d="M3.5,3.5H-3.5V-3.5H3.5Z" style="opacity: 0.6; stroke-width: 0px; fill: rgb(5, 79, 133); fill-opacity: 1;"/><path class="point" transform="translate(180.69,91.73)" d="M3.5,3.5H-3.5V-3.5H3.5Z" style="opacity: 0.6; stroke-width: 0px; fill: rgb(5, 79, 133); fill-opacity: 1;"/><path class="point" transform="translate(167.82,89.85)" d="M3.5,3.5H-3.5V-3.5H3.5Z" style="opacity: 0.6; stroke-width: 0px; fill: rgb(5, 79, 133); fill-opacity: 1;"/><path class="point" transform="translate(170.52,83.68)" d="M3.5,3.5H-3.5V-3.5H3.5Z" style="opacity: 0.6; stroke-width: 0px; fill: rgb(5, 79, 133); fill-opacity: 1;"/><path class="point" transform="translate(182.45,79.07)" d="M3.5,3.5H-3.5V-3.5H3.5Z" style="opacity: 0.6; stroke-width: 0px; fill: rgb(5, 79, 133); fill-opacity: 1;"/><path class="point" transform="translate(173.64,77.72)" d="M3.5,3.5H-3.5V-3.5H3.5Z" style="opacity: 0.6; stroke-width: 0px; fill: rgb(5, 79, 133); fill-opacity: 1;"/><path class="point" transform="translate(169.76,75.1)" d="M3.5,3.5H-3.5V-3.5H3.5Z" style="opacity: 0.6; stroke-width: 0px; fill: rgb(5, 79, 133); fill-opacity: 1;"/><path class="point" transform="translate(173.3,70.99)" d="M3.5,3.5H-3.5V-3.5H3.5Z" style="opacity: 0.6; stroke-width: 0px; fill: rgb(5, 79, 133); fill-opacity: 1;"/><path class="point" transform="translate(175.35,70.42)" d="M3.5,3.5H-3.5V-3.5H3.5Z" style="opacity: 0.6; stroke-width: 0px; fill: rgb(5, 79, 133); fill-opacity: 1;"/><path class="point" transform="translate(178.6,63.96)" d="M3.5,3.5H-3.5V-3.5H3.5Z" style="opacity: 0.6; stroke-width: 0px; fill: rgb(5, 79, 133); fill-opacity: 1;"/><path class="point" transform="translate(176.23,59.9)" d="M3.5,3.5H-3.5V-3.5H3.5Z" style="opacity: 0.6; stroke-width: 0px; fill: rgb(5, 79, 133); fill-opacity: 1;"/><path class="point" transform="translate(173.71,48.65)" d="M3.5,3.5H-3.5V-3.5H3.5Z" style="opacity: 0.6; stroke-width: 0px; fill: rgb(5, 79, 133); fill-opacity: 1;"/><path class="point" transform="translate(170.25,46.57)" d="M3.5,3.5H-3.5V-3.5H3.5Z" style="opacity: 0.6; stroke-width: 0px; fill: rgb(5, 79, 133); fill-opacity: 1;"/></g></g><g class="trace boxes" style="opacity: 0.75;"><path class="box" d="M263.84,254.08H321.17M263.84,295.53H321.17V237.2H263.84ZM292.5,295.53V323M292.5,237.2V209.43M278.17,323H306.83M278.17,209.43H306.83" style="vector-effect: none; stroke-width: 2px; stroke: rgb(2, 145, 49); stroke-opacity: 1; fill: rgb(2, 145, 49); fill-opacity: 0.5;"/><g class="points"><path class="point" transform="translate(296.33,323)" d="M4.55,0L0,4.55L-4.55,0L0,-4.55Z" style="opacity: 0.6; stroke-width: 0px; fill: rgb(2, 145, 49); fill-opacity: 1;"/><path class="point" transform="translate(288.29,307.92)" d="M4.55,0L0,4.55L-4.55,0L0,-4.55Z" style="opacity: 0.6; stroke-width: 0px; fill: rgb(2, 145, 49); fill-opacity: 1;"/><path class="point" transform="translate(296.9,307.88)" d="M4.55,0L0,4.55L-4.55,0L0,-4.55Z" style="opacity: 0.6; stroke-width: 0px; fill: rgb(2, 145, 49); fill-opacity: 1;"/><path class="point" transform="translate(287.37,306.3)" d="M4.55,0L0,4.55L-4.55,0L0,-4.55Z" style="opacity: 0.6; stroke-width: 0px; fill: rgb(2, 145, 49); fill-opacity: 1;"/><path class="point" transform="translate(290.92,303.48)" d="M4.55,0L0,4.55L-4.55,0L0,-4.55Z" style="opacity: 0.6; stroke-width: 0px; fill: rgb(2, 145, 49); fill-opacity: 1;"/><path class="point" transform="translate(295.83,301.04)" d="M4.55,0L0,4.55L-4.55,0L0,-4.55Z" style="opacity: 0.6; stroke-width: 0px; fill: rgb(2, 145, 49); fill-opacity: 1;"/><path class="point" transform="translate(292.24,290.02)" d="M4.55,0L0,4.55L-4.55,0L0,-4.55Z" style="opacity: 0.6; stroke-width: 0px; fill: rgb(2, 145, 49); fill-opacity: 1;"/><path class="point" transform="translate(294.38,270.94)" d="M4.55,0L0,4.55L-4.55,0L0,-4.55Z" style="opacity: 0.6; stroke-width: 0px; fill: rgb(2, 145, 49); fill-opacity: 1;"/><path class="point" transform="translate(290.45,270.88)" d="M4.55,0L0,4.55L-4.55,0L0,-4.55Z" style="opacity: 0.6; stroke-width: 0px; fill: rgb(2, 145, 49); fill-opacity: 1;"/><path class="point" transform="translate(287.85,270.33)" d="M4.55,0L0,4.55L-4.55,0L0,-4.55Z" style="opacity: 0.6; stroke-width: 0px; fill: rgb(2, 145, 49); fill-opacity: 1;"/><path class="point" transform="translate(294.2,263.43)" d="M4.55,0L0,4.55L-4.55,0L0,-4.55Z" style="opacity: 0.6; stroke-width: 0px; fill: rgb(2, 145, 49); fill-opacity: 1;"/><path class="point" transform="translate(290.24,257.32)" d="M4.55,0L0,4.55L-4.55,0L0,-4.55Z" style="opacity: 0.6; stroke-width: 0px; fill: rgb(2, 145, 49); fill-opacity: 1;"/><path class="point" transform="translate(297.95,250.85)" d="M4.55,0L0,4.55L-4.55,0L0,-4.55Z" style="opacity: 0.6; stroke-width: 0px; fill: rgb(2, 145, 49); fill-opacity: 1;"/><path class="point" transform="translate(284.45,248.01)" d="M4.55,0L0,4.55L-4.55,0L0,-4.55Z" style="opacity: 0.6; stroke-width: 0px; fill: rgb(2, 145, 49); fill-opacity: 1;"/><path class="point" transform="translate(287.88,243.87)" d="M4.55,0L0,4.55L-4.55,0L0,-4.55Z" style="opacity: 0.6; stroke-width: 0px; fill: rgb(2, 145, 49); fill-opacity: 1;"/><path class="point" transform="translate(299.5,241.88)" d="M4.55,0L0,4.55L-4.55,0L0,-4.55Z" style="opacity: 0.6; stroke-width: 0px; fill: rgb(2, 145, 49); fill-opacity: 1;"/><path class="point" transform="translate(290.52,239.42)" d="M4.55,0L0,4.55L-4.55,0L0,-4.55Z" style="opacity: 0.6; stroke-width: 0px; fill: rgb(2, 145, 49); fill-opacity: 1;"/><path class="point" transform="translate(285.69,238.53)" d="M4.55,0L0,4.55L-4.55,0L0,-4.55Z" style="opacity: 0.6; stroke-width: 0px; fill: rgb(2, 145, 49); fill-opacity: 1;"/><path class="point" transform="translate(289.89,235.86)" d="M4.55,0L0,4.55L-4.55,0L0,-4.55Z" style="opacity: 0.6; stroke-width: 0px; fill: rgb(2, 145, 49); fill-opacity: 1;"/><path class="point" transform="translate(292.33,232.68)" d="M4.55,0L0,4.55L-4.55,0L0,-4.55Z" style="opacity: 0.6; stroke-width: 0px; fill: rgb(2, 145, 49); fill-opacity: 1;"/><path class="point" transform="translate(295.96,225.12)" d="M4.55,0L0,4.55L-4.55,0L0,-4.55Z" style="opacity: 0.6; stroke-width: 0px; fill: rgb(2, 145, 49); fill-opacity: 1;"/><path class="point" transform="translate(293.33,218.9)" d="M4.55,0L0,4.55L-4.55,0L0,-4.55Z" style="opacity: 0.6; stroke-width: 0px; fill: rgb(2, 145, 49); fill-opacity: 1;"/><path class="point" transform="translate(290.52,212.75)" d="M4.55,0L0,4.55L-4.55,0L0,-4.55Z" style="opacity: 0.6; stroke-width: 0px; fill: rgb(2, 145, 49); fill-opacity: 1;"/><path class="point" transform="translate(286.87,209.43)" d="M4.55,0L0,4.55L-4.55,0L0,-4.55Z" style="opacity: 0.6; stroke-width: 0px; fill: rgb(2, 145, 49); fill-opacity: 1;"/></g></g></g></g></g><path class="xlines-above crisp" d="M0,0" style="fill: none;"/><path class="ylines-above crisp" d="M0,0" style="fill: none;"/><g class="overlines-above"/><g class="xaxislayer-above"><g class="xtick"><text text-anchor="middle" x="0" y="404" transform="translate(127.5,0)" style="font-family: 'Open Sans', verdana, arial, sans-serif; font-size: 13px; fill: rgb(42, 63, 95); fill-opacity: 1; white-space: pre; opacity: 1;">RTMPose</text></g><g class="xtick"><text text-anchor="middle" x="0" y="404" transform="translate(244.5,0)" style="font-family: 'Open Sans', verdana, arial, sans-serif; font-size: 13px; fill: rgb(42, 63, 95); fill-opacity: 1; white-space: pre; opacity: 1;">MediaPipe</text></g><g class="xtick"><text text-anchor="middle" x="0" y="404" transform="translate(361.5,0)" style="font-family: 'Open Sans', verdana, arial, sans-serif; font-size: 13px; fill: rgb(42, 63, 95); fill-opacity: 1; white-space: pre; opacity: 1;">ViTPose</text></g></g><g class="yaxislayer-above"><g class="ytick"><text text-anchor="end" x="68" y="4.55" transform="translate(0,342.62)" style="font-family: 'Open Sans', verdana, arial, sans-serif; font-size: 13px; fill: rgb(42, 63, 95); fill-opacity: 1; white-space: pre; opacity: 1;">0.97</text></g><g class="ytick"><text text-anchor="end" x="68" y="4.55" style="font-family: 'Open Sans', verdana, arial, sans-serif; font-size: 13px; fill: rgb(42, 63, 95); fill-opacity: 1; white-space: pre; opacity: 1;" transform="translate(0,277.16999999999996)">0.98</text></g><g class="ytick"><text text-anchor="end" x="68" y="4.55" style="font-family: 'Open Sans', verdana, arial, sans-serif; font-size: 13px; fill: rgb(42, 63, 95); fill-opacity: 1; white-space: pre; opacity: 1;" transform="translate(0,211.73)">0.99</text></g><g class="ytick"><text text-anchor="end" x="68" y="4.55" style="font-family: 'Open Sans', verdana, arial, sans-serif; font-size: 13px; fill: rgb(42, 63, 95); fill-opacity: 1; white-space: pre; opacity: 1;" transform="translate(0,146.28)">1</text></g><g class="ytick"><text text-anchor="end" x="68" y="4.55" style="font-family: 'Open Sans', verdana, arial, sans-serif; font-size: 13px; fill: rgb(42, 63, 95); fill-opacity: 1; white-space: pre; opacity: 1;" transform="translate(0,80.84)">1.01</text></g></g><g class="overaxes-above"/></g></g><g class="polarlayer"/><g class="smithlayer"/><g class="ternarylayer"/><g class="geolayer"/><g class="funnelarealayer"/><g class="pielayer"/><g class="iciclelayer"/><g class="treemaplayer"/><g class="sunburstlayer"/><g class="glimages"/><defs id="topdefs-ac12f0"><g class="clips"/></defs><g class="layer-above"><g class="imagelayer"/><g class="shapelayer"><g class="shape-group" data-index="0" clip-path="url(#clipac12f0y)"><path data-index="0" fill-rule="evenodd" d="M69,146.28L420,146.28" style="opacity: 1; stroke: rgb(0, 0, 0); stroke-opacity: 1; fill: rgb(0, 0, 0); fill-opacity: 0; stroke-dasharray: 9px, 9px; stroke-width: 1px;"/></g></g></g><g class="infolayer"><g class="g-gtitle"/><g class="g-xtitle"><text class="xtitle" x="244.5" y="432.7" text-anchor="middle" style="opacity: 1; font-family: 'Open Sans', verdana, arial, sans-serif; font-size: 16px; fill: rgb(42, 63, 95); fill-opacity: 1; white-space: pre;">Tracker</text></g><g class="g-ytitle"><text class="ytitle" transform="rotate(-90,18.36875,220)" x="18.36875" y="220" text-anchor="middle" style="opacity: 1; font-family: 'Open Sans', verdana, arial, sans-serif; font-size: 16px; fill: rgb(42, 63, 95); fill-opacity: 1; white-space: pre;">Scaling Factor</text></g></g></svg>