<svg class="main-svg" xmlns="http://www.w3.org/2000/svg" xmlns:xlink="http://www.w3.org/1999/xlink" width="1800" height="1350" style="" viewBox="0 0 600 450"><rect x="0" y="0" width="600" height="450" style="fill: rgb(255, 255, 255); fill-opacity: 1;"/><defs id="defs-c40bf9"><g class="clips"><clipPath id="clipc40bf9xyplot" class="plotclip"><rect width="501" height="340"/></clipPath><clipPath class="axesclip" id="clipc40bf9x"><rect x="69" y="0" width="501" height="450"/></clipPath><clipPath class="axesclip" id="clipc40bf9y"><rect x="0" y="50" width="600" height="340"/></clipPath><clipPath class="axesclip" id="clipc40bf9xy"><rect x="69" y="50" width="501" height="340"/></clipPath></g><g class="gradients"/><g class="patterns"/></defs><g class="bglayer"/><g class="layer-below"><g class="imagelayer"/><g class="shapelayer"/></g><g class="cartesianlayer"><g class="subplot xy"><g class="layer-subplot"><g class="shapelayer"/><g class="imagelayer"/></g><g class="minor-gridlayer"><g class="x"/><g class="y"/></g><g class="gridlayer"><g class="x"/><g class="y"><path class="ygrid crisp" transform="translate(0,342.62)" d="M69,0h501" style="stroke: rgb(235, 240, 248); stroke-opacity: 1; stroke-width: 1px;"/><path class="ygrid crisp" transform="translate(0,277.16999999999996)" d="M69,0h501" style="stroke: rgb(235, 240, 248); stroke-opacity: 1; stroke-width: 1px;"/><path class="ygrid crisp" transform="translate(0,211.73)" d="M69,0h501" style="stroke: rgb(235, 240, 248); stroke-opacity: 1; stroke-width: 1px;"/><path class="ygrid crisp" transform="translate(0,146.28)" d="M69,0h501" style="stroke: rgb(235, 240, 248); stroke-opacity: 1; stroke-width: 1px;"/><path class="ygrid crisp" transform="translate(0,80.84)" d="M69,0h501" style="stroke: rgb(235, 240, 248); stroke-opacity: 1; stroke-width: 1px;"/></g></g><g class="zerolinelayer"/><g class="layer-between"><g class="shapelayer"/><g class="imagelayer"/></g><path class="xlines-below"/><path class="ylines-below"/><g class="overlines-below"/><g class="xaxislayer-below"/><g class="yaxislayer-below"/><g class="overaxes-below"/><g class="overplot"><g class="xy" transform="translate(69,50)" clip-path="url(#clipc40bf9xyplot)"><g class="boxlayer mlayer"><g class="trace boxes" style="opacity: 0.75;"><path class="box" d="M42.59,84.55H124.42M42.59,119.55H124.42V68.01H42.59ZM83.5,119.55V171.36M83.5,68.01V17M63.04,171.36H103.96M63.04,17H103.96" style="vector-effect: none; stroke-width: 2px; stroke: rgb(211, 102, 0); stroke-opacity: 1; fill: rgb(211, 102, 0); fill-opacity: 0.5;"/><g class="points"><path class="point" transform="translate(87.02,171.36)" d="M3.5,0A3.5,3.5 0 1,1 0,-3.5A3.5,3.5 0 0,1 3.5,0Z" style="opacity: 0.6; stroke-width: 0px; fill: rgb(211, 102, 0); fill-opacity: 1;"/><path class="point" transform="translate(79.52,151.38)" d="M3.5,0A3.5,3.5 0 1,1 0,-3.5A3.5,3.5 0 0,1 3.5,0Z" style="opacity: 0.6; stroke-width: 0px; fill: rgb(211, 102, 0); fill-opacity: 1;"/><path class="point" transform="translate(88.66,143.7)" d="M3.5,0A3.5,3.5 0 1,1 0,-3.5A3.5,3.5 0 0,1 3.5,0Z" style="opacity: 0.6; stroke-width: 0px; fill: rgb(211, 102, 0); fill-opacity: 1;"/><path class="point" transform="translate(78.16,140.91)" d="M3.5,0A3.5,3.5 0 1,1 0,-3.5A3.5,3.5 0 0,1 3.5,0Z" style="opacity: 0.6; stroke-width: 0px; fill: rgb(211, 102, 0); fill-opacity: 1;"/><path class="point" transform="translate(81.88,140.22)" d="M3.5,0A3.5,3.5 0 1,1 0,-3.5A3.5,3.5 0 0,1 3.5,0Z" style="opacity: 0.6; stroke-width: 0px; fill: rgb(211, 102, 0); fill-opacity: 1;"/><path class="point" transform="translate(87.08,128.49)" d="M3.5,0A3.5,3.5 0 1,1 0,-3.5A3.5,3.5 0 0,1 3.5,0Z" style="opacity: 0.6; stroke-width: 0px; fill: rgb(211, 102, 0); fill-opacity: 1;"/><path class="point" transform="translate(83.21,110.61)" d="M3.5,0A3.5,3.5 0 1,1 0,-3.5A3.5,3.5 0 0,1 3.5,0Z" style="opacity: 0.6; stroke-width: 0px; fill: rgb(211, 102, 0); fill-opacity: 1;"/><path class="point" transform="translate(85.84,109.03)" d="M3.5,0A3.5,3.5 0 1,1 0,-3.5A3.5,3.5 0 0,1 3.5,0Z" style="opacity: 0.6; stroke-width: 0px; fill: rgb(211, 102, 0); fill-opacity: 1;"/><path class="point" transform="translate(80.88,92.29)" d="M3.5,0A3.5,3.5 0 1,1 0,-3.5A3.5,3.5 0 0,1 3.5,0Z" style="opacity: 0.6; stroke-width: 0px; fill: rgb(211, 102, 0); fill-opacity: 1;"/><path class="point" transform="translate(77.72,89.03)" d="M3.5,0A3.5,3.5 0 1,1 0,-3.5A3.5,3.5 0 0,1 3.5,0Z" style="opacity: 0.6; stroke-width: 0px; fill: rgb(211, 102, 0); fill-opacity: 1;"/><path class="point" transform="translate(85.83,86.67)" d="M3.5,0A3.5,3.5 0 1,1 0,-3.5A3.5,3.5 0 0,1 3.5,0Z" style="opacity: 0.6; stroke-width: 0px; fill: rgb(211, 102, 0); fill-opacity: 1;"/><path class="point" transform="translate(80.1,85.78)" d="M3.5,0A3.5,3.5 0 1,1 0,-3.5A3.5,3.5 0 0,1 3.5,0Z" style="opacity: 0.6; stroke-width: 0px; fill: rgb(211, 102, 0); fill-opacity: 1;"/><path class="point" transform="translate(89.97,83.32)" d="M3.5,0A3.5,3.5 0 1,1 0,-3.5A3.5,3.5 0 0,1 3.5,0Z" style="opacity: 0.6; stroke-width: 0px; fill: rgb(211, 102, 0); fill-opacity: 1;"/><path class="point" transform="translate(71.82,82.23)" d="M3.5,0A3.5,3.5 0 1,1 0,-3.5A3.5,3.5 0 0,1 3.5,0Z" style="opacity: 0.6; stroke-width: 0px; fill: rgb(211, 102, 0); fill-opacity: 1;"/><path class="point" transform="translate(76.4,76.75)" d="M3.5,0A3.5,3.5 0 1,1 0,-3.5A3.5,3.5 0 0,1 3.5,0Z" style="opacity: 0.6; stroke-width: 0px; fill: rgb(211, 102, 0); fill-opacity: 1;"/><path class="point" transform="translate(91.69,76.47)" d="M3.5,0A3.5,3.5 0 1,1 0,-3.5A3.5,3.5 0 0,1 3.5,0Z" style="opacity: 0.6; stroke-width: 0px; fill: rgb(211, 102, 0); fill-opacity: 1;"/><path class="point" transform="translate(81.35,73.64)" d="M3.5,0A3.5,3.5 0 1,1 0,-3.5A3.5,3.5 0 0,1 3.5,0Z" style="opacity: 0.6; stroke-width: 0px; fill: rgb(211, 102, 0); fill-opacity: 1;"/><path class="point" transform="translate(76.03,71.13)" d="M3.5,0A3.5,3.5 0 1,1 0,-3.5A3.5,3.5 0 0,1 3.5,0Z" style="opacity: 0.6; stroke-width: 0px; fill: rgb(211, 102, 0); fill-opacity: 1;"/><path class="point" transform="translate(80.93,64.89)" d="M3.5,0A3.5,3.5 0 1,1 0,-3.5A3.5,3.5 0 0,1 3.5,0Z" style="opacity: 0.6; stroke-width: 0px; fill: rgb(211, 102, 0); fill-opacity: 1;"/><path class="point" transform="translate(83.34,62.84)" d="M3.5,0A3.5,3.5 0 1,1 0,-3.5A3.5,3.5 0 0,1 3.5,0Z" style="opacity: 0.6; stroke-width: 0px; fill: rgb(211, 102, 0); fill-opacity: 1;"/><path class="point" transform="translate(86.78,40.65)" d="M3.5,0A3.5,3.5 0 1,1 0,-3.5A3.5,3.5 0 0,1 3.5,0Z" style="opacity: 0.6; stroke-width: 0px; fill: rgb(211, 102, 0); fill-opacity: 1;"/><path class="point" transform="translate(84.28,32.28)" d="M3.5,0A3.5,3.5 0 1,1 0,-3.5A3.5,3.5 0 0,1 3.5,0Z" style="opacity: 0.6; stroke-width: 0px; fill: rgb(211, 102, 0); fill-opacity: 1;"/><path class="point" transform="translate(81.63,31.22)" d="M3.5,0A3.5,3.5 0 1,1 0,-3.5A3.5,3.5 0 0,1 3.5,0Z" style="opacity: 0.6; stroke-width: 0px; fill: rgb(211, 102, 0); fill-opacity: 1;"/><path class="point" transform="translate(78.13,17)" d="M3.5,0A3.5,3.5 0 1,1 0,-3.5A3.5,3.5 0 0,1 3.5,0Z" style="opacity: 0.6; stroke-width: 0px; fill: rgb(211, 102, 0); fill-opacity: 1;"/></g></g><g class="trace boxes" style="opacity: 0.75;"><path class="box" d="M209.58,93.24H291.41M209.58,119.06H291.41V73.05H209.58ZM250.5,119.06V167.46M250.5,73.05V46.57M230.04,167.46H270.96M230.04,46.57H270.96" style="vector-effect: none; stroke-width: 2px; stroke: rgb(5, 79, 133); stroke-opacity: 1; fill: rgb(5, 79, 133); fill-opacity: 0.5;"/><g class="points"><path class="point" transform="translate(253.05,206.58)" d="M3.5,3.5H-3.5V-3.5H3.5Z" style="opacity: 0.6; stroke-width: 0px; fill: rgb(5, 79, 133); fill-opacity: 1;"/><path class="point" transform="translate(247.31,167.46)" d="M3.5,3.5H-3.5V-3.5H3.5Z" style="opacity: 0.6; stroke-width: 0px; fill: rgb(5, 79, 133); fill-opacity: 1;"/><path class="point" transform="translate(254.51,165.13)" d="M3.5,3.5H-3.5V-3.5H3.5Z" style="opacity: 0.6; stroke-width: 0px; fill: rgb(5, 79, 133); fill-opacity: 1;"/><path class="point" transform="translate(245.87,164.84)" d="M3.5,3.5H-3.5V-3.5H3.5Z" style="opacity: 0.6; stroke-width: 0px; fill: rgb(5, 79, 133); fill-opacity: 1;"/><path class="point" transform="translate(249.11,153.82)" d="M3.5,3.5H-3.5V-3.5H3.5Z" style="opacity: 0.6; stroke-width: 0px; fill: rgb(5, 79, 133); fill-opacity: 1;"/><path class="point" transform="translate(253.61,125.36)" d="M3.5,3.5H-3.5V-3.5H3.5Z" style="opacity: 0.6; stroke-width: 0px; fill: rgb(5, 79, 133); fill-opacity: 1;"/><path class="point" transform="translate(250.23,112.75)" d="M3.5,3.5H-3.5V-3.5H3.5Z" style="opacity: 0.6; stroke-width: 0px; fill: rgb(5, 79, 133); fill-opacity: 1;"/><path class="point" transform="translate(252.62,103.8)" d="M3.5,3.5H-3.5V-3.5H3.5Z" style="opacity: 0.6; stroke-width: 0px; fill: rgb(5, 79, 133); fill-opacity: 1;"/><path class="point" transform="translate(248.19,101.92)" d="M3.5,3.5H-3.5V-3.5H3.5Z" style="opacity: 0.6; stroke-width: 0px; fill: rgb(5, 79, 133); fill-opacity: 1;"/><path class="point" transform="translate(245.02,96.45)" d="M3.5,3.5H-3.5V-3.5H3.5Z" style="opacity: 0.6; stroke-width: 0px; fill: rgb(5, 79, 133); fill-opacity: 1;"/><path class="point" transform="translate(252.96,95.13)" d="M3.5,3.5H-3.5V-3.5H3.5Z" style="opacity: 0.6; stroke-width: 0px; fill: rgb(5, 79, 133); fill-opacity: 1;"/><path class="point" transform="translate(247.02,94.74)" d="M3.5,3.5H-3.5V-3.5H3.5Z" style="opacity: 0.6; stroke-width: 0px; fill: rgb(5, 79, 133); fill-opacity: 1;"/><path class="point" transform="translate(257.91,91.73)" d="M3.5,3.5H-3.5V-3.5H3.5Z" style="opacity: 0.6; stroke-width: 0px; fill: rgb(5, 79, 133); fill-opacity: 1;"/><path class="point" transform="translate(239.54,89.85)" d="M3.5,3.5H-3.5V-3.5H3.5Z" style="opacity: 0.6; stroke-width: 0px; fill: rgb(5, 79, 133); fill-opacity: 1;"/><path class="point" transform="translate(243.4,83.68)" d="M3.5,3.5H-3.5V-3.5H3.5Z" style="opacity: 0.6; stroke-width: 0px; fill: rgb(5, 79, 133); fill-opacity: 1;"/><path class="point" transform="translate(260.42,79.07)" d="M3.5,3.5H-3.5V-3.5H3.5Z" style="opacity: 0.6; stroke-width: 0px; fill: rgb(5, 79, 133); fill-opacity: 1;"/><path class="point" transform="translate(247.84,77.72)" d="M3.5,3.5H-3.5V-3.5H3.5Z" style="opacity: 0.6; stroke-width: 0px; fill: rgb(5, 79, 133); fill-opacity: 1;"/><path class="point" transform="translate(242.31,75.1)" d="M3.5,3.5H-3.5V-3.5H3.5Z" style="opacity: 0.6; stroke-width: 0px; fill: rgb(5, 79, 133); fill-opacity: 1;"/><path class="point" transform="translate(247.35,70.99)" d="M3.5,3.5H-3.5V-3.5H3.5Z" style="opacity: 0.6; stroke-width: 0px; fill: rgb(5, 79, 133); fill-opacity: 1;"/><path class="point" transform="translate(250.29,70.42)" d="M3.5,3.5H-3.5V-3.5H3.5Z" style="opacity: 0.6; stroke-width: 0px; fill: rgb(5, 79, 133); fill-opacity: 1;"/><path class="point" transform="translate(254.92,63.96)" d="M3.5,3.5H-3.5V-3.5H3.5Z" style="opacity: 0.6; stroke-width: 0px; fill: rgb(5, 79, 133); fill-opacity: 1;"/><path class="point" transform="translate(251.54,59.9)" d="M3.5,3.5H-3.5V-3.5H3.5Z" style="opacity: 0.6; stroke-width: 0px; fill: rgb(5, 79, 133); fill-opacity: 1;"/><path class="point" transform="translate(247.94,48.65)" d="M3.5,3.5H-3.5V-3.5H3.5Z" style="opacity: 0.6; stroke-width: 0px; fill: rgb(5, 79, 133); fill-opacity: 1;"/><path class="point" transform="translate(243.01,46.57)" d="M3.5,3.5H-3.5V-3.5H3.5Z" style="opacity: 0.6; stroke-width: 0px; fill: rgb(5, 79, 133); fill-opacity: 1;"/></g></g><g class="trace boxes" style="opacity: 0.75;"><path class="box" d="M376.59,254.08H458.42M376.59,295.53H458.42V237.2H376.59ZM417.5,295.53V323M417.5,237.2V209.43M397.04,323H437.96M397.04,209.43H437.96" style="vector-effect: none; stroke-width: 2px; stroke: rgb(2, 145, 49); stroke-opacity: 1; fill: rgb(2, 145, 49); fill-opacity: 0.5;"/><g class="points"><path class="point" transform="translate(422.97,323)" d="M4.55,0L0,4.55L-4.55,0L0,-4.55Z" style="opacity: 0.6; stroke-width: 0px; fill: rgb(2, 145, 49); fill-opacity: 1;"/><path class="point" transform="translate(411.49,307.92)" d="M4.55,0L0,4.55L-4.55,0L0,-4.55Z" style="opacity: 0.6; stroke-width: 0px; fill: rgb(2, 145, 49); fill-opacity: 1;"/><path class="point" transform="translate(423.78,307.88)" d="M4.55,0L0,4.55L-4.55,0L0,-4.55Z" style="opacity: 0.6; stroke-width: 0px; fill: rgb(2, 145, 49); fill-opacity: 1;"/><path class="point" transform="translate(410.18,306.3)" d="M4.55,0L0,4.55L-4.55,0L0,-4.55Z" style="opacity: 0.6; stroke-width: 0px; fill: rgb(2, 145, 49); fill-opacity: 1;"/><path class="point" transform="translate(415.25,303.48)" d="M4.55,0L0,4.55L-4.55,0L0,-4.55Z" style="opacity: 0.6; stroke-width: 0px; fill: rgb(2, 145, 49); fill-opacity: 1;"/><path class="point" transform="translate(422.25,301.04)" d="M4.55,0L0,4.55L-4.55,0L0,-4.55Z" style="opacity: 0.6; stroke-width: 0px; fill: rgb(2, 145, 49); fill-opacity: 1;"/><path class="point" transform="translate(417.13,290.02)" d="M4.55,0L0,4.55L-4.55,0L0,-4.55Z" style="opacity: 0.6; stroke-width: 0px; fill: rgb(2, 145, 49); fill-opacity: 1;"/><path class="point" transform="translate(420.18,270.94)" d="M4.55,0L0,4.55L-4.55,0L0,-4.55Z" style="opacity: 0.6; stroke-width: 0px; fill: rgb(2, 145, 49); fill-opacity: 1;"/><path class="point" transform="translate(414.58,270.88)" d="M4.55,0L0,4.55L-4.55,0L0,-4.55Z" style="opacity: 0.6; stroke-width: 0px; fill: rgb(2, 145, 49); fill-opacity: 1;"/><path class="point" transform="translate(410.87,270.33)" d="M4.55,0L0,4.55L-4.55,0L0,-4.55Z" style="opacity: 0.6; stroke-width: 0px; fill: rgb(2, 145, 49); fill-opacity: 1;"/><path class="point" transform="translate(419.93,263.43)" d="M4.55,0L0,4.55L-4.55,0L0,-4.55Z" style="opacity: 0.6; stroke-width: 0px; fill: rgb(2, 145, 49); fill-opacity: 1;"/><path class="point" transform="translate(414.27,257.32)" d="M4.55,0L0,4.55L-4.55,0L0,-4.55Z" style="opacity: 0.6; stroke-width: 0px; fill: rgb(2, 145, 49); fill-opacity: 1;"/><path class="point" transform="translate(425.28,250.85)" d="M4.55,0L0,4.55L-4.55,0L0,-4.55Z" style="opacity: 0.6; stroke-width: 0px; fill: rgb(2, 145, 49); fill-opacity: 1;"/><path class="point" transform="translate(406,248.01)" d="M4.55,0L0,4.55L-4.55,0L0,-4.55Z" style="opacity: 0.6; stroke-width: 0px; fill: rgb(2, 145, 49); fill-opacity: 1;"/><path class="point" transform="translate(410.91,243.87)" d="M4.55,0L0,4.55L-4.55,0L0,-4.55Z" style="opacity: 0.6; stroke-width: 0px; fill: rgb(2, 145, 49); fill-opacity: 1;"/><path class="point" transform="translate(427.49,241.88)" d="M4.55,0L0,4.55L-4.55,0L0,-4.55Z" style="opacity: 0.6; stroke-width: 0px; fill: rgb(2, 145, 49); fill-opacity: 1;"/><path class="point" transform="translate(414.67,239.42)" d="M4.55,0L0,4.55L-4.55,0L0,-4.55Z" style="opacity: 0.6; stroke-width: 0px; fill: rgb(2, 145, 49); fill-opacity: 1;"/><path class="point" transform="translate(407.78,238.53)" d="M4.55,0L0,4.55L-4.55,0L0,-4.55Z" style="opacity: 0.6; stroke-width: 0px; fill: rgb(2, 145, 49); fill-opacity: 1;"/><path class="point" transform="translate(413.78,235.86)" d="M4.55,0L0,4.55L-4.55,0L0,-4.55Z" style="opacity: 0.6; stroke-width: 0px; fill: rgb(2, 145, 49); fill-opacity: 1;"/><path class="point" transform="translate(417.26,232.68)" d="M4.55,0L0,4.55L-4.55,0L0,-4.55Z" style="opacity: 0.6; stroke-width: 0px; fill: rgb(2, 145, 49); fill-opacity: 1;"/><path class="point" transform="translate(422.43,225.12)" d="M4.55,0L0,4.55L-4.55,0L0,-4.55Z" style="opacity: 0.6; stroke-width: 0px; fill: rgb(2, 145, 49); fill-opacity: 1;"/><path class="point" transform="translate(418.69,218.9)" d="M4.55,0L0,4.55L-4.55,0L0,-4.55Z" style="opacity: 0.6; stroke-width: 0px; fill: rgb(2, 145, 49); fill-opacity: 1;"/><path class="point" transform="translate(414.67,212.75)" d="M4.55,0L0,4.55L-4.55,0L0,-4.55Z" style="opacity: 0.6; stroke-width: 0px; fill: rgb(2, 145, 49); fill-opacity: 1;"/><path class="point" transform="translate(409.47,209.43)" d="M4.55,0L0,4.55L-4.55,0L0,-4.55Z" style="opacity: 0.6; stroke-width: 0px; fill: rgb(2, 145, 49); fill-opacity: 1;"/></g></g></g></g></g><path class="xlines-above crisp" d="M0,0" style="fill: none;"/><path class="ylines-above crisp" d="M0,0" style="fill: none;"/><g class="overlines-above"/><g class="xaxislayer-above"><g class="xtick"><text text-anchor="middle" x="0" y="404" transform="translate(152.5,0)" style="font-family: 'Open Sans', verdana, arial, sans-serif; font-size: 13px; fill: rgb(42, 63, 95); fill-opacity: 1; white-space: pre; opacity: 1;">RTMPose</text></g><g class="xtick"><text text-anchor="middle" x="0" y="404" transform="translate(319.5,0)" style="font-family: 'Open Sans', verdana, arial, sans-serif; font-size: 13px; fill: rgb(42, 63, 95); fill-opacity: 1; white-space: pre; opacity: 1;">MediaPipe</text></g><g class="xtick"><text text-anchor="middle" x="0" y="404" transform="translate(486.5,0)" style="font-family: 'Open Sans', verdana, arial, sans-serif; font-size: 13px; fill: rgb(42, 63, 95); fill-opacity: 1; white-space: pre; opacity: 1;">ViTPose</text></g></g><g class="yaxislayer-above"><g class="ytick"><text text-anchor="end" x="68" y="4.55" transform="translate(0,342.62)" style="font-family: 'Open Sans', verdana, arial, sans-serif; font-size: 13px; fill: rgb(42, 63, 95); fill-opacity: 1; white-space: pre; opacity: 1;">0.97</text></g><g class="ytick"><text text-anchor="end" x="68" y="4.55" style="font-family: 'Open Sans', verdana, arial, sans-serif; font-size: 13px; fill: rgb(42, 63, 95); fill-opacity: 1; white-space: pre; opacity: 1;" transform="translate(0,277.16999999999996)">0.98</text></g><g class="ytick"><text text-anchor="end" x="68" y="4.55" style="font-family: 'Open Sans', verdana, arial, sans-serif; font-size: 13px; fill: rgb(42, 63, 95); fill-opacity: 1; white-space: pre; opacity: 1;" transform="translate(0,211.73)">0.99</text></g><g class="ytick"><text text-anchor="end" x="68" y="4.55" style="font-family: 'Open Sans', verdana, arial, sans-serif; font-size: 13px; fill: rgb(42, 63, 95); fill-opacity: 1; white-space: pre; opacity: 1;" transform="translate(0,146.28)">1</text></g><g class="ytick"><text text-anchor="end" x="68" y="4.55" style="font-family: 'Open Sans', verdana, arial, sans-serif; font-size: 13px; fill: rgb(42, 63, 95); fill-opacity: 1; white-space: pre; opacity: 1;" transform="translate(0,80.84)">1.01</text></g></g><g class="overaxes-above"/></g></g><g class="polarlayer"/><g class="smithlayer"/><g class="ternarylayer"/><g class="geolayer"/><g class="funnelarealayer"/><g class="pielayer"/><g class="iciclelayer"/><g class="treemaplayer"/><g class="sunburstlayer"/><g class="glimages"/><defs id="topdefs-c40bf9"><g class="clips"/></defs><g class="layer-above"><g class="imagelayer"/><g class="shapelayer"><g class="shape-group" data-index="0" clip-path="url(#clipc40bf9y)"><path data-index="0" fill-rule="evenodd" d="M69,146.28L570,146.28" style="opacity: 1; stroke: rgb(0, 0, 0); stroke-opacity: 1; fill: rgb(0, 0, 0); fill-opacity: 0; stroke-dasharray: 9px, 9px; stroke-width: 1px;"/></g></g></g><g class="infolayer"><g class="g-gtitle"/><g class="g-xtitle"><text class="xtitle" x="319.5" y="432.7" text-anchor="middle" style="opacity: 1; font-family: 'Open Sans', verdana, arial, sans-serif; font-size: 16px; fill: rgb(42, 63, 95); fill-opacity: 1; white-space: pre;">Tracker</text></g><g class="g-ytitle"><text class="ytitle" transform="rotate(-90,18.36875,220)" x="18.36875" y="220" text-anchor="middle" style="opacity: 1; font-family: 'Open Sans', verdana, arial, sans-serif; font-size: 16px; fill: rgb(42, 63, 95); fill-opacity: 1; white-space: pre;">Scaling Factor</text></g></g></svg>