<svg class="main-svg" xmlns="http://www.w3.org/2000/svg" xmlns:xlink="http://www.w3.org/1999/xlink" width="3000" height="1200" style="" viewBox="0 0 1000 400"><rect x="0" y="0" width="1000" height="400" style="fill: rgb(255, 255, 255); fill-opacity: 1;"/><defs id="defs-533489"><g class="clips"><clipPath id="clip533489xyplot" class="plotclip"><rect width="231.11111111111114" height="245"/></clipPath><clipPath id="clip533489x2y2plot" class="plotclip"><rect width="231.11111111111114" height="245"/></clipPath><clipPath id="clip533489x3y3plot" class="plotclip"><rect width="231.1111111111111" height="245"/></clipPath><clipPath class="axesclip" id="clip533489x"><rect x="120" y="0" width="231.11111111111114" height="400"/></clipPath><clipPath class="axesclip" id="clip533489y"><rect x="0" y="60" width="1000" height="245"/></clipPath><clipPath class="axesclip" id="clip533489xy"><rect x="120" y="60" width="231.11111111111114" height="245"/></clipPath><clipPath class="axesclip" id="clip533489y2"><rect x="0" y="60" width="1000" height="245"/></clipPath><clipPath class="axesclip" id="clip533489xy2"><rect x="120" y="60" width="231.11111111111114" height="245"/></clipPath><clipPath class="axesclip" id="clip533489y3"><rect x="0" y="60" width="1000" height="245"/></clipPath><clipPath class="axesclip" id="clip533489xy3"><rect x="120" y="60" width="231.11111111111114" height="245"/></clipPath><clipPath class="axesclip" id="clip533489x2"><rect x="404.44444444444446" y="0" width="231.11111111111114" height="400"/></clipPath><clipPath class="axesclip" id="clip533489x2y"><rect x="404.44444444444446" y="60" width="231.11111111111114" height="245"/></clipPath><clipPath class="axesclip" id="clip533489x2y2"><rect x="404.44444444444446" y="60" width="231.11111111111114" height="245"/></clipPath><clipPath class="axesclip" id="clip533489x2y3"><rect x="404.44444444444446" y="60" width="231.11111111111114" height="245"/></clipPath><clipPath class="axesclip" id="clip533489x3"><rect x="688.8888888888889" y="0" width="231.1111111111111" height="400"/></clipPath><clipPath class="axesclip" id="clip533489x3y"><rect x="688.8888888888889" y="60" width="231.1111111111111" height="245"/></clipPath><clipPath class="axesclip" id="clip533489x3y2"><rect x="688.8888888888889" y="60" width="231.1111111111111" height="245"/></clipPath><clipPath class="axesclip" id="clip533489x3y3"><rect x="688.8888888888889" y="60" width="231.1111111111111" height="245"/></clipPath></g><g class="gradients"/><g class="patterns"/></defs><g class="bglayer"/><g class="layer-below"><g class="imagelayer"/><g class="shapelayer"/></g><g class="cartesianlayer"><g class="subplot xy"><g class="layer-subplot"><g class="shapelayer"/><g class="imagelayer"/></g><g class="minor-gridlayer"><g class="x"/><g class="y"/></g><g class="gridlayer"><g class="x"/><g class="y"/></g><g class="zerolinelayer"/><g class="layer-between"><g class="shapelayer"/><g class="imagelayer"/></g><path class="xlines-below"/><path class="ylines-below"/><g class="overlines-below"/><g class="xaxislayer-below"/><g class="yaxislayer-below"/><g class="overaxes-below"/><g class="overplot"><g class="xy" transform="translate(120,60)" clip-path="url(#clip533489xyplot)"><g class="scatterlayer mlayer"><g class="trace scatter trace29844b" style="stroke-miterlimit: 2; opacity: 0.7;"><g class="fills"/><g class="errorbars"/><g class="lines"><path class="js-line" d="M4.37,228.23L224.87,36.55" style="vector-effect: none; fill: none; stroke: rgb(255, 0, 0); stroke-opacity: 1; stroke-width: 1.5px; opacity: 1;"/></g><g class="points"/><g class="text"/></g><g class="trace scatter trace429600" style="stroke-miterlimit: 2; opacity: 1;"><g class="fills"/><g class="errorbars"/><g class="lines"><path class="js-line" d="M4.37,232.75L224.87,12.25" style="vector-effect: none; fill: none; stroke: rgb(0, 0, 0); stroke-opacity: 1; stroke-dasharray: 9px, 9px; stroke-width: 2px; opacity: 1;"/></g><g class="points"/><g class="text"/></g><g class="trace scatter trace2db7ae" style="stroke-miterlimit: 2; opacity: 1;"><g class="fills"/><g class="errorbars"/><g class="lines"/><g class="points"><path class="point" transform="translate(35.4,200.8)" d="M4.5,0A4.5,4.5 0 1,1 0,-4.5A4.5,4.5 0 0,1 4.5,0Z" style="opacity: 0.7; stroke-width: 0px; fill: rgb(31, 119, 180); fill-opacity: 1;"/><path class="point" transform="translate(60.8,193.59)" d="M4.5,0A4.5,4.5 0 1,1 0,-4.5A4.5,4.5 0 0,1 4.5,0Z" style="opacity: 0.7; stroke-width: 0px; fill: rgb(31, 119, 180); fill-opacity: 1;"/><path class="point" transform="translate(98.82,159.52)" d="M4.5,0A4.5,4.5 0 1,1 0,-4.5A4.5,4.5 0 0,1 4.5,0Z" style="opacity: 0.7; stroke-width: 0px; fill: rgb(31, 119, 180); fill-opacity: 1;"/><path class="point" transform="translate(62.56,181.46)" d="M4.5,0A4.5,4.5 0 1,1 0,-4.5A4.5,4.5 0 0,1 4.5,0Z" style="opacity: 0.7; stroke-width: 0px; fill: rgb(31, 119, 180); fill-opacity: 1;"/><path class="point" transform="translate(46.91,191.99)" d="M4.5,0A4.5,4.5 0 1,1 0,-4.5A4.5,4.5 0 0,1 4.5,0Z" style="opacity: 0.7; stroke-width: 0px; fill: rgb(31, 119, 180); fill-opacity: 1;"/><path class="point" transform="translate(84.52,172.79)" d="M4.5,0A4.5,4.5 0 1,1 0,-4.5A4.5,4.5 0 0,1 4.5,0Z" style="opacity: 0.7; stroke-width: 0px; fill: rgb(31, 119, 180); fill-opacity: 1;"/><path class="point" transform="translate(210.83,46.59)" d="M4.5,0A4.5,4.5 0 1,1 0,-4.5A4.5,4.5 0 0,1 4.5,0Z" style="opacity: 0.7; stroke-width: 0px; fill: rgb(31, 119, 180); fill-opacity: 1;"/><path class="point" transform="translate(55.66,174.82)" d="M4.5,0A4.5,4.5 0 1,1 0,-4.5A4.5,4.5 0 0,1 4.5,0Z" style="opacity: 0.7; stroke-width: 0px; fill: rgb(31, 119, 180); fill-opacity: 1;"/><path class="point" transform="translate(57.62,160.76)" d="M4.5,0A4.5,4.5 0 1,1 0,-4.5A4.5,4.5 0 0,1 4.5,0Z" style="opacity: 0.7; stroke-width: 0px; fill: rgb(31, 119, 180); fill-opacity: 1;"/><path class="point" transform="translate(77.18,178.7)" d="M4.5,0A4.5,4.5 0 1,1 0,-4.5A4.5,4.5 0 0,1 4.5,0Z" style="opacity: 0.7; stroke-width: 0px; fill: rgb(31, 119, 180); fill-opacity: 1;"/><path class="point" transform="translate(92.12,124.24)" d="M4.5,0A4.5,4.5 0 1,1 0,-4.5A4.5,4.5 0 0,1 4.5,0Z" style="opacity: 0.7; stroke-width: 0px; fill: rgb(31, 119, 180); fill-opacity: 1;"/></g><g class="text"/></g></g></g></g><path class="xlines-above crisp" d="M119,305.5H351.11111111111114" style="fill: none; stroke-width: 1px; stroke: rgb(36, 36, 36); stroke-opacity: 1;"/><path class="ylines-above crisp" d="M119.5,60V305" style="fill: none; stroke-width: 1px; stroke: rgb(36, 36, 36); stroke-opacity: 1;"/><g class="overlines-above"/><g class="xaxislayer-above"><path class="xtick ticks crisp" d="M0,306v5" transform="translate(151.3,0)" style="stroke: rgb(68, 68, 68); stroke-opacity: 1; stroke-width: 1px;"/><path class="xtick ticks crisp" d="M0,306v5" transform="translate(198.78,0)" style="stroke: rgb(68, 68, 68); stroke-opacity: 1; stroke-width: 1px;"/><path class="xtick ticks crisp" d="M0,306v5" transform="translate(246.26,0)" style="stroke: rgb(68, 68, 68); stroke-opacity: 1; stroke-width: 1px;"/><path class="xtick ticks crisp" d="M0,306v5" transform="translate(293.74,0)" style="stroke: rgb(68, 68, 68); stroke-opacity: 1; stroke-width: 1px;"/><path class="xtick ticks crisp" d="M0,306v5" transform="translate(341.22,0)" style="stroke: rgb(68, 68, 68); stroke-opacity: 1; stroke-width: 1px;"/><g class="xtick"><text text-anchor="middle" x="0" y="330.2" transform="translate(151.3,0)" style="font-family: Arial; font-size: 16px; fill: rgb(36, 36, 36); fill-opacity: 1; white-space: pre; opacity: 1;">0</text></g><g class="xtick"><text text-anchor="middle" x="0" y="330.2" style="font-family: Arial; font-size: 16px; fill: rgb(36, 36, 36); fill-opacity: 1; white-space: pre; opacity: 1;" transform="translate(198.78,0)">50</text></g><g class="xtick"><text text-anchor="middle" x="0" y="330.2" style="font-family: Arial; font-size: 16px; fill: rgb(36, 36, 36); fill-opacity: 1; white-space: pre; opacity: 1;" transform="translate(246.26,0)">100</text></g><g class="xtick"><text text-anchor="middle" x="0" y="330.2" style="font-family: Arial; font-size: 16px; fill: rgb(36, 36, 36); fill-opacity: 1; white-space: pre; opacity: 1;" transform="translate(293.74,0)">150</text></g><g class="xtick"><text text-anchor="middle" x="0" y="330.2" style="font-family: Arial; font-size: 16px; fill: rgb(36, 36, 36); fill-opacity: 1; white-space: pre; opacity: 1;" transform="translate(341.22,0)">200</text></g></g><g class="yaxislayer-above"><path class="ytick ticks crisp" d="M119,0h-5" transform="translate(0,265.82)" style="stroke: rgb(68, 68, 68); stroke-opacity: 1; stroke-width: 1px;"/><path class="ytick ticks crisp" d="M119,0h-5" transform="translate(0,218.34)" style="stroke: rgb(68, 68, 68); stroke-opacity: 1; stroke-width: 1px;"/><path class="ytick ticks crisp" d="M119,0h-5" transform="translate(0,170.86)" style="stroke: rgb(68, 68, 68); stroke-opacity: 1; stroke-width: 1px;"/><path class="ytick ticks crisp" d="M119,0h-5" transform="translate(0,123.37)" style="stroke: rgb(68, 68, 68); stroke-opacity: 1; stroke-width: 1px;"/><path class="ytick ticks crisp" d="M119,0h-5" transform="translate(0,75.89)" style="stroke: rgb(68, 68, 68); stroke-opacity: 1; stroke-width: 1px;"/><g class="ytick"><text text-anchor="end" x="110.8" y="5.6" transform="translate(0,265.82)" style="font-family: Arial; font-size: 16px; fill: rgb(36, 36, 36); fill-opacity: 1; white-space: pre; opacity: 1;">0</text></g><g class="ytick"><text text-anchor="end" x="110.8" y="5.6" style="font-family: Arial; font-size: 16px; fill: rgb(36, 36, 36); fill-opacity: 1; white-space: pre; opacity: 1;" transform="translate(0,218.34)">50</text></g><g class="ytick"><text text-anchor="end" x="110.8" y="5.6" style="font-family: Arial; font-size: 16px; fill: rgb(36, 36, 36); fill-opacity: 1; white-space: pre; opacity: 1;" transform="translate(0,170.86)">100</text></g><g class="ytick"><text text-anchor="end" x="110.8" y="5.6" style="font-family: Arial; font-size: 16px; fill: rgb(36, 36, 36); fill-opacity: 1; white-space: pre; opacity: 1;" transform="translate(0,123.37)">150</text></g><g class="ytick"><text text-anchor="end" x="110.8" y="5.6" style="font-family: Arial; font-size: 16px; fill: rgb(36, 36, 36); fill-opacity: 1; white-space: pre; opacity: 1;" transform="translate(0,75.89)">200</text></g></g><g class="overaxes-above"/></g><g class="subplot x2y2"><g class="layer-subplot"><g class="shapelayer"/><g class="imagelayer"/></g><g class="minor-gridlayer"><g class="x2"/><g class="y2"/></g><g class="gridlayer"><g class="x2"/><g class="y2"/></g><g class="zerolinelayer"/><g class="layer-between"><g class="shapelayer"/><g class="imagelayer"/></g><path class="xlines-below"/><path class="ylines-below"/><g class="overlines-below"/><g class="xaxislayer-below"/><g class="yaxislayer-below"/><g class="overaxes-below"/><g class="overplot"><g class="x2y2" transform="translate(404.44444444444446,60)" clip-path="url(#clip533489x2y2plot)"><g class="scatterlayer mlayer"><g class="trace scatter trace95e360" style="stroke-miterlimit: 2; opacity: 0.7;"><g class="fills"/><g class="errorbars"/><g class="lines"><path class="js-line" d="M10.56,232.75L215,29.6" style="vector-effect: none; fill: none; stroke: rgb(255, 0, 0); stroke-opacity: 1; stroke-width: 1.5px; opacity: 1;"/></g><g class="points"/><g class="text"/></g><g class="trace scatter traced03c66" style="stroke-miterlimit: 2; opacity: 1;"><g class="fills"/><g class="errorbars"/><g class="lines"><path class="js-line" d="M10.56,216.69L215,12.25" style="vector-effect: none; fill: none; stroke: rgb(0, 0, 0); stroke-opacity: 1; stroke-dasharray: 9px, 9px; stroke-width: 2px; opacity: 1;"/></g><g class="points"/><g class="text"/></g><g class="trace scatter tracea027c6" style="stroke-miterlimit: 2; opacity: 1;"><g class="fills"/><g class="errorbars"/><g class="lines"/><g class="points"><path class="point" transform="translate(180.67,85.81)" d="M4.5,0A4.5,4.5 0 1,1 0,-4.5A4.5,4.5 0 0,1 4.5,0Z" style="opacity: 0.7; stroke-width: 0px; fill: rgb(31, 119, 180); fill-opacity: 1;"/><path class="point" transform="translate(156.77,92.78)" d="M4.5,0A4.5,4.5 0 1,1 0,-4.5A4.5,4.5 0 0,1 4.5,0Z" style="opacity: 0.7; stroke-width: 0px; fill: rgb(31, 119, 180); fill-opacity: 1;"/><path class="point" transform="translate(205.52,30.3)" d="M4.5,0A4.5,4.5 0 1,1 0,-4.5A4.5,4.5 0 0,1 4.5,0Z" style="opacity: 0.7; stroke-width: 0px; fill: rgb(31, 119, 180); fill-opacity: 1;"/><path class="point" transform="translate(173.75,45.8)" d="M4.5,0A4.5,4.5 0 1,1 0,-4.5A4.5,4.5 0 0,1 4.5,0Z" style="opacity: 0.7; stroke-width: 0px; fill: rgb(31, 119, 180); fill-opacity: 1;"/><path class="point" transform="translate(125.44,125.07)" d="M4.5,0A4.5,4.5 0 1,1 0,-4.5A4.5,4.5 0 0,1 4.5,0Z" style="opacity: 0.7; stroke-width: 0px; fill: rgb(31, 119, 180); fill-opacity: 1;"/><path class="point" transform="translate(110.04,140.19)" d="M4.5,0A4.5,4.5 0 1,1 0,-4.5A4.5,4.5 0 0,1 4.5,0Z" style="opacity: 0.7; stroke-width: 0px; fill: rgb(31, 119, 180); fill-opacity: 1;"/><path class="point" transform="translate(181.24,73.34)" d="M4.5,0A4.5,4.5 0 1,1 0,-4.5A4.5,4.5 0 0,1 4.5,0Z" style="opacity: 0.7; stroke-width: 0px; fill: rgb(31, 119, 180); fill-opacity: 1;"/><path class="point" transform="translate(141.49,94.78)" d="M4.5,0A4.5,4.5 0 1,1 0,-4.5A4.5,4.5 0 0,1 4.5,0Z" style="opacity: 0.7; stroke-width: 0px; fill: rgb(31, 119, 180); fill-opacity: 1;"/><path class="point" transform="translate(146.42,74.14)" d="M4.5,0A4.5,4.5 0 1,1 0,-4.5A4.5,4.5 0 0,1 4.5,0Z" style="opacity: 0.7; stroke-width: 0px; fill: rgb(31, 119, 180); fill-opacity: 1;"/><path class="point" transform="translate(175.73,75.32)" d="M4.5,0A4.5,4.5 0 1,1 0,-4.5A4.5,4.5 0 0,1 4.5,0Z" style="opacity: 0.7; stroke-width: 0px; fill: rgb(31, 119, 180); fill-opacity: 1;"/><path class="point" transform="translate(166.07,86.15)" d="M4.5,0A4.5,4.5 0 1,1 0,-4.5A4.5,4.5 0 0,1 4.5,0Z" style="opacity: 0.7; stroke-width: 0px; fill: rgb(31, 119, 180); fill-opacity: 1;"/></g><g class="text"/></g></g></g></g><path class="xlines-above crisp" d="M403.44444444444446,305.5H635.5555555555557" style="fill: none; stroke-width: 1px; stroke: rgb(36, 36, 36); stroke-opacity: 1;"/><path class="ylines-above crisp" d="M403.94444444444446,60V305" style="fill: none; stroke-width: 1px; stroke: rgb(36, 36, 36); stroke-opacity: 1;"/><g class="overlines-above"/><g class="xaxislayer-above"><path class="x2tick ticks crisp" d="M0,306v5" transform="translate(440.43444444444447,0)" style="stroke: rgb(68, 68, 68); stroke-opacity: 1; stroke-width: 1px;"/><path class="x2tick ticks crisp" d="M0,306v5" transform="translate(499.83444444444444,0)" style="stroke: rgb(68, 68, 68); stroke-opacity: 1; stroke-width: 1px;"/><path class="x2tick ticks crisp" d="M0,306v5" transform="translate(559.2244444444444,0)" style="stroke: rgb(68, 68, 68); stroke-opacity: 1; stroke-width: 1px;"/><path class="x2tick ticks crisp" d="M0,306v5" transform="translate(618.6244444444444,0)" style="stroke: rgb(68, 68, 68); stroke-opacity: 1; stroke-width: 1px;"/><g class="x2tick"><text text-anchor="middle" x="0" y="330.2" transform="translate(440.43444444444447,0)" style="font-family: Arial; font-size: 16px; fill: rgb(36, 36, 36); fill-opacity: 1; white-space: pre; opacity: 1;">0</text></g><g class="x2tick"><text text-anchor="middle" x="0" y="330.2" style="font-family: Arial; font-size: 16px; fill: rgb(36, 36, 36); fill-opacity: 1; white-space: pre; opacity: 1;" transform="translate(499.83444444444444,0)">100</text></g><g class="x2tick"><text text-anchor="middle" x="0" y="330.2" style="font-family: Arial; font-size: 16px; fill: rgb(36, 36, 36); fill-opacity: 1; white-space: pre; opacity: 1;" transform="translate(559.2244444444444,0)">200</text></g><g class="x2tick"><text text-anchor="middle" x="0" y="330.2" style="font-family: Arial; font-size: 16px; fill: rgb(36, 36, 36); fill-opacity: 1; white-space: pre; opacity: 1;" transform="translate(618.6244444444444,0)">300</text></g></g><g class="yaxislayer-above"><path class="y2tick ticks crisp" d="M403.44444444444446,0h-5" transform="translate(0,251.26)" style="stroke: rgb(68, 68, 68); stroke-opacity: 1; stroke-width: 1px;"/><path class="y2tick ticks crisp" d="M403.44444444444446,0h-5" transform="translate(0,191.87)" style="stroke: rgb(68, 68, 68); stroke-opacity: 1; stroke-width: 1px;"/><path class="y2tick ticks crisp" d="M403.44444444444446,0h-5" transform="translate(0,132.47)" style="stroke: rgb(68, 68, 68); stroke-opacity: 1; stroke-width: 1px;"/><path class="y2tick ticks crisp" d="M403.44444444444446,0h-5" transform="translate(0,73.08)" style="stroke: rgb(68, 68, 68); stroke-opacity: 1; stroke-width: 1px;"/><g class="y2tick"><text text-anchor="end" x="395.24444444444447" y="5.6" transform="translate(0,251.26)" style="font-family: Arial; font-size: 16px; fill: rgb(36, 36, 36); fill-opacity: 1; white-space: pre; opacity: 1;">0</text></g><g class="y2tick"><text text-anchor="end" x="395.24444444444447" y="5.6" style="font-family: Arial; font-size: 16px; fill: rgb(36, 36, 36); fill-opacity: 1; white-space: pre; opacity: 1;" transform="translate(0,191.87)">100</text></g><g class="y2tick"><text text-anchor="end" x="395.24444444444447" y="5.6" style="font-family: Arial; font-size: 16px; fill: rgb(36, 36, 36); fill-opacity: 1; white-space: pre; opacity: 1;" transform="translate(0,132.47)">200</text></g><g class="y2tick"><text text-anchor="end" x="395.24444444444447" y="5.6" style="font-family: Arial; font-size: 16px; fill: rgb(36, 36, 36); fill-opacity: 1; white-space: pre; opacity: 1;" transform="translate(0,73.08)">300</text></g></g><g class="overaxes-above"/></g><g class="subplot x3y3"><g class="layer-subplot"><g class="shapelayer"/><g class="imagelayer"/></g><g class="minor-gridlayer"><g class="x3"/><g class="y3"/></g><g class="gridlayer"><g class="x3"/><g class="y3"/></g><g class="zerolinelayer"/><g class="layer-between"><g class="shapelayer"/><g class="imagelayer"/></g><path class="xlines-below"/><path class="ylines-below"/><g class="overlines-below"/><g class="xaxislayer-below"/><g class="yaxislayer-below"/><g class="overaxes-below"/><g class="overplot"><g class="x3y3" transform="translate(688.8888888888889,60)" clip-path="url(#clip533489x3y3plot)"><g class="scatterlayer mlayer"><g class="trace scatter trace3598f8" style="stroke-miterlimit: 2; opacity: 0.7;"><g class="fills"/><g class="errorbars"/><g class="lines"><path class="js-line" d="M12.87,232.75L213.53,26.2" style="vector-effect: none; fill: none; stroke: rgb(255, 0, 0); stroke-opacity: 1; stroke-width: 1.5px; opacity: 1;"/></g><g class="points"/><g class="text"/></g><g class="trace scatter trace289f29" style="stroke-miterlimit: 2; opacity: 1;"><g class="fills"/><g class="errorbars"/><g class="lines"><path class="js-line" d="M12.87,212.9L213.53,12.25" style="vector-effect: none; fill: none; stroke: rgb(0, 0, 0); stroke-opacity: 1; stroke-dasharray: 9px, 9px; stroke-width: 2px; opacity: 1;"/></g><g class="points"/><g class="text"/></g><g class="trace scatter trace64ac7f" style="stroke-miterlimit: 2; opacity: 1;"><g class="fills"/><g class="errorbars"/><g class="lines"/><g class="points"><path class="point" transform="translate(138.3,109.37)" d="M4.5,0A4.5,4.5 0 1,1 0,-4.5A4.5,4.5 0 0,1 4.5,0Z" style="opacity: 0.7; stroke-width: 0px; fill: rgb(31, 119, 180); fill-opacity: 1;"/><path class="point" transform="translate(140.4,105.27)" d="M4.5,0A4.5,4.5 0 1,1 0,-4.5A4.5,4.5 0 0,1 4.5,0Z" style="opacity: 0.7; stroke-width: 0px; fill: rgb(31, 119, 180); fill-opacity: 1;"/><path class="point" transform="translate(203.54,31.26)" d="M4.5,0A4.5,4.5 0 1,1 0,-4.5A4.5,4.5 0 0,1 4.5,0Z" style="opacity: 0.7; stroke-width: 0px; fill: rgb(31, 119, 180); fill-opacity: 1;"/><path class="point" transform="translate(188.52,54.07)" d="M4.5,0A4.5,4.5 0 1,1 0,-4.5A4.5,4.5 0 0,1 4.5,0Z" style="opacity: 0.7; stroke-width: 0px; fill: rgb(31, 119, 180); fill-opacity: 1;"/><path class="point" transform="translate(96.59,147.02)" d="M4.5,0A4.5,4.5 0 1,1 0,-4.5A4.5,4.5 0 0,1 4.5,0Z" style="opacity: 0.7; stroke-width: 0px; fill: rgb(31, 119, 180); fill-opacity: 1;"/><path class="point" transform="translate(120.56,140.26)" d="M4.5,0A4.5,4.5 0 1,1 0,-4.5A4.5,4.5 0 0,1 4.5,0Z" style="opacity: 0.7; stroke-width: 0px; fill: rgb(31, 119, 180); fill-opacity: 1;"/><path class="point" transform="translate(189.13,51.59)" d="M4.5,0A4.5,4.5 0 1,1 0,-4.5A4.5,4.5 0 0,1 4.5,0Z" style="opacity: 0.7; stroke-width: 0px; fill: rgb(31, 119, 180); fill-opacity: 1;"/><path class="point" transform="translate(105.97,129.42)" d="M4.5,0A4.5,4.5 0 1,1 0,-4.5A4.5,4.5 0 0,1 4.5,0Z" style="opacity: 0.7; stroke-width: 0px; fill: rgb(31, 119, 180); fill-opacity: 1;"/><path class="point" transform="translate(103.98,128.48)" d="M4.5,0A4.5,4.5 0 1,1 0,-4.5A4.5,4.5 0 0,1 4.5,0Z" style="opacity: 0.7; stroke-width: 0px; fill: rgb(31, 119, 180); fill-opacity: 1;"/><path class="point" transform="translate(164.16,78.11)" d="M4.5,0A4.5,4.5 0 1,1 0,-4.5A4.5,4.5 0 0,1 4.5,0Z" style="opacity: 0.7; stroke-width: 0px; fill: rgb(31, 119, 180); fill-opacity: 1;"/><path class="point" transform="translate(146.99,86.06)" d="M4.5,0A4.5,4.5 0 1,1 0,-4.5A4.5,4.5 0 0,1 4.5,0Z" style="opacity: 0.7; stroke-width: 0px; fill: rgb(31, 119, 180); fill-opacity: 1;"/></g><g class="text"/></g></g></g></g><path class="xlines-above crisp" d="M687.8888888888889,305.5H920" style="fill: none; stroke-width: 1px; stroke: rgb(36, 36, 36); stroke-opacity: 1;"/><path class="ylines-above crisp" d="M688.3888888888889,60V305" style="fill: none; stroke-width: 1px; stroke: rgb(36, 36, 36); stroke-opacity: 1;"/><g class="overlines-above"/><g class="xaxislayer-above"><path class="x3tick ticks crisp" d="M0,306v5" transform="translate(726.6288888888889,0)" style="stroke: rgb(68, 68, 68); stroke-opacity: 1; stroke-width: 1px;"/><path class="x3tick ticks crisp" d="M0,306v5" transform="translate(774.4288888888889,0)" style="stroke: rgb(68, 68, 68); stroke-opacity: 1; stroke-width: 1px;"/><path class="x3tick ticks crisp" d="M0,306v5" transform="translate(822.218888888889,0)" style="stroke: rgb(68, 68, 68); stroke-opacity: 1; stroke-width: 1px;"/><path class="x3tick ticks crisp" d="M0,306v5" transform="translate(870.0188888888889,0)" style="stroke: rgb(68, 68, 68); stroke-opacity: 1; stroke-width: 1px;"/><path class="x3tick ticks crisp" d="M0,306v5" transform="translate(917.818888888889,0)" style="stroke: rgb(68, 68, 68); stroke-opacity: 1; stroke-width: 1px;"/><g class="x3tick"><text text-anchor="middle" x="0" y="330.2" transform="translate(726.6288888888889,0)" style="font-family: Arial; font-size: 16px; fill: rgb(36, 36, 36); fill-opacity: 1; white-space: pre; opacity: 1;">0</text></g><g class="x3tick"><text text-anchor="middle" x="0" y="330.2" style="font-family: Arial; font-size: 16px; fill: rgb(36, 36, 36); fill-opacity: 1; white-space: pre; opacity: 1;" transform="translate(774.4288888888889,0)">200</text></g><g class="x3tick"><text text-anchor="middle" x="0" y="330.2" style="font-family: Arial; font-size: 16px; fill: rgb(36, 36, 36); fill-opacity: 1; white-space: pre; opacity: 1;" transform="translate(822.218888888889,0)">400</text></g><g class="x3tick"><text text-anchor="middle" x="0" y="330.2" style="font-family: Arial; font-size: 16px; fill: rgb(36, 36, 36); fill-opacity: 1; white-space: pre; opacity: 1;" transform="translate(870.0188888888889,0)">600</text></g><g class="x3tick"><text text-anchor="middle" x="0" y="330.2" style="font-family: Arial; font-size: 16px; fill: rgb(36, 36, 36); fill-opacity: 1; white-space: pre; opacity: 1;" transform="translate(917.818888888889,0)">800</text></g></g><g class="yaxislayer-above"><path class="y3tick ticks crisp" d="M687.8888888888889,0h-5" transform="translate(0,295.83000000000004)" style="stroke: rgb(68, 68, 68); stroke-opacity: 1; stroke-width: 1px;"/><path class="y3tick ticks crisp" d="M687.8888888888889,0h-5" transform="translate(0,248.03)" style="stroke: rgb(68, 68, 68); stroke-opacity: 1; stroke-width: 1px;"/><path class="y3tick ticks crisp" d="M687.8888888888889,0h-5" transform="translate(0,200.24)" style="stroke: rgb(68, 68, 68); stroke-opacity: 1; stroke-width: 1px;"/><path class="y3tick ticks crisp" d="M687.8888888888889,0h-5" transform="translate(0,152.44)" style="stroke: rgb(68, 68, 68); stroke-opacity: 1; stroke-width: 1px;"/><path class="y3tick ticks crisp" d="M687.8888888888889,0h-5" transform="translate(0,104.65)" style="stroke: rgb(68, 68, 68); stroke-opacity: 1; stroke-width: 1px;"/><g class="y3tick"><text text-anchor="end" x="679.6888888888889" y="5.6" transform="translate(0,295.83000000000004)" style="font-family: Arial; font-size: 16px; fill: rgb(36, 36, 36); fill-opacity: 1; white-space: pre; opacity: 1;">−200</text></g><g class="y3tick"><text text-anchor="end" x="679.6888888888889" y="5.6" style="font-family: Arial; font-size: 16px; fill: rgb(36, 36, 36); fill-opacity: 1; white-space: pre; opacity: 1;" transform="translate(0,248.03)">0</text></g><g class="y3tick"><text text-anchor="end" x="679.6888888888889" y="5.6" style="font-family: Arial; font-size: 16px; fill: rgb(36, 36, 36); fill-opacity: 1; white-space: pre; opacity: 1;" transform="translate(0,200.24)">200</text></g><g class="y3tick"><text text-anchor="end" x="679.6888888888889" y="5.6" style="font-family: Arial; font-size: 16px; fill: rgb(36, 36, 36); fill-opacity: 1; white-space: pre; opacity: 1;" transform="translate(0,152.44)">400</text></g><g class="y3tick"><text text-anchor="end" x="679.6888888888889" y="5.6" style="font-family: Arial; font-size: 16px; fill: rgb(36, 36, 36); fill-opacity: 1; white-space: pre; opacity: 1;" transform="translate(0,104.65)">600</text></g></g><g class="overaxes-above"/></g></g><g class="polarlayer"/><g class="smithlayer"/><g class="ternarylayer"/><g class="geolayer"/><g class="funnelarealayer"/><g class="pielayer"/><g class="iciclelayer"/><g class="treemaplayer"/><g class="sunburstlayer"/><g class="glimages"/><defs id="topdefs-533489"><g class="clips"/></defs><g class="layer-above"><g class="imagelayer"/><g class="shapelayer"><g class="shape-group" data-index="0" clip-path="url(#clip533489xy)"><path data-index="0" fill-rule="evenodd" d="M124.37,265.82L344.87,265.82" style="opacity: 0.3; stroke: rgb(169, 169, 169); stroke-opacity: 1; fill: rgb(0, 0, 0); fill-opacity: 1; stroke-dasharray: 3px, 3px; stroke-width: 1.5px;"/></g><g class="shape-group" data-index="1" clip-path="url(#clip533489xy)"><path data-index="1" fill-rule="evenodd" d="M151.3,292.75L151.3,72.25" style="opacity: 0.3; stroke: rgb(169, 169, 169); stroke-opacity: 1; fill: rgb(0, 0, 0); fill-opacity: 1; stroke-dasharray: 3px, 3px; stroke-width: 1.5px;"/></g><g class="shape-group" data-index="2" clip-path="url(#clip533489x2y2)"><path data-index="2" fill-rule="evenodd" d="M415.00444444444446,251.26L619.4444444444445,251.26" style="opacity: 0.3; stroke: rgb(169, 169, 169); stroke-opacity: 1; fill: rgb(0, 0, 0); fill-opacity: 1; stroke-dasharray: 3px, 3px; stroke-width: 1.5px;"/></g><g class="shape-group" data-index="3" clip-path="url(#clip533489x2y2)"><path data-index="3" fill-rule="evenodd" d="M440.43444444444447,276.69L440.43444444444447,72.25" style="opacity: 0.3; stroke: rgb(169, 169, 169); stroke-opacity: 1; fill: rgb(0, 0, 0); fill-opacity: 1; stroke-dasharray: 3px, 3px; stroke-width: 1.5px;"/></g><g class="shape-group" data-index="4" clip-path="url(#clip533489x3y3)"><path data-index="4" fill-rule="evenodd" d="M701.7588888888889,248.03L902.4188888888889,248.03" style="opacity: 0.3; stroke: rgb(169, 169, 169); stroke-opacity: 1; fill: rgb(0, 0, 0); fill-opacity: 1; stroke-dasharray: 3px, 3px; stroke-width: 1.5px;"/></g><g class="shape-group" data-index="5" clip-path="url(#clip533489x3y3)"><path data-index="5" fill-rule="evenodd" d="M726.6288888888889,272.9L726.6288888888889,72.25" style="opacity: 0.3; stroke: rgb(169, 169, 169); stroke-opacity: 1; fill: rgb(0, 0, 0); fill-opacity: 1; stroke-dasharray: 3px, 3px; stroke-width: 1.5px;"/></g></g></g><g class="infolayer"><g class="g-gtitle"/><g class="g-xtitle"><text class="xtitle" x="235.55555555555557" y="361.703125" text-anchor="middle" style="opacity: 1; font-family: Arial; font-size: 20px; fill: rgb(36, 36, 36); fill-opacity: 1; white-space: pre;"><tspan class="line" dy="0em" x="235.55555555555557" y="361.703125"><tspan style="font-weight:bold"> Reference </tspan></tspan><tspan class="line" dy="1.3em" x="235.55555555555557" y="361.703125"><tspan style="font-weight:bold"> ΔCOM path length (mm) </tspan></tspan></text></g><g class="g-x2title"><text class="x2title" x="520" y="361.703125" text-anchor="middle" style="opacity: 1; font-family: Arial; font-size: 20px; fill: rgb(36, 36, 36); fill-opacity: 1; white-space: pre;"><tspan class="line" dy="0em" x="520" y="361.703125"><tspan style="font-weight:bold"> Reference </tspan></tspan><tspan class="line" dy="1.3em" x="520" y="361.703125"><tspan style="font-weight:bold"> ΔCOM path length (mm) </tspan></tspan></text></g><g class="g-x3title"><text class="x3title" x="804.4444444444445" y="361.703125" text-anchor="middle" style="opacity: 1; font-family: Arial; font-size: 20px; fill: rgb(36, 36, 36); fill-opacity: 1; white-space: pre;"><tspan class="line" dy="0em" x="804.4444444444445" y="361.703125"><tspan style="font-weight:bold"> Reference </tspan></tspan><tspan class="line" dy="1.3em" x="804.4444444444445" y="361.703125"><tspan style="font-weight:bold"> ΔCOM path length (mm) </tspan></tspan></text></g><g class="g-ytitle"><text class="ytitle" transform="rotate(-90,36.59375,182.5)" x="36.59375" y="182.5" text-anchor="middle" style="opacity: 1; font-family: Arial; font-size: 20px; fill: rgb(36, 36, 36); fill-opacity: 1; white-space: pre;"><tspan class="line" dy="0em" x="36.59375" y="182.5"><tspan style="font-weight:bold">FMC-MediaPipe</tspan></tspan><tspan class="line" dy="1.3em" x="36.59375" y="182.5"><tspan style="font-weight:bold">ΔCOM path length (mm)</tspan></tspan></text></g><g class="g-y2title"/><g class="g-y3title"/><g class="annotation" data-index="0" style="opacity: 1;"><g class="annotation-text-g" transform="rotate(0,235.55555555555557,45.49999999999999)"><g class="cursor-pointer" transform="translate(123,31)"><rect class="bg" x="0.5" y="0.5" width="225" height="28" style="stroke-width: 1px; stroke: rgb(0, 0, 0); stroke-opacity: 0; fill: rgb(0, 0, 0); fill-opacity: 0;"/><text class="annotation-text" text-anchor="middle" x="112.9375" y="22" style="font-family: Arial; font-size: 22px; fill: rgb(36, 36, 36); fill-opacity: 1; white-space: pre;"><tspan style="font-weight:bold"> EC:Solid − EO:Solid </tspan></text></g></g></g><g class="annotation" data-index="1" style="opacity: 1;"><g class="annotation-text-g" transform="rotate(0,520,45.49999999999999)"><g class="cursor-pointer" transform="translate(404,31)"><rect class="bg" x="0.5" y="0.5" width="231" height="28" style="stroke-width: 1px; stroke: rgb(0, 0, 0); stroke-opacity: 0; fill: rgb(0, 0, 0); fill-opacity: 0;"/><text class="annotation-text" text-anchor="middle" x="116" y="22" style="font-family: Arial; font-size: 22px; fill: rgb(36, 36, 36); fill-opacity: 1; white-space: pre;"><tspan style="font-weight:bold"> EO:Foam − EO:Solid </tspan></text></g></g></g><g class="annotation" data-index="2" style="opacity: 1;"><g class="annotation-text-g" transform="rotate(0,804.4444444444445,45.49999999999999)"><g class="cursor-pointer" transform="translate(689,31)"><rect class="bg" x="0.5" y="0.5" width="230" height="28" style="stroke-width: 1px; stroke: rgb(0, 0, 0); stroke-opacity: 0; fill: rgb(0, 0, 0); fill-opacity: 0;"/><text class="annotation-text" text-anchor="middle" x="115.375" y="22" style="font-family: Arial; font-size: 22px; fill: rgb(36, 36, 36); fill-opacity: 1; white-space: pre;"><tspan style="font-weight:bold"> EC:Foam − EO:Solid </tspan></text></g></g></g><g class="annotation" data-index="3" style="opacity: 1;"><g class="annotation-text-g" transform="rotate(0,277.05555555555554,263.75)"><g class="cursor-pointer" transform="translate(215,235)"><rect class="bg" x="0.5" y="0.5" width="124" height="57" style="stroke-width: 1px; stroke: rgb(0, 0, 0); stroke-opacity: 0; fill: rgb(0, 0, 0); fill-opacity: 0;"/><text class="annotation-text" text-anchor="middle" x="62.25" y="22" style="font-family: Arial; font-size: 22px; fill: rgb(36, 36, 36); fill-opacity: 1; white-space: pre;"><tspan class="line" dy="0em" x="62.25" y="22"><tspan style="font-style:italic">r²</tspan> = 0.89</tspan><tspan class="line" dy="1.3em" x="62.25" y="22">slope = 0.87</tspan></text></g></g></g><g class="annotation" data-index="4" style="opacity: 1;"><g class="annotation-text-g" transform="rotate(0,561.5,263.75)"><g class="cursor-pointer" transform="translate(499,235)"><rect class="bg" x="0.5" y="0.5" width="124" height="57" style="stroke-width: 1px; stroke: rgb(0, 0, 0); stroke-opacity: 0; fill: rgb(0, 0, 0); fill-opacity: 0;"/><text class="annotation-text" text-anchor="middle" x="62.25" y="22" style="font-family: Arial; font-size: 22px; fill: rgb(36, 36, 36); fill-opacity: 1; white-space: pre;"><tspan class="line" dy="0em" x="62.25" y="22"><tspan style="font-style:italic">r²</tspan> = 0.78</tspan><tspan class="line" dy="1.3em" x="62.25" y="22">slope = 0.99</tspan></text></g></g></g><g class="annotation" data-index="5" style="opacity: 1;"><g class="annotation-text-g" transform="rotate(0,845.9444444444445,263.75)"><g class="cursor-pointer" transform="translate(783,235)"><rect class="bg" x="0.5" y="0.5" width="124" height="57" style="stroke-width: 1px; stroke: rgb(0, 0, 0); stroke-opacity: 0; fill: rgb(0, 0, 0); fill-opacity: 0;"/><text class="annotation-text" text-anchor="middle" x="62.25" y="22" style="font-family: Arial; font-size: 22px; fill: rgb(36, 36, 36); fill-opacity: 1; white-space: pre;"><tspan class="line" dy="0em" x="62.25" y="22"><tspan style="font-style:italic">r²</tspan> = 0.96</tspan><tspan class="line" dy="1.3em" x="62.25" y="22">slope = 1.03</tspan></text></g></g></g></g></svg>