<svg class="main-svg" xmlns="http://www.w3.org/2000/svg" xmlns:xlink="http://www.w3.org/1999/xlink" width="3000" height="1200" style="" viewBox="0 0 1000 400"><rect x="0" y="0" width="1000" height="400" style="fill: rgb(255, 255, 255); fill-opacity: 1;"/><defs id="defs-660ec7"><g class="clips"><clipPath id="clip660ec7xyplot" class="plotclip"><rect width="231.11111111111114" height="245"/></clipPath><clipPath id="clip660ec7x2y2plot" class="plotclip"><rect width="231.11111111111114" height="245"/></clipPath><clipPath id="clip660ec7x3y3plot" class="plotclip"><rect width="231.1111111111111" height="245"/></clipPath><clipPath class="axesclip" id="clip660ec7x"><rect x="120" y="0" width="231.11111111111114" height="400"/></clipPath><clipPath class="axesclip" id="clip660ec7y"><rect x="0" y="60" width="1000" height="245"/></clipPath><clipPath class="axesclip" id="clip660ec7xy"><rect x="120" y="60" width="231.11111111111114" height="245"/></clipPath><clipPath class="axesclip" id="clip660ec7y2"><rect x="0" y="60" width="1000" height="245"/></clipPath><clipPath class="axesclip" id="clip660ec7xy2"><rect x="120" y="60" width="231.11111111111114" height="245"/></clipPath><clipPath class="axesclip" id="clip660ec7y3"><rect x="0" y="60" width="1000" height="245"/></clipPath><clipPath class="axesclip" id="clip660ec7xy3"><rect x="120" y="60" width="231.11111111111114" height="245"/></clipPath><clipPath class="axesclip" id="clip660ec7x2"><rect x="404.44444444444446" y="0" width="231.11111111111114" height="400"/></clipPath><clipPath class="axesclip" id="clip660ec7x2y"><rect x="404.44444444444446" y="60" width="231.11111111111114" height="245"/></clipPath><clipPath class="axesclip" id="clip660ec7x2y2"><rect x="404.44444444444446" y="60" width="231.11111111111114" height="245"/></clipPath><clipPath class="axesclip" id="clip660ec7x2y3"><rect x="404.44444444444446" y="60" width="231.11111111111114" height="245"/></clipPath><clipPath class="axesclip" id="clip660ec7x3"><rect x="688.8888888888889" y="0" width="231.1111111111111" height="400"/></clipPath><clipPath class="axesclip" id="clip660ec7x3y"><rect x="688.8888888888889" y="60" width="231.1111111111111" height="245"/></clipPath><clipPath class="axesclip" id="clip660ec7x3y2"><rect x="688.8888888888889" y="60" width="231.1111111111111" height="245"/></clipPath><clipPath class="axesclip" id="clip660ec7x3y3"><rect x="688.8888888888889" y="60" width="231.1111111111111" height="245"/></clipPath></g><g class="gradients"/><g class="patterns"/></defs><g class="bglayer"/><g class="layer-below"><g class="imagelayer"/><g class="shapelayer"/></g><g class="cartesianlayer"><g class="subplot xy"><g class="layer-subplot"><g class="shapelayer"/><g class="imagelayer"/></g><g class="minor-gridlayer"><g class="x"/><g class="y"/></g><g class="gridlayer"><g class="x"/><g class="y"/></g><g class="zerolinelayer"/><g class="layer-between"><g class="shapelayer"/><g class="imagelayer"/></g><path class="xlines-below"/><path class="ylines-below"/><g class="overlines-below"/><g class="xaxislayer-below"/><g class="yaxislayer-below"/><g class="overaxes-below"/><g class="overplot"><g class="xy" transform="translate(120,60)" clip-path="url(#clip660ec7xyplot)"><g class="scatterlayer mlayer"><g class="trace scatter trace5e09bb" style="stroke-miterlimit: 2; opacity: 0.7;"><g class="fills"/><g class="errorbars"/><g class="lines"><path class="js-line" d="M4.27,231.63L224.77,35.17" style="vector-effect: none; fill: none; stroke: rgb(255, 0, 0); stroke-opacity: 1; stroke-width: 1.5px; opacity: 1;"/></g><g class="points"/><g class="text"/></g><g class="trace scatter trace0941cd" style="stroke-miterlimit: 2; opacity: 1;"><g class="fills"/><g class="errorbars"/><g class="lines"><path class="js-line" d="M4.27,232.75L224.77,12.25" style="vector-effect: none; fill: none; stroke: rgb(0, 0, 0); stroke-opacity: 1; stroke-dasharray: 9px, 9px; stroke-width: 2px; opacity: 1;"/></g><g class="points"/><g class="text"/></g><g class="trace scatter tracebd0df4" style="stroke-miterlimit: 2; opacity: 1;"><g class="fills"/><g class="errorbars"/><g class="lines"/><g class="points"><path class="point" transform="translate(37.82,197.89)" d="M4.5,0A4.5,4.5 0 1,1 0,-4.5A4.5,4.5 0 0,1 4.5,0Z" style="opacity: 0.7; stroke-width: 0px; fill: rgb(31, 119, 180); fill-opacity: 1;"/><path class="point" transform="translate(63.16,190.83)" d="M4.5,0A4.5,4.5 0 1,1 0,-4.5A4.5,4.5 0 0,1 4.5,0Z" style="opacity: 0.7; stroke-width: 0px; fill: rgb(31, 119, 180); fill-opacity: 1;"/><path class="point" transform="translate(101.56,157.22)" d="M4.5,0A4.5,4.5 0 1,1 0,-4.5A4.5,4.5 0 0,1 4.5,0Z" style="opacity: 0.7; stroke-width: 0px; fill: rgb(31, 119, 180); fill-opacity: 1;"/><path class="point" transform="translate(65.63,178.82)" d="M4.5,0A4.5,4.5 0 1,1 0,-4.5A4.5,4.5 0 0,1 4.5,0Z" style="opacity: 0.7; stroke-width: 0px; fill: rgb(31, 119, 180); fill-opacity: 1;"/><path class="point" transform="translate(49.69,189.15)" d="M4.5,0A4.5,4.5 0 1,1 0,-4.5A4.5,4.5 0 0,1 4.5,0Z" style="opacity: 0.7; stroke-width: 0px; fill: rgb(31, 119, 180); fill-opacity: 1;"/><path class="point" transform="translate(84.93,170.21)" d="M4.5,0A4.5,4.5 0 1,1 0,-4.5A4.5,4.5 0 0,1 4.5,0Z" style="opacity: 0.7; stroke-width: 0px; fill: rgb(31, 119, 180); fill-opacity: 1;"/><path class="point" transform="translate(210.92,46.32)" d="M4.5,0A4.5,4.5 0 1,1 0,-4.5A4.5,4.5 0 0,1 4.5,0Z" style="opacity: 0.7; stroke-width: 0px; fill: rgb(31, 119, 180); fill-opacity: 1;"/><path class="point" transform="translate(57.58,172.25)" d="M4.5,0A4.5,4.5 0 1,1 0,-4.5A4.5,4.5 0 0,1 4.5,0Z" style="opacity: 0.7; stroke-width: 0px; fill: rgb(31, 119, 180); fill-opacity: 1;"/><path class="point" transform="translate(79.25,176.13)" d="M4.5,0A4.5,4.5 0 1,1 0,-4.5A4.5,4.5 0 0,1 4.5,0Z" style="opacity: 0.7; stroke-width: 0px; fill: rgb(31, 119, 180); fill-opacity: 1;"/><path class="point" transform="translate(94.6,122.53)" d="M4.5,0A4.5,4.5 0 1,1 0,-4.5A4.5,4.5 0 0,1 4.5,0Z" style="opacity: 0.7; stroke-width: 0px; fill: rgb(31, 119, 180); fill-opacity: 1;"/></g><g class="text"/></g></g></g></g><path class="xlines-above crisp" d="M119,305.5H351.11111111111114" style="fill: none; stroke-width: 1px; stroke: rgb(36, 36, 36); stroke-opacity: 1;"/><path class="ylines-above crisp" d="M119.5,60V305" style="fill: none; stroke-width: 1px; stroke: rgb(36, 36, 36); stroke-opacity: 1;"/><g class="overlines-above"/><g class="xaxislayer-above"><path class="xtick ticks crisp" d="M0,306v5" transform="translate(154.18,0)" style="stroke: rgb(68, 68, 68); stroke-opacity: 1; stroke-width: 1px;"/><path class="xtick ticks crisp" d="M0,306v5" transform="translate(228.95999999999998,0)" style="stroke: rgb(68, 68, 68); stroke-opacity: 1; stroke-width: 1px;"/><path class="xtick ticks crisp" d="M0,306v5" transform="translate(303.75,0)" style="stroke: rgb(68, 68, 68); stroke-opacity: 1; stroke-width: 1px;"/><g class="xtick"><text text-anchor="middle" x="0" y="330.2" transform="translate(154.18,0)" style="font-family: Arial; font-size: 16px; fill: rgb(36, 36, 36); fill-opacity: 1; white-space: pre; opacity: 1;">0</text></g><g class="xtick"><text text-anchor="middle" x="0" y="330.2" style="font-family: Arial; font-size: 16px; fill: rgb(36, 36, 36); fill-opacity: 1; white-space: pre; opacity: 1;" transform="translate(228.95999999999998,0)">0.05</text></g><g class="xtick"><text text-anchor="middle" x="0" y="330.2" style="font-family: Arial; font-size: 16px; fill: rgb(36, 36, 36); fill-opacity: 1; white-space: pre; opacity: 1;" transform="translate(303.75,0)">0.1</text></g></g><g class="yaxislayer-above"><path class="ytick ticks crisp" d="M119,0h-5" transform="translate(0,262.84000000000003)" style="stroke: rgb(68, 68, 68); stroke-opacity: 1; stroke-width: 1px;"/><path class="ytick ticks crisp" d="M119,0h-5" transform="translate(0,188.05)" style="stroke: rgb(68, 68, 68); stroke-opacity: 1; stroke-width: 1px;"/><path class="ytick ticks crisp" d="M119,0h-5" transform="translate(0,113.27000000000001)" style="stroke: rgb(68, 68, 68); stroke-opacity: 1; stroke-width: 1px;"/><g class="ytick"><text text-anchor="end" x="110.8" y="5.6" transform="translate(0,262.84000000000003)" style="font-family: Arial; font-size: 16px; fill: rgb(36, 36, 36); fill-opacity: 1; white-space: pre; opacity: 1;">0</text></g><g class="ytick"><text text-anchor="end" x="110.8" y="5.6" style="font-family: Arial; font-size: 16px; fill: rgb(36, 36, 36); fill-opacity: 1; white-space: pre; opacity: 1;" transform="translate(0,188.05)">0.05</text></g><g class="ytick"><text text-anchor="end" x="110.8" y="5.6" style="font-family: Arial; font-size: 16px; fill: rgb(36, 36, 36); fill-opacity: 1; white-space: pre; opacity: 1;" transform="translate(0,113.27000000000001)">0.1</text></g></g><g class="overaxes-above"/></g><g class="subplot x2y2"><g class="layer-subplot"><g class="shapelayer"/><g class="imagelayer"/></g><g class="minor-gridlayer"><g class="x2"/><g class="y2"/></g><g class="gridlayer"><g class="x2"/><g class="y2"/></g><g class="zerolinelayer"/><g class="layer-between"><g class="shapelayer"/><g class="imagelayer"/></g><path class="xlines-below"/><path class="ylines-below"/><g class="overlines-below"/><g class="xaxislayer-below"/><g class="yaxislayer-below"/><g class="overaxes-below"/><g class="overplot"><g class="x2y2" transform="translate(404.44444444444446,60)" clip-path="url(#clip660ec7x2y2plot)"><g class="scatterlayer mlayer"><g class="trace scatter tracef2176b" style="stroke-miterlimit: 2; opacity: 0.7;"><g class="fills"/><g class="errorbars"/><g class="lines"><path class="js-line" d="M14.73,232.75L211.03,28.36" style="vector-effect: none; fill: none; stroke: rgb(255, 0, 0); stroke-opacity: 1; stroke-width: 1.5px; opacity: 1;"/></g><g class="points"/><g class="text"/></g><g class="trace scatter trace876362" style="stroke-miterlimit: 2; opacity: 1;"><g class="fills"/><g class="errorbars"/><g class="lines"><path class="js-line" d="M14.73,208.55L211.03,12.25" style="vector-effect: none; fill: none; stroke: rgb(0, 0, 0); stroke-opacity: 1; stroke-dasharray: 9px, 9px; stroke-width: 2px; opacity: 1;"/></g><g class="points"/><g class="text"/></g><g class="trace scatter tracea13e9b" style="stroke-miterlimit: 2; opacity: 1;"><g class="fills"/><g class="errorbars"/><g class="lines"/><g class="points"><path class="point" transform="translate(177.84,82.52)" d="M4.5,0A4.5,4.5 0 1,1 0,-4.5A4.5,4.5 0 0,1 4.5,0Z" style="opacity: 0.7; stroke-width: 0px; fill: rgb(31, 119, 180); fill-opacity: 1;"/><path class="point" transform="translate(154.71,89.68)" d="M4.5,0A4.5,4.5 0 1,1 0,-4.5A4.5,4.5 0 0,1 4.5,0Z" style="opacity: 0.7; stroke-width: 0px; fill: rgb(31, 119, 180); fill-opacity: 1;"/><path class="point" transform="translate(201.95,29.14)" d="M4.5,0A4.5,4.5 0 1,1 0,-4.5A4.5,4.5 0 0,1 4.5,0Z" style="opacity: 0.7; stroke-width: 0px; fill: rgb(31, 119, 180); fill-opacity: 1;"/><path class="point" transform="translate(171.5,44.01)" d="M4.5,0A4.5,4.5 0 1,1 0,-4.5A4.5,4.5 0 0,1 4.5,0Z" style="opacity: 0.7; stroke-width: 0px; fill: rgb(31, 119, 180); fill-opacity: 1;"/><path class="point" transform="translate(125.24,120.11)" d="M4.5,0A4.5,4.5 0 1,1 0,-4.5A4.5,4.5 0 0,1 4.5,0Z" style="opacity: 0.7; stroke-width: 0px; fill: rgb(31, 119, 180); fill-opacity: 1;"/><path class="point" transform="translate(110.2,134.83)" d="M4.5,0A4.5,4.5 0 1,1 0,-4.5A4.5,4.5 0 0,1 4.5,0Z" style="opacity: 0.7; stroke-width: 0px; fill: rgb(31, 119, 180); fill-opacity: 1;"/><path class="point" transform="translate(178.74,70.85)" d="M4.5,0A4.5,4.5 0 1,1 0,-4.5A4.5,4.5 0 0,1 4.5,0Z" style="opacity: 0.7; stroke-width: 0px; fill: rgb(31, 119, 180); fill-opacity: 1;"/><path class="point" transform="translate(139.98,91.07)" d="M4.5,0A4.5,4.5 0 1,1 0,-4.5A4.5,4.5 0 0,1 4.5,0Z" style="opacity: 0.7; stroke-width: 0px; fill: rgb(31, 119, 180); fill-opacity: 1;"/><path class="point" transform="translate(173.5,72.59)" d="M4.5,0A4.5,4.5 0 1,1 0,-4.5A4.5,4.5 0 0,1 4.5,0Z" style="opacity: 0.7; stroke-width: 0px; fill: rgb(31, 119, 180); fill-opacity: 1;"/><path class="point" transform="translate(163.62,83.01)" d="M4.5,0A4.5,4.5 0 1,1 0,-4.5A4.5,4.5 0 0,1 4.5,0Z" style="opacity: 0.7; stroke-width: 0px; fill: rgb(31, 119, 180); fill-opacity: 1;"/></g><g class="text"/></g></g></g></g><path class="xlines-above crisp" d="M403.44444444444446,305.5H635.5555555555557" style="fill: none; stroke-width: 1px; stroke: rgb(36, 36, 36); stroke-opacity: 1;"/><path class="ylines-above crisp" d="M403.94444444444446,60V305" style="fill: none; stroke-width: 1px; stroke: rgb(36, 36, 36); stroke-opacity: 1;"/><g class="overlines-above"/><g class="xaxislayer-above"><path class="x2tick ticks crisp" d="M0,306v5" transform="translate(443.59444444444443,0)" style="stroke: rgb(68, 68, 68); stroke-opacity: 1; stroke-width: 1px;"/><path class="x2tick ticks crisp" d="M0,306v5" transform="translate(535.0144444444445,0)" style="stroke: rgb(68, 68, 68); stroke-opacity: 1; stroke-width: 1px;"/><path class="x2tick ticks crisp" d="M0,306v5" transform="translate(626.4444444444445,0)" style="stroke: rgb(68, 68, 68); stroke-opacity: 1; stroke-width: 1px;"/><g class="x2tick"><text text-anchor="middle" x="0" y="330.2" transform="translate(443.59444444444443,0)" style="font-family: Arial; font-size: 16px; fill: rgb(36, 36, 36); fill-opacity: 1; white-space: pre; opacity: 1;">0</text></g><g class="x2tick"><text text-anchor="middle" x="0" y="330.2" style="font-family: Arial; font-size: 16px; fill: rgb(36, 36, 36); fill-opacity: 1; white-space: pre; opacity: 1;" transform="translate(535.0144444444445,0)">0.1</text></g><g class="x2tick"><text text-anchor="middle" x="0" y="330.2" style="font-family: Arial; font-size: 16px; fill: rgb(36, 36, 36); fill-opacity: 1; white-space: pre; opacity: 1;" transform="translate(626.4444444444445,0)">0.2</text></g></g><g class="yaxislayer-above"><path class="y2tick ticks crisp" d="M403.44444444444446,0h-5" transform="translate(0,289.84000000000003)" style="stroke: rgb(68, 68, 68); stroke-opacity: 1; stroke-width: 1px;"/><path class="y2tick ticks crisp" d="M403.44444444444446,0h-5" transform="translate(0,244.13)" style="stroke: rgb(68, 68, 68); stroke-opacity: 1; stroke-width: 1px;"/><path class="y2tick ticks crisp" d="M403.44444444444446,0h-5" transform="translate(0,198.42)" style="stroke: rgb(68, 68, 68); stroke-opacity: 1; stroke-width: 1px;"/><path class="y2tick ticks crisp" d="M403.44444444444446,0h-5" transform="translate(0,152.70999999999998)" style="stroke: rgb(68, 68, 68); stroke-opacity: 1; stroke-width: 1px;"/><path class="y2tick ticks crisp" d="M403.44444444444446,0h-5" transform="translate(0,107)" style="stroke: rgb(68, 68, 68); stroke-opacity: 1; stroke-width: 1px;"/><path class="y2tick ticks crisp" d="M403.44444444444446,0h-5" transform="translate(0,61.29)" style="stroke: rgb(68, 68, 68); stroke-opacity: 1; stroke-width: 1px;"/><g class="y2tick"><text text-anchor="end" x="395.24444444444447" y="5.6" transform="translate(0,289.84000000000003)" style="font-family: Arial; font-size: 16px; fill: rgb(36, 36, 36); fill-opacity: 1; white-space: pre; opacity: 1;">−0.05</text></g><g class="y2tick"><text text-anchor="end" x="395.24444444444447" y="5.6" style="font-family: Arial; font-size: 16px; fill: rgb(36, 36, 36); fill-opacity: 1; white-space: pre; opacity: 1;" transform="translate(0,244.13)">0</text></g><g class="y2tick"><text text-anchor="end" x="395.24444444444447" y="5.6" style="font-family: Arial; font-size: 16px; fill: rgb(36, 36, 36); fill-opacity: 1; white-space: pre; opacity: 1;" transform="translate(0,198.42)">0.05</text></g><g class="y2tick"><text text-anchor="end" x="395.24444444444447" y="5.6" style="font-family: Arial; font-size: 16px; fill: rgb(36, 36, 36); fill-opacity: 1; white-space: pre; opacity: 1;" transform="translate(0,152.70999999999998)">0.1</text></g><g class="y2tick"><text text-anchor="end" x="395.24444444444447" y="5.6" style="font-family: Arial; font-size: 16px; fill: rgb(36, 36, 36); fill-opacity: 1; white-space: pre; opacity: 1;" transform="translate(0,107)">0.15</text></g><g class="y2tick"><text text-anchor="end" x="395.24444444444447" y="5.6" style="font-family: Arial; font-size: 16px; fill: rgb(36, 36, 36); fill-opacity: 1; white-space: pre; opacity: 1;" transform="translate(0,61.29)">0.2</text></g></g><g class="overaxes-above"/></g><g class="subplot x3y3"><g class="layer-subplot"><g class="shapelayer"/><g class="imagelayer"/></g><g class="minor-gridlayer"><g class="x3"/><g class="y3"/></g><g class="gridlayer"><g class="x3"/><g class="y3"/></g><g class="zerolinelayer"/><g class="layer-between"><g class="shapelayer"/><g class="imagelayer"/></g><path class="xlines-below"/><path class="ylines-below"/><g class="overlines-below"/><g class="xaxislayer-below"/><g class="yaxislayer-below"/><g class="overaxes-below"/><g class="overplot"><g class="x3y3" transform="translate(688.8888888888889,60)" clip-path="url(#clip660ec7x3y3plot)"><g class="scatterlayer mlayer"><g class="trace scatter trace4a9aa4" style="stroke-miterlimit: 2; opacity: 0.7;"><g class="fills"/><g class="errorbars"/><g class="lines"><path class="js-line" d="M15.47,232.75L211.03,24.4" style="vector-effect: none; fill: none; stroke: rgb(255, 0, 0); stroke-opacity: 1; stroke-width: 1.5px; opacity: 1;"/></g><g class="points"/><g class="text"/></g><g class="trace scatter traceaf99a4" style="stroke-miterlimit: 2; opacity: 1;"><g class="fills"/><g class="errorbars"/><g class="lines"><path class="js-line" d="M15.47,207.81L211.03,12.25" style="vector-effect: none; fill: none; stroke: rgb(0, 0, 0); stroke-opacity: 1; stroke-dasharray: 9px, 9px; stroke-width: 2px; opacity: 1;"/></g><g class="points"/><g class="text"/></g><g class="trace scatter tracee605c0" style="stroke-miterlimit: 2; opacity: 1;"><g class="fills"/><g class="errorbars"/><g class="lines"/><g class="points"><path class="point" transform="translate(137.81,106.74)" d="M4.5,0A4.5,4.5 0 1,1 0,-4.5A4.5,4.5 0 0,1 4.5,0Z" style="opacity: 0.7; stroke-width: 0px; fill: rgb(31, 119, 180); fill-opacity: 1;"/><path class="point" transform="translate(139.65,103.12)" d="M4.5,0A4.5,4.5 0 1,1 0,-4.5A4.5,4.5 0 0,1 4.5,0Z" style="opacity: 0.7; stroke-width: 0px; fill: rgb(31, 119, 180); fill-opacity: 1;"/><path class="point" transform="translate(201.32,30.57)" d="M4.5,0A4.5,4.5 0 1,1 0,-4.5A4.5,4.5 0 0,1 4.5,0Z" style="opacity: 0.7; stroke-width: 0px; fill: rgb(31, 119, 180); fill-opacity: 1;"/><path class="point" transform="translate(186.64,52.78)" d="M4.5,0A4.5,4.5 0 1,1 0,-4.5A4.5,4.5 0 0,1 4.5,0Z" style="opacity: 0.7; stroke-width: 0px; fill: rgb(31, 119, 180); fill-opacity: 1;"/><path class="point" transform="translate(96.34,143.37)" d="M4.5,0A4.5,4.5 0 1,1 0,-4.5A4.5,4.5 0 0,1 4.5,0Z" style="opacity: 0.7; stroke-width: 0px; fill: rgb(31, 119, 180); fill-opacity: 1;"/><path class="point" transform="translate(120.27,136.83)" d="M4.5,0A4.5,4.5 0 1,1 0,-4.5A4.5,4.5 0 0,1 4.5,0Z" style="opacity: 0.7; stroke-width: 0px; fill: rgb(31, 119, 180); fill-opacity: 1;"/><path class="point" transform="translate(187.07,50.72)" d="M4.5,0A4.5,4.5 0 1,1 0,-4.5A4.5,4.5 0 0,1 4.5,0Z" style="opacity: 0.7; stroke-width: 0px; fill: rgb(31, 119, 180); fill-opacity: 1;"/><path class="point" transform="translate(106.23,126.27)" d="M4.5,0A4.5,4.5 0 1,1 0,-4.5A4.5,4.5 0 0,1 4.5,0Z" style="opacity: 0.7; stroke-width: 0px; fill: rgb(31, 119, 180); fill-opacity: 1;"/><path class="point" transform="translate(162.86,76.38)" d="M4.5,0A4.5,4.5 0 1,1 0,-4.5A4.5,4.5 0 0,1 4.5,0Z" style="opacity: 0.7; stroke-width: 0px; fill: rgb(31, 119, 180); fill-opacity: 1;"/><path class="point" transform="translate(146.16,84.14)" d="M4.5,0A4.5,4.5 0 1,1 0,-4.5A4.5,4.5 0 0,1 4.5,0Z" style="opacity: 0.7; stroke-width: 0px; fill: rgb(31, 119, 180); fill-opacity: 1;"/></g><g class="text"/></g></g></g></g><path class="xlines-above crisp" d="M687.8888888888889,305.5H920" style="fill: none; stroke-width: 1px; stroke: rgb(36, 36, 36); stroke-opacity: 1;"/><path class="ylines-above crisp" d="M688.3888888888889,60V305" style="fill: none; stroke-width: 1px; stroke: rgb(36, 36, 36); stroke-opacity: 1;"/><g class="overlines-above"/><g class="xaxislayer-above"><path class="x3tick ticks crisp" d="M0,306v5" transform="translate(728.598888888889,0)" style="stroke: rgb(68, 68, 68); stroke-opacity: 1; stroke-width: 1px;"/><path class="x3tick ticks crisp" d="M0,306v5" transform="translate(803.1688888888889,0)" style="stroke: rgb(68, 68, 68); stroke-opacity: 1; stroke-width: 1px;"/><path class="x3tick ticks crisp" d="M0,306v5" transform="translate(877.728888888889,0)" style="stroke: rgb(68, 68, 68); stroke-opacity: 1; stroke-width: 1px;"/><g class="x3tick"><text text-anchor="middle" x="0" y="330.2" transform="translate(728.598888888889,0)" style="font-family: Arial; font-size: 16px; fill: rgb(36, 36, 36); fill-opacity: 1; white-space: pre; opacity: 1;">0</text></g><g class="x3tick"><text text-anchor="middle" x="0" y="330.2" style="font-family: Arial; font-size: 16px; fill: rgb(36, 36, 36); fill-opacity: 1; white-space: pre; opacity: 1;" transform="translate(803.1688888888889,0)">0.2</text></g><g class="x3tick"><text text-anchor="middle" x="0" y="330.2" style="font-family: Arial; font-size: 16px; fill: rgb(36, 36, 36); fill-opacity: 1; white-space: pre; opacity: 1;" transform="translate(877.728888888889,0)">0.4</text></g></g><g class="yaxislayer-above"><path class="y3tick ticks crisp" d="M687.8888888888889,0h-5" transform="translate(0,280.85)" style="stroke: rgb(68, 68, 68); stroke-opacity: 1; stroke-width: 1px;"/><path class="y3tick ticks crisp" d="M687.8888888888889,0h-5" transform="translate(0,243.57)" style="stroke: rgb(68, 68, 68); stroke-opacity: 1; stroke-width: 1px;"/><path class="y3tick ticks crisp" d="M687.8888888888889,0h-5" transform="translate(0,206.29)" style="stroke: rgb(68, 68, 68); stroke-opacity: 1; stroke-width: 1px;"/><path class="y3tick ticks crisp" d="M687.8888888888889,0h-5" transform="translate(0,169)" style="stroke: rgb(68, 68, 68); stroke-opacity: 1; stroke-width: 1px;"/><path class="y3tick ticks crisp" d="M687.8888888888889,0h-5" transform="translate(0,131.72)" style="stroke: rgb(68, 68, 68); stroke-opacity: 1; stroke-width: 1px;"/><path class="y3tick ticks crisp" d="M687.8888888888889,0h-5" transform="translate(0,94.44)" style="stroke: rgb(68, 68, 68); stroke-opacity: 1; stroke-width: 1px;"/><g class="y3tick"><text text-anchor="end" x="679.6888888888889" y="5.6" transform="translate(0,280.85)" style="font-family: Arial; font-size: 16px; fill: rgb(36, 36, 36); fill-opacity: 1; white-space: pre; opacity: 1;">−0.1</text></g><g class="y3tick"><text text-anchor="end" x="679.6888888888889" y="5.6" style="font-family: Arial; font-size: 16px; fill: rgb(36, 36, 36); fill-opacity: 1; white-space: pre; opacity: 1;" transform="translate(0,243.57)">0</text></g><g class="y3tick"><text text-anchor="end" x="679.6888888888889" y="5.6" style="font-family: Arial; font-size: 16px; fill: rgb(36, 36, 36); fill-opacity: 1; white-space: pre; opacity: 1;" transform="translate(0,206.29)">0.1</text></g><g class="y3tick"><text text-anchor="end" x="679.6888888888889" y="5.6" style="font-family: Arial; font-size: 16px; fill: rgb(36, 36, 36); fill-opacity: 1; white-space: pre; opacity: 1;" transform="translate(0,169)">0.2</text></g><g class="y3tick"><text text-anchor="end" x="679.6888888888889" y="5.6" style="font-family: Arial; font-size: 16px; fill: rgb(36, 36, 36); fill-opacity: 1; white-space: pre; opacity: 1;" transform="translate(0,131.72)">0.3</text></g><g class="y3tick"><text text-anchor="end" x="679.6888888888889" y="5.6" style="font-family: Arial; font-size: 16px; fill: rgb(36, 36, 36); fill-opacity: 1; white-space: pre; opacity: 1;" transform="translate(0,94.44)">0.4</text></g></g><g class="overaxes-above"/></g></g><g class="polarlayer"/><g class="smithlayer"/><g class="ternarylayer"/><g class="geolayer"/><g class="funnelarealayer"/><g class="pielayer"/><g class="iciclelayer"/><g class="treemaplayer"/><g class="sunburstlayer"/><g class="glimages"/><defs id="topdefs-660ec7"><g class="clips"/></defs><g class="layer-above"><g class="imagelayer"/><g class="shapelayer"><g class="shape-group" data-index="0" clip-path="url(#clip660ec7xy)"><path data-index="0" fill-rule="evenodd" d="M124.27,262.84000000000003L344.77,262.84000000000003" style="opacity: 0.3; stroke: rgb(169, 169, 169); stroke-opacity: 1; fill: rgb(0, 0, 0); fill-opacity: 1; stroke-dasharray: 3px, 3px; stroke-width: 1.5px;"/></g><g class="shape-group" data-index="1" clip-path="url(#clip660ec7xy)"><path data-index="1" fill-rule="evenodd" d="M154.18,292.75L154.18,72.25" style="opacity: 0.3; stroke: rgb(169, 169, 169); stroke-opacity: 1; fill: rgb(0, 0, 0); fill-opacity: 1; stroke-dasharray: 3px, 3px; stroke-width: 1.5px;"/></g><g class="shape-group" data-index="2" clip-path="url(#clip660ec7x2y2)"><path data-index="2" fill-rule="evenodd" d="M419.1744444444445,244.13L615.4744444444444,244.13" style="opacity: 0.3; stroke: rgb(169, 169, 169); stroke-opacity: 1; fill: rgb(0, 0, 0); fill-opacity: 1; stroke-dasharray: 3px, 3px; stroke-width: 1.5px;"/></g><g class="shape-group" data-index="3" clip-path="url(#clip660ec7x2y2)"><path data-index="3" fill-rule="evenodd" d="M443.59444444444443,268.55L443.59444444444443,72.25" style="opacity: 0.3; stroke: rgb(169, 169, 169); stroke-opacity: 1; fill: rgb(0, 0, 0); fill-opacity: 1; stroke-dasharray: 3px, 3px; stroke-width: 1.5px;"/></g><g class="shape-group" data-index="4" clip-path="url(#clip660ec7x3y3)"><path data-index="4" fill-rule="evenodd" d="M704.3588888888889,243.57L899.9188888888889,243.57" style="opacity: 0.3; stroke: rgb(169, 169, 169); stroke-opacity: 1; fill: rgb(0, 0, 0); fill-opacity: 1; stroke-dasharray: 3px, 3px; stroke-width: 1.5px;"/></g><g class="shape-group" data-index="5" clip-path="url(#clip660ec7x3y3)"><path data-index="5" fill-rule="evenodd" d="M728.598888888889,267.81L728.598888888889,72.25" style="opacity: 0.3; stroke: rgb(169, 169, 169); stroke-opacity: 1; fill: rgb(0, 0, 0); fill-opacity: 1; stroke-dasharray: 3px, 3px; stroke-width: 1.5px;"/></g></g></g><g class="infolayer"><g class="g-gtitle"/><g class="g-xtitle"><text class="xtitle" x="235.55555555555557" y="361.703125" text-anchor="middle" style="opacity: 1; font-family: Arial; font-size: 20px; fill: rgb(36, 36, 36); fill-opacity: 1; white-space: pre;"><tspan class="line" dy="0em" x="235.55555555555557" y="361.703125"><tspan style="font-weight:bold"> Reference </tspan></tspan><tspan class="line" dy="1.3em" x="235.55555555555557" y="361.703125"><tspan style="font-weight:bold"> ΔCOM path length (mm) </tspan></tspan></text></g><g class="g-x2title"><text class="x2title" x="520" y="361.703125" text-anchor="middle" style="opacity: 1; font-family: Arial; font-size: 20px; fill: rgb(36, 36, 36); fill-opacity: 1; white-space: pre;"><tspan class="line" dy="0em" x="520" y="361.703125"><tspan style="font-weight:bold"> Reference </tspan></tspan><tspan class="line" dy="1.3em" x="520" y="361.703125"><tspan style="font-weight:bold"> ΔCOM path length (mm) </tspan></tspan></text></g><g class="g-x3title"><text class="x3title" x="804.4444444444445" y="361.703125" text-anchor="middle" style="opacity: 1; font-family: Arial; font-size: 20px; fill: rgb(36, 36, 36); fill-opacity: 1; white-space: pre;"><tspan class="line" dy="0em" x="804.4444444444445" y="361.703125"><tspan style="font-weight:bold"> Reference </tspan></tspan><tspan class="line" dy="1.3em" x="804.4444444444445" y="361.703125"><tspan style="font-weight:bold"> ΔCOM path length (mm) </tspan></tspan></text></g><g class="g-ytitle"><text class="ytitle" transform="rotate(-90,32.15625,182.5)" x="32.15625" y="182.5" text-anchor="middle" style="opacity: 1; font-family: Arial; font-size: 20px; fill: rgb(36, 36, 36); fill-opacity: 1; white-space: pre;"><tspan class="line" dy="0em" x="32.15625" y="182.5"><tspan style="font-weight:bold"> FMC-MediaPipe </tspan></tspan><tspan class="line" dy="1.3em" x="32.15625" y="182.5"><tspan style="font-weight:bold"> ΔCOM path length (mm) </tspan></tspan></text></g><g class="g-y2title"/><g class="g-y3title"/><g class="annotation" data-index="0" style="opacity: 1;"><g class="annotation-text-g" transform="rotate(0,235.55555555555557,45.49999999999999)"><g class="cursor-pointer" transform="translate(123,31)"><rect class="bg" x="0.5" y="0.5" width="225" height="28" style="stroke-width: 1px; stroke: rgb(0, 0, 0); stroke-opacity: 0; fill: rgb(0, 0, 0); fill-opacity: 0;"/><text class="annotation-text" text-anchor="middle" x="112.9375" y="22" style="font-family: Arial; font-size: 22px; fill: rgb(36, 36, 36); fill-opacity: 1; white-space: pre;"><tspan style="font-weight:bold"> EC:Solid − EO:Solid </tspan></text></g></g></g><g class="annotation" data-index="1" style="opacity: 1;"><g class="annotation-text-g" transform="rotate(0,520,45.49999999999999)"><g class="cursor-pointer" transform="translate(404,31)"><rect class="bg" x="0.5" y="0.5" width="231" height="28" style="stroke-width: 1px; stroke: rgb(0, 0, 0); stroke-opacity: 0; fill: rgb(0, 0, 0); fill-opacity: 0;"/><text class="annotation-text" text-anchor="middle" x="116" y="22" style="font-family: Arial; font-size: 22px; fill: rgb(36, 36, 36); fill-opacity: 1; white-space: pre;"><tspan style="font-weight:bold"> EO:Foam − EO:Solid </tspan></text></g></g></g><g class="annotation" data-index="2" style="opacity: 1;"><g class="annotation-text-g" transform="rotate(0,804.4444444444445,45.49999999999999)"><g class="cursor-pointer" transform="translate(689,31)"><rect class="bg" x="0.5" y="0.5" width="230" height="28" style="stroke-width: 1px; stroke: rgb(0, 0, 0); stroke-opacity: 0; fill: rgb(0, 0, 0); fill-opacity: 0;"/><text class="annotation-text" text-anchor="middle" x="115.375" y="22" style="font-family: Arial; font-size: 22px; fill: rgb(36, 36, 36); fill-opacity: 1; white-space: pre;"><tspan style="font-weight:bold"> EC:Foam − EO:Solid </tspan></text></g></g></g><g class="annotation" data-index="3" style="opacity: 1;"><g class="annotation-text-g" transform="rotate(0,277.05555555555554,263.75)"><g class="cursor-pointer" transform="translate(215,235)"><rect class="bg" x="0.5" y="0.5" width="124" height="57" style="stroke-width: 1px; stroke: rgb(0, 0, 0); stroke-opacity: 0; fill: rgb(0, 0, 0); fill-opacity: 0;"/><text class="annotation-text" text-anchor="middle" x="62.25" y="22" style="font-family: Arial; font-size: 22px; fill: rgb(36, 36, 36); fill-opacity: 1; white-space: pre;"><tspan class="line" dy="0em" x="62.25" y="22"><tspan style="font-style:italic">r²</tspan> = 0.92</tspan><tspan class="line" dy="1.3em" x="62.25" y="22">slope = 0.89</tspan></text></g></g></g><g class="annotation" data-index="4" style="opacity: 1;"><g class="annotation-text-g" transform="rotate(0,561.5,263.75)"><g class="cursor-pointer" transform="translate(499,235)"><rect class="bg" x="0.5" y="0.5" width="124" height="57" style="stroke-width: 1px; stroke: rgb(0, 0, 0); stroke-opacity: 0; fill: rgb(0, 0, 0); fill-opacity: 0;"/><text class="annotation-text" text-anchor="middle" x="62.25" y="22" style="font-family: Arial; font-size: 22px; fill: rgb(36, 36, 36); fill-opacity: 1; white-space: pre;"><tspan class="line" dy="0em" x="62.25" y="22"><tspan style="font-style:italic">r²</tspan> = 0.84</tspan><tspan class="line" dy="1.3em" x="62.25" y="22">slope = 1.04</tspan></text></g></g></g><g class="annotation" data-index="5" style="opacity: 1;"><g class="annotation-text-g" transform="rotate(0,845.9444444444445,263.75)"><g class="cursor-pointer" transform="translate(783,235)"><rect class="bg" x="0.5" y="0.5" width="124" height="57" style="stroke-width: 1px; stroke: rgb(0, 0, 0); stroke-opacity: 0; fill: rgb(0, 0, 0); fill-opacity: 0;"/><text class="annotation-text" text-anchor="middle" x="62.25" y="22" style="font-family: Arial; font-size: 22px; fill: rgb(36, 36, 36); fill-opacity: 1; white-space: pre;"><tspan class="line" dy="0em" x="62.25" y="22"><tspan style="font-style:italic">r²</tspan> = 0.96</tspan><tspan class="line" dy="1.3em" x="62.25" y="22">slope = 1.07</tspan></text></g></g></g></g></svg>