<svg class="main-svg" xmlns="http://www.w3.org/2000/svg" xmlns:xlink="http://www.w3.org/1999/xlink" width="3150" height="1350" style="" viewBox="0 0 1050 450"><rect x="0" y="0" width="1050" height="450" style="fill: rgb(255, 255, 255); fill-opacity: 1;"/><defs id="defs-c69f8b"><g class="clips"><clipPath id="clipc69f8bxyplot" class="plotclip"><rect width="315.34999999999997" height="290"/></clipPath><clipPath id="clipc69f8bx2y2plot" class="plotclip"><rect width="315.35" height="290"/></clipPath><clipPath class="axesclip" id="clipc69f8bx"><rect x="80" y="0" width="315.34999999999997" height="450"/></clipPath><clipPath class="axesclip" id="clipc69f8by"><rect x="0" y="90" width="1050" height="290"/></clipPath><clipPath class="axesclip" id="clipc69f8bxy"><rect x="80" y="90" width="315.34999999999997" height="290"/></clipPath><clipPath class="axesclip" id="clipc69f8by2"><rect x="0" y="90" width="1050" height="290"/></clipPath><clipPath class="axesclip" id="clipc69f8bxy2"><rect x="80" y="90" width="315.34999999999997" height="290"/></clipPath><clipPath class="axesclip" id="clipc69f8bx2"><rect x="506.65" y="0" width="315.35" height="450"/></clipPath><clipPath class="axesclip" id="clipc69f8bx2y"><rect x="506.65" y="90" width="315.35" height="290"/></clipPath><clipPath class="axesclip" id="clipc69f8bx2y2"><rect x="506.65" y="90" width="315.35" height="290"/></clipPath></g><g class="gradients"/><g class="patterns"/></defs><g class="bglayer"/><g class="layer-below"><g class="imagelayer"/><g class="shapelayer"/></g><g class="cartesianlayer"><g class="subplot xy"><g class="layer-subplot"><g class="shapelayer"/><g class="imagelayer"/></g><g class="minor-gridlayer"><g class="x"/><g class="y"/></g><g class="gridlayer"><g class="x"/><g class="y"/></g><g class="zerolinelayer"/><g class="layer-between"><g class="shapelayer"/><g class="imagelayer"/></g><path class="xlines-below"/><path class="ylines-below"/><g class="overlines-below"/><g class="xaxislayer-below"/><g class="yaxislayer-below"/><g class="overaxes-below"/><g class="overplot"><g class="xy" transform="translate(80,90)" clip-path="url(#clipc69f8bxyplot)"><g class="scatterlayer mlayer"><g class="trace scatter traceac2b02" style="stroke-miterlimit: 2; opacity: 1;"><g class="fills"/><g class="errorbars"/><g class="lines"/><g class="points"><path class="point plotly-customdata" transform="translate(52.28,225.49)" d="M4,0A4,4 0 1,1 0,-4A4,4 0 0,1 4,0Z" style="opacity: 0.75; stroke-width: 0px; fill: rgb(31, 119, 180); fill-opacity: 1;"/><path class="point plotly-customdata" transform="translate(53.82,223.76)" d="M4,0A4,4 0 1,1 0,-4A4,4 0 0,1 4,0Z" style="opacity: 0.75; stroke-width: 0px; fill: rgb(31, 119, 180); fill-opacity: 1;"/><path class="point plotly-customdata" transform="translate(138.93,167.41)" d="M4,0A4,4 0 1,1 0,-4A4,4 0 0,1 4,0Z" style="opacity: 0.75; stroke-width: 0px; fill: rgb(31, 119, 180); fill-opacity: 1;"/><path class="point plotly-customdata" transform="translate(201.97,117.81)" d="M4,0A4,4 0 1,1 0,-4A4,4 0 0,1 4,0Z" style="opacity: 0.75; stroke-width: 0px; fill: rgb(31, 119, 180); fill-opacity: 1;"/><path class="point plotly-customdata" transform="translate(45.88,235.77)" d="M4,0A4,4 0 1,1 0,-4A4,4 0 0,1 4,0Z" style="opacity: 0.75; stroke-width: 0px; fill: rgb(31, 119, 180); fill-opacity: 1;"/><path class="point plotly-customdata" transform="translate(56.93,231.56)" d="M4,0A4,4 0 1,1 0,-4A4,4 0 0,1 4,0Z" style="opacity: 0.75; stroke-width: 0px; fill: rgb(31, 119, 180); fill-opacity: 1;"/><path class="point plotly-customdata" transform="translate(118.21,181.53)" d="M4,0A4,4 0 1,1 0,-4A4,4 0 0,1 4,0Z" style="opacity: 0.75; stroke-width: 0px; fill: rgb(31, 119, 180); fill-opacity: 1;"/><path class="point plotly-customdata" transform="translate(198.68,122.48)" d="M4,0A4,4 0 1,1 0,-4A4,4 0 0,1 4,0Z" style="opacity: 0.75; stroke-width: 0px; fill: rgb(31, 119, 180); fill-opacity: 1;"/><path class="point plotly-customdata" transform="translate(54.22,232.54)" d="M4,0A4,4 0 1,1 0,-4A4,4 0 0,1 4,0Z" style="opacity: 0.75; stroke-width: 0px; fill: rgb(31, 119, 180); fill-opacity: 1;"/><path class="point plotly-customdata" transform="translate(79.51,216.59)" d="M4,0A4,4 0 1,1 0,-4A4,4 0 0,1 4,0Z" style="opacity: 0.75; stroke-width: 0px; fill: rgb(31, 119, 180); fill-opacity: 1;"/><path class="point plotly-customdata" transform="translate(155.75,143.88)" d="M4,0A4,4 0 1,1 0,-4A4,4 0 0,1 4,0Z" style="opacity: 0.75; stroke-width: 0px; fill: rgb(31, 119, 180); fill-opacity: 1;"/><path class="point plotly-customdata" transform="translate(301.02,17.94)" d="M4,0A4,4 0 1,1 0,-4A4,4 0 0,1 4,0Z" style="opacity: 0.75; stroke-width: 0px; fill: rgb(31, 119, 180); fill-opacity: 1;"/><path class="point plotly-customdata" transform="translate(54.07,229.96)" d="M4,0A4,4 0 1,1 0,-4A4,4 0 0,1 4,0Z" style="opacity: 0.75; stroke-width: 0px; fill: rgb(31, 119, 180); fill-opacity: 1;"/><path class="point plotly-customdata" transform="translate(65.77,221.57)" d="M4,0A4,4 0 1,1 0,-4A4,4 0 0,1 4,0Z" style="opacity: 0.75; stroke-width: 0px; fill: rgb(31, 119, 180); fill-opacity: 1;"/><path class="point plotly-customdata" transform="translate(136.57,149.84)" d="M4,0A4,4 0 1,1 0,-4A4,4 0 0,1 4,0Z" style="opacity: 0.75; stroke-width: 0px; fill: rgb(31, 119, 180); fill-opacity: 1;"/><path class="point plotly-customdata" transform="translate(278.5,46.58)" d="M4,0A4,4 0 1,1 0,-4A4,4 0 0,1 4,0Z" style="opacity: 0.75; stroke-width: 0px; fill: rgb(31, 119, 180); fill-opacity: 1;"/><path class="point plotly-customdata" transform="translate(22.98,263.05)" d="M4,0A4,4 0 1,1 0,-4A4,4 0 0,1 4,0Z" style="opacity: 0.75; stroke-width: 0px; fill: rgb(31, 119, 180); fill-opacity: 1;"/><path class="point plotly-customdata" transform="translate(28.83,258.29)" d="M4,0A4,4 0 1,1 0,-4A4,4 0 0,1 4,0Z" style="opacity: 0.75; stroke-width: 0px; fill: rgb(31, 119, 180); fill-opacity: 1;"/><path class="point plotly-customdata" transform="translate(76.55,226.6)" d="M4,0A4,4 0 1,1 0,-4A4,4 0 0,1 4,0Z" style="opacity: 0.75; stroke-width: 0px; fill: rgb(31, 119, 180); fill-opacity: 1;"/><path class="point plotly-customdata" transform="translate(110.58,206.91)" d="M4,0A4,4 0 1,1 0,-4A4,4 0 0,1 4,0Z" style="opacity: 0.75; stroke-width: 0px; fill: rgb(31, 119, 180); fill-opacity: 1;"/><path class="point plotly-customdata" transform="translate(14.33,259.61)" d="M4,0A4,4 0 1,1 0,-4A4,4 0 0,1 4,0Z" style="opacity: 0.75; stroke-width: 0px; fill: rgb(31, 119, 180); fill-opacity: 1;"/><path class="point plotly-customdata" transform="translate(34.27,248.24)" d="M4,0A4,4 0 1,1 0,-4A4,4 0 0,1 4,0Z" style="opacity: 0.75; stroke-width: 0px; fill: rgb(31, 119, 180); fill-opacity: 1;"/><path class="point plotly-customdata" transform="translate(58.68,231.49)" d="M4,0A4,4 0 1,1 0,-4A4,4 0 0,1 4,0Z" style="opacity: 0.75; stroke-width: 0px; fill: rgb(31, 119, 180); fill-opacity: 1;"/><path class="point plotly-customdata" transform="translate(137.61,194.22)" d="M4,0A4,4 0 1,1 0,-4A4,4 0 0,1 4,0Z" style="opacity: 0.75; stroke-width: 0px; fill: rgb(31, 119, 180); fill-opacity: 1;"/><path class="point plotly-customdata" transform="translate(36.88,239.17)" d="M4,0A4,4 0 1,1 0,-4A4,4 0 0,1 4,0Z" style="opacity: 0.75; stroke-width: 0px; fill: rgb(31, 119, 180); fill-opacity: 1;"/><path class="point plotly-customdata" transform="translate(104.14,184.32)" d="M4,0A4,4 0 1,1 0,-4A4,4 0 0,1 4,0Z" style="opacity: 0.75; stroke-width: 0px; fill: rgb(31, 119, 180); fill-opacity: 1;"/><path class="point plotly-customdata" transform="translate(123.88,174.22)" d="M4,0A4,4 0 1,1 0,-4A4,4 0 0,1 4,0Z" style="opacity: 0.75; stroke-width: 0px; fill: rgb(31, 119, 180); fill-opacity: 1;"/><path class="point plotly-customdata" transform="translate(262.23,52.39)" d="M4,0A4,4 0 1,1 0,-4A4,4 0 0,1 4,0Z" style="opacity: 0.75; stroke-width: 0px; fill: rgb(31, 119, 180); fill-opacity: 1;"/><path class="point plotly-customdata" transform="translate(52.43,237.89)" d="M4,0A4,4 0 1,1 0,-4A4,4 0 0,1 4,0Z" style="opacity: 0.75; stroke-width: 0px; fill: rgb(31, 119, 180); fill-opacity: 1;"/><path class="point plotly-customdata" transform="translate(61.55,227.21)" d="M4,0A4,4 0 1,1 0,-4A4,4 0 0,1 4,0Z" style="opacity: 0.75; stroke-width: 0px; fill: rgb(31, 119, 180); fill-opacity: 1;"/><path class="point plotly-customdata" transform="translate(115.62,184.75)" d="M4,0A4,4 0 1,1 0,-4A4,4 0 0,1 4,0Z" style="opacity: 0.75; stroke-width: 0px; fill: rgb(31, 119, 180); fill-opacity: 1;"/><path class="point plotly-customdata" transform="translate(153.99,157.65)" d="M4,0A4,4 0 1,1 0,-4A4,4 0 0,1 4,0Z" style="opacity: 0.75; stroke-width: 0px; fill: rgb(31, 119, 180); fill-opacity: 1;"/><path class="point plotly-customdata" transform="translate(35.05,240.24)" d="M4,0A4,4 0 1,1 0,-4A4,4 0 0,1 4,0Z" style="opacity: 0.75; stroke-width: 0px; fill: rgb(31, 119, 180); fill-opacity: 1;"/><path class="point plotly-customdata" transform="translate(44.91,234.5)" d="M4,0A4,4 0 1,1 0,-4A4,4 0 0,1 4,0Z" style="opacity: 0.75; stroke-width: 0px; fill: rgb(31, 119, 180); fill-opacity: 1;"/><path class="point plotly-customdata" transform="translate(101.19,188.66)" d="M4,0A4,4 0 1,1 0,-4A4,4 0 0,1 4,0Z" style="opacity: 0.75; stroke-width: 0px; fill: rgb(31, 119, 180); fill-opacity: 1;"/><path class="point plotly-customdata" transform="translate(133.64,177.72)" d="M4,0A4,4 0 1,1 0,-4A4,4 0 0,1 4,0Z" style="opacity: 0.75; stroke-width: 0px; fill: rgb(31, 119, 180); fill-opacity: 1;"/><path class="point plotly-customdata" transform="translate(24.93,258.33)" d="M4,0A4,4 0 1,1 0,-4A4,4 0 0,1 4,0Z" style="opacity: 0.75; stroke-width: 0px; fill: rgb(31, 119, 180); fill-opacity: 1;"/><path class="point plotly-customdata" transform="translate(38.24,241.31)" d="M4,0A4,4 0 1,1 0,-4A4,4 0 0,1 4,0Z" style="opacity: 0.75; stroke-width: 0px; fill: rgb(31, 119, 180); fill-opacity: 1;"/><path class="point plotly-customdata" transform="translate(84.26,210.67)" d="M4,0A4,4 0 1,1 0,-4A4,4 0 0,1 4,0Z" style="opacity: 0.75; stroke-width: 0px; fill: rgb(31, 119, 180); fill-opacity: 1;"/><path class="point plotly-customdata" transform="translate(137.2,169.22)" d="M4,0A4,4 0 1,1 0,-4A4,4 0 0,1 4,0Z" style="opacity: 0.75; stroke-width: 0px; fill: rgb(31, 119, 180); fill-opacity: 1;"/><path class="point plotly-customdata" transform="translate(41.16,246.74)" d="M4,0A4,4 0 1,1 0,-4A4,4 0 0,1 4,0Z" style="opacity: 0.75; stroke-width: 0px; fill: rgb(31, 119, 180); fill-opacity: 1;"/><path class="point plotly-customdata" transform="translate(58.34,237.4)" d="M4,0A4,4 0 1,1 0,-4A4,4 0 0,1 4,0Z" style="opacity: 0.75; stroke-width: 0px; fill: rgb(31, 119, 180); fill-opacity: 1;"/><path class="point plotly-customdata" transform="translate(124.85,182.88)" d="M4,0A4,4 0 1,1 0,-4A4,4 0 0,1 4,0Z" style="opacity: 0.75; stroke-width: 0px; fill: rgb(31, 119, 180); fill-opacity: 1;"/><path class="point plotly-customdata" transform="translate(229.33,96.27)" d="M4,0A4,4 0 1,1 0,-4A4,4 0 0,1 4,0Z" style="opacity: 0.75; stroke-width: 0px; fill: rgb(31, 119, 180); fill-opacity: 1;"/><path class="point plotly-customdata" transform="translate(58.05,237.04)" d="M4,0A4,4 0 1,1 0,-4A4,4 0 0,1 4,0Z" style="opacity: 0.75; stroke-width: 0px; fill: rgb(31, 119, 180); fill-opacity: 1;"/><path class="point plotly-customdata" transform="translate(80.84,208.93)" d="M4,0A4,4 0 1,1 0,-4A4,4 0 0,1 4,0Z" style="opacity: 0.75; stroke-width: 0px; fill: rgb(31, 119, 180); fill-opacity: 1;"/><path class="point plotly-customdata" transform="translate(135.96,179.14)" d="M4,0A4,4 0 1,1 0,-4A4,4 0 0,1 4,0Z" style="opacity: 0.75; stroke-width: 0px; fill: rgb(31, 119, 180); fill-opacity: 1;"/><path class="point plotly-customdata" transform="translate(220.67,97.44)" d="M4,0A4,4 0 1,1 0,-4A4,4 0 0,1 4,0Z" style="opacity: 0.75; stroke-width: 0px; fill: rgb(31, 119, 180); fill-opacity: 1;"/></g><g class="text"/></g><g class="trace scatter traceea522e" style="stroke-miterlimit: 2; opacity: 1;"><g class="fills"/><g class="errorbars"/><g class="lines"><path class="js-line" d="M0,290L315.35,0" style="vector-effect: none; fill: none; stroke: rgb(0, 0, 0); stroke-opacity: 1; stroke-dasharray: 9px, 9px; stroke-width: 2px; opacity: 1;"/></g><g class="points"/><g class="text"/></g><g class="trace scatter trace3f7887" style="stroke-miterlimit: 2; opacity: 0.7;"><g class="fills"/><g class="errorbars"/><g class="lines"><path class="js-line" d="M0,277.95L315.35,20.81" style="vector-effect: none; fill: none; stroke: rgb(255, 0, 0); stroke-opacity: 1; stroke-width: 1.5px; opacity: 1;"/></g><g class="points"/><g class="text"/></g></g></g></g><path class="xlines-above crisp" d="M79,380.5H395.34999999999997" style="fill: none; stroke-width: 1px; stroke: rgb(36, 36, 36); stroke-opacity: 1;"/><path class="ylines-above crisp" d="M79.5,90V380" style="fill: none; stroke-width: 1px; stroke: rgb(36, 36, 36); stroke-opacity: 1;"/><g class="overlines-above"/><g class="xaxislayer-above"><path class="xtick ticks crisp" d="M0,381v5" transform="translate(120.62,0)" style="stroke: rgb(68, 68, 68); stroke-opacity: 1; stroke-width: 1px;"/><path class="xtick ticks crisp" d="M0,381v5" transform="translate(191.76,0)" style="stroke: rgb(68, 68, 68); stroke-opacity: 1; stroke-width: 1px;"/><path class="xtick ticks crisp" d="M0,381v5" transform="translate(262.90999999999997,0)" style="stroke: rgb(68, 68, 68); stroke-opacity: 1; stroke-width: 1px;"/><path class="xtick ticks crisp" d="M0,381v5" transform="translate(334.05,0)" style="stroke: rgb(68, 68, 68); stroke-opacity: 1; stroke-width: 1px;"/><g class="xtick"><text text-anchor="middle" x="0" y="405.2" transform="translate(120.62,0)" style="font-family: 'Open Sans', verdana, arial, sans-serif; font-size: 16px; fill: rgb(36, 36, 36); fill-opacity: 1; white-space: pre; opacity: 1;">200</text></g><g class="xtick"><text text-anchor="middle" x="0" y="405.2" style="font-family: 'Open Sans', verdana, arial, sans-serif; font-size: 16px; fill: rgb(36, 36, 36); fill-opacity: 1; white-space: pre; opacity: 1;" transform="translate(191.76,0)">400</text></g><g class="xtick"><text text-anchor="middle" x="0" y="405.2" style="font-family: 'Open Sans', verdana, arial, sans-serif; font-size: 16px; fill: rgb(36, 36, 36); fill-opacity: 1; white-space: pre; opacity: 1;" transform="translate(262.90999999999997,0)">600</text></g><g class="xtick"><text text-anchor="middle" x="0" y="405.2" style="font-family: 'Open Sans', verdana, arial, sans-serif; font-size: 16px; fill: rgb(36, 36, 36); fill-opacity: 1; white-space: pre; opacity: 1;" transform="translate(334.05,0)">800</text></g></g><g class="yaxislayer-above"><path class="ytick ticks crisp" d="M79,0h-5" transform="translate(0,342.65)" style="stroke: rgb(68, 68, 68); stroke-opacity: 1; stroke-width: 1px;"/><path class="ytick ticks crisp" d="M79,0h-5" transform="translate(0,277.22)" style="stroke: rgb(68, 68, 68); stroke-opacity: 1; stroke-width: 1px;"/><path class="ytick ticks crisp" d="M79,0h-5" transform="translate(0,211.79000000000002)" style="stroke: rgb(68, 68, 68); stroke-opacity: 1; stroke-width: 1px;"/><path class="ytick ticks crisp" d="M79,0h-5" transform="translate(0,146.37)" style="stroke: rgb(68, 68, 68); stroke-opacity: 1; stroke-width: 1px;"/><g class="ytick"><text text-anchor="end" x="70.8" y="5.6" transform="translate(0,342.65)" style="font-family: 'Open Sans', verdana, arial, sans-serif; font-size: 16px; fill: rgb(36, 36, 36); fill-opacity: 1; white-space: pre; opacity: 1;">200</text></g><g class="ytick"><text text-anchor="end" x="70.8" y="5.6" style="font-family: 'Open Sans', verdana, arial, sans-serif; font-size: 16px; fill: rgb(36, 36, 36); fill-opacity: 1; white-space: pre; opacity: 1;" transform="translate(0,277.22)">400</text></g><g class="ytick"><text text-anchor="end" x="70.8" y="5.6" style="font-family: 'Open Sans', verdana, arial, sans-serif; font-size: 16px; fill: rgb(36, 36, 36); fill-opacity: 1; white-space: pre; opacity: 1;" transform="translate(0,211.79000000000002)">600</text></g><g class="ytick"><text text-anchor="end" x="70.8" y="5.6" style="font-family: 'Open Sans', verdana, arial, sans-serif; font-size: 16px; fill: rgb(36, 36, 36); fill-opacity: 1; white-space: pre; opacity: 1;" transform="translate(0,146.37)">800</text></g></g><g class="overaxes-above"/></g><g class="subplot x2y2"><g class="layer-subplot"><g class="shapelayer"/><g class="imagelayer"/></g><g class="minor-gridlayer"><g class="x2"/><g class="y2"/></g><g class="gridlayer"><g class="x2"/><g class="y2"/></g><g class="zerolinelayer"/><g class="layer-between"><g class="shapelayer"/><g class="imagelayer"/></g><path class="xlines-below"/><path class="ylines-below"/><g class="overlines-below"/><g class="xaxislayer-below"/><g class="yaxislayer-below"/><g class="overaxes-below"/><g class="overplot"><g class="x2y2" transform="translate(506.65,90)" clip-path="url(#clipc69f8bx2y2plot)"><g class="scatterlayer mlayer"><g class="trace scatter trace648d36" style="stroke-miterlimit: 2; opacity: 1;"><g class="fills"/><g class="errorbars"/><g class="lines"/><g class="points"><path class="point plotly-customdata" transform="translate(59.51,55.41)" d="M4.5,0A4.5,4.5 0 1,1 0,-4.5A4.5,4.5 0 0,1 4.5,0Z" style="opacity: 0.8; stroke-width: 0px; fill: rgb(68, 52, 126); fill-opacity: 1;"/><path class="point plotly-customdata" transform="translate(50.86,79.32)" d="M4.5,0A4.5,4.5 0 1,1 0,-4.5A4.5,4.5 0 0,1 4.5,0Z" style="opacity: 0.8; stroke-width: 0px; fill: rgb(68, 52, 126); fill-opacity: 1;"/><path class="point plotly-customdata" transform="translate(56.69,103.53)" d="M4.5,0A4.5,4.5 0 1,1 0,-4.5A4.5,4.5 0 0,1 4.5,0Z" style="opacity: 0.8; stroke-width: 0px; fill: rgb(68, 52, 126); fill-opacity: 1;"/><path class="point plotly-customdata" transform="translate(57.99,88.71)" d="M4.5,0A4.5,4.5 0 1,1 0,-4.5A4.5,4.5 0 0,1 4.5,0Z" style="opacity: 0.8; stroke-width: 0px; fill: rgb(68, 52, 126); fill-opacity: 1;"/><path class="point plotly-customdata" transform="translate(25.02,113.3)" d="M4.5,0A4.5,4.5 0 1,1 0,-4.5A4.5,4.5 0 0,1 4.5,0Z" style="opacity: 0.8; stroke-width: 0px; fill: rgb(68, 52, 126); fill-opacity: 1;"/><path class="point plotly-customdata" transform="translate(22.61,51.17)" d="M4.5,0A4.5,4.5 0 1,1 0,-4.5A4.5,4.5 0 0,1 4.5,0Z" style="opacity: 0.8; stroke-width: 0px; fill: rgb(68, 52, 126); fill-opacity: 1;"/><path class="point plotly-customdata" transform="translate(44.63,52.76)" d="M4.5,0A4.5,4.5 0 1,1 0,-4.5A4.5,4.5 0 0,1 4.5,0Z" style="opacity: 0.8; stroke-width: 0px; fill: rgb(68, 52, 126); fill-opacity: 1;"/><path class="point plotly-customdata" transform="translate(52.95,123.75)" d="M4.5,0A4.5,4.5 0 1,1 0,-4.5A4.5,4.5 0 0,1 4.5,0Z" style="opacity: 0.8; stroke-width: 0px; fill: rgb(68, 52, 126); fill-opacity: 1;"/><path class="point plotly-customdata" transform="translate(43.15,49.41)" d="M4.5,0A4.5,4.5 0 1,1 0,-4.5A4.5,4.5 0 0,1 4.5,0Z" style="opacity: 0.8; stroke-width: 0px; fill: rgb(68, 52, 126); fill-opacity: 1;"/><path class="point plotly-customdata" transform="translate(28.5,97.3)" d="M4.5,0A4.5,4.5 0 1,1 0,-4.5A4.5,4.5 0 0,1 4.5,0Z" style="opacity: 0.8; stroke-width: 0px; fill: rgb(68, 52, 126); fill-opacity: 1;"/><path class="point plotly-customdata" transform="translate(42.68,115.49)" d="M4.5,0A4.5,4.5 0 1,1 0,-4.5A4.5,4.5 0 0,1 4.5,0Z" style="opacity: 0.8; stroke-width: 0px; fill: rgb(68, 52, 126); fill-opacity: 1;"/><path class="point plotly-customdata" transform="translate(56.17,147.31)" d="M4.5,0A4.5,4.5 0 1,1 0,-4.5A4.5,4.5 0 0,1 4.5,0Z" style="opacity: 0.8; stroke-width: 0px; fill: rgb(68, 52, 126); fill-opacity: 1;"/></g><g class="text"/></g><g class="trace scatter tracefc5ff6" style="stroke-miterlimit: 2; opacity: 1;"><g class="fills"/><g class="errorbars"/><g class="lines"/><g class="points"><path class="point plotly-customdata" transform="translate(61.19,53.68)" d="M4.5,0A4.5,4.5 0 1,1 0,-4.5A4.5,4.5 0 0,1 4.5,0Z" style="opacity: 0.8; stroke-width: 0px; fill: rgb(47, 108, 142); fill-opacity: 1;"/><path class="point plotly-customdata" transform="translate(58.55,111.76)" d="M4.5,0A4.5,4.5 0 1,1 0,-4.5A4.5,4.5 0 0,1 4.5,0Z" style="opacity: 0.8; stroke-width: 0px; fill: rgb(47, 108, 142); fill-opacity: 1;"/><path class="point plotly-customdata" transform="translate(77.65,143.4)" d="M4.5,0A4.5,4.5 0 1,1 0,-4.5A4.5,4.5 0 0,1 4.5,0Z" style="opacity: 0.8; stroke-width: 0px; fill: rgb(47, 108, 142); fill-opacity: 1;"/><path class="point plotly-customdata" transform="translate(68.24,101.67)" d="M4.5,0A4.5,4.5 0 1,1 0,-4.5A4.5,4.5 0 0,1 4.5,0Z" style="opacity: 0.8; stroke-width: 0px; fill: rgb(47, 108, 142); fill-opacity: 1;"/><path class="point plotly-customdata" transform="translate(30.45,116.66)" d="M4.5,0A4.5,4.5 0 1,1 0,-4.5A4.5,4.5 0 0,1 4.5,0Z" style="opacity: 0.8; stroke-width: 0px; fill: rgb(47, 108, 142); fill-opacity: 1;"/><path class="point plotly-customdata" transform="translate(38.49,89.11)" d="M4.5,0A4.5,4.5 0 1,1 0,-4.5A4.5,4.5 0 0,1 4.5,0Z" style="opacity: 0.8; stroke-width: 0px; fill: rgb(47, 108, 142); fill-opacity: 1;"/><path class="point plotly-customdata" transform="translate(107.01,90.9)" d="M4.5,0A4.5,4.5 0 1,1 0,-4.5A4.5,4.5 0 0,1 4.5,0Z" style="opacity: 0.8; stroke-width: 0px; fill: rgb(47, 108, 142); fill-opacity: 1;"/><path class="point plotly-customdata" transform="translate(63.15,111.29)" d="M4.5,0A4.5,4.5 0 1,1 0,-4.5A4.5,4.5 0 0,1 4.5,0Z" style="opacity: 0.8; stroke-width: 0px; fill: rgb(47, 108, 142); fill-opacity: 1;"/><path class="point plotly-customdata" transform="translate(51.07,67.56)" d="M4.5,0A4.5,4.5 0 1,1 0,-4.5A4.5,4.5 0 0,1 4.5,0Z" style="opacity: 0.8; stroke-width: 0px; fill: rgb(47, 108, 142); fill-opacity: 1;"/><path class="point plotly-customdata" transform="translate(44.15,71.24)" d="M4.5,0A4.5,4.5 0 1,1 0,-4.5A4.5,4.5 0 0,1 4.5,0Z" style="opacity: 0.8; stroke-width: 0px; fill: rgb(47, 108, 142); fill-opacity: 1;"/><path class="point plotly-customdata" transform="translate(56.12,150.73)" d="M4.5,0A4.5,4.5 0 1,1 0,-4.5A4.5,4.5 0 0,1 4.5,0Z" style="opacity: 0.8; stroke-width: 0px; fill: rgb(47, 108, 142); fill-opacity: 1;"/><path class="point plotly-customdata" transform="translate(82.4,108.3)" d="M4.5,0A4.5,4.5 0 1,1 0,-4.5A4.5,4.5 0 0,1 4.5,0Z" style="opacity: 0.8; stroke-width: 0px; fill: rgb(47, 108, 142); fill-opacity: 1;"/></g><g class="text"/></g><g class="trace scatter trace436417" style="stroke-miterlimit: 2; opacity: 1;"><g class="fills"/><g class="errorbars"/><g class="lines"/><g class="points"><path class="point plotly-customdata" transform="translate(133.15,173.24)" d="M4.5,0A4.5,4.5 0 1,1 0,-4.5A4.5,4.5 0 0,1 4.5,0Z" style="opacity: 0.8; stroke-width: 0px; fill: rgb(31, 157, 137); fill-opacity: 1;"/><path class="point plotly-customdata" transform="translate(115.42,146.3)" d="M4.5,0A4.5,4.5 0 1,1 0,-4.5A4.5,4.5 0 0,1 4.5,0Z" style="opacity: 0.8; stroke-width: 0px; fill: rgb(31, 157, 137); fill-opacity: 1;"/><path class="point plotly-customdata" transform="translate(154,129.27)" d="M4.5,0A4.5,4.5 0 1,1 0,-4.5A4.5,4.5 0 0,1 4.5,0Z" style="opacity: 0.8; stroke-width: 0px; fill: rgb(31, 157, 137); fill-opacity: 1;"/><path class="point plotly-customdata" transform="translate(141.38,65.58)" d="M4.5,0A4.5,4.5 0 1,1 0,-4.5A4.5,4.5 0 0,1 4.5,0Z" style="opacity: 0.8; stroke-width: 0px; fill: rgb(31, 157, 137); fill-opacity: 1;"/><path class="point plotly-customdata" transform="translate(70.85,183.15)" d="M4.5,0A4.5,4.5 0 1,1 0,-4.5A4.5,4.5 0 0,1 4.5,0Z" style="opacity: 0.8; stroke-width: 0px; fill: rgb(31, 157, 137); fill-opacity: 1;"/><path class="point plotly-customdata" transform="translate(59.45,120.19)" d="M4.5,0A4.5,4.5 0 1,1 0,-4.5A4.5,4.5 0 0,1 4.5,0Z" style="opacity: 0.8; stroke-width: 0px; fill: rgb(31, 157, 137); fill-opacity: 1;"/><path class="point plotly-customdata" transform="translate(122.11,134.84)" d="M4.5,0A4.5,4.5 0 1,1 0,-4.5A4.5,4.5 0 0,1 4.5,0Z" style="opacity: 0.8; stroke-width: 0px; fill: rgb(31, 157, 137); fill-opacity: 1;"/><path class="point plotly-customdata" transform="translate(112.42,150.85)" d="M4.5,0A4.5,4.5 0 1,1 0,-4.5A4.5,4.5 0 0,1 4.5,0Z" style="opacity: 0.8; stroke-width: 0px; fill: rgb(31, 157, 137); fill-opacity: 1;"/><path class="point plotly-customdata" transform="translate(103.24,99.79)" d="M4.5,0A4.5,4.5 0 1,1 0,-4.5A4.5,4.5 0 0,1 4.5,0Z" style="opacity: 0.8; stroke-width: 0px; fill: rgb(31, 157, 137); fill-opacity: 1;"/><path class="point plotly-customdata" transform="translate(83.15,134.98)" d="M4.5,0A4.5,4.5 0 1,1 0,-4.5A4.5,4.5 0 0,1 4.5,0Z" style="opacity: 0.8; stroke-width: 0px; fill: rgb(31, 157, 137); fill-opacity: 1;"/><path class="point plotly-customdata" transform="translate(117.96,186.99)" d="M4.5,0A4.5,4.5 0 1,1 0,-4.5A4.5,4.5 0 0,1 4.5,0Z" style="opacity: 0.8; stroke-width: 0px; fill: rgb(31, 157, 137); fill-opacity: 1;"/><path class="point plotly-customdata" transform="translate(125.42,222.3)" d="M4.5,0A4.5,4.5 0 1,1 0,-4.5A4.5,4.5 0 0,1 4.5,0Z" style="opacity: 0.8; stroke-width: 0px; fill: rgb(31, 157, 137); fill-opacity: 1;"/></g><g class="text"/></g><g class="trace scatter tracea32c46" style="stroke-miterlimit: 2; opacity: 1;"><g class="fills"/><g class="errorbars"/><g class="lines"/><g class="points"><path class="point plotly-customdata" transform="translate(190.66,218.86)" d="M4.5,0A4.5,4.5 0 1,1 0,-4.5A4.5,4.5 0 0,1 4.5,0Z" style="opacity: 0.8; stroke-width: 0px; fill: rgb(96, 200, 96); fill-opacity: 1;"/><path class="point plotly-customdata" transform="translate(186.55,227.82)" d="M4.5,0A4.5,4.5 0 1,1 0,-4.5A4.5,4.5 0 0,1 4.5,0Z" style="opacity: 0.8; stroke-width: 0px; fill: rgb(96, 200, 96); fill-opacity: 1;"/><path class="point plotly-customdata" transform="translate(292.74,170.94)" d="M4.5,0A4.5,4.5 0 1,1 0,-4.5A4.5,4.5 0 0,1 4.5,0Z" style="opacity: 0.8; stroke-width: 0px; fill: rgb(96, 200, 96); fill-opacity: 1;"/><path class="point plotly-customdata" transform="translate(266.36,214.21)" d="M4.5,0A4.5,4.5 0 1,1 0,-4.5A4.5,4.5 0 0,1 4.5,0Z" style="opacity: 0.8; stroke-width: 0px; fill: rgb(96, 200, 96); fill-opacity: 1;"/><path class="point plotly-customdata" transform="translate(98.1,246.43)" d="M4.5,0A4.5,4.5 0 1,1 0,-4.5A4.5,4.5 0 0,1 4.5,0Z" style="opacity: 0.8; stroke-width: 0px; fill: rgb(96, 200, 96); fill-opacity: 1;"/><path class="point plotly-customdata" transform="translate(118.17,312.81)" d="M4.5,0A4.5,4.5 0 1,1 0,-4.5A4.5,4.5 0 0,1 4.5,0Z" style="opacity: 0.8; stroke-width: 0px; fill: rgb(96, 200, 96); fill-opacity: 1;"/><path class="point plotly-customdata" transform="translate(255.26,164.33)" d="M4.5,0A4.5,4.5 0 1,1 0,-4.5A4.5,4.5 0 0,1 4.5,0Z" style="opacity: 0.8; stroke-width: 0px; fill: rgb(96, 200, 96); fill-opacity: 1;"/><path class="point plotly-customdata" transform="translate(145.77,195.54)" d="M4.5,0A4.5,4.5 0 1,1 0,-4.5A4.5,4.5 0 0,1 4.5,0Z" style="opacity: 0.8; stroke-width: 0px; fill: rgb(96, 200, 96); fill-opacity: 1;"/><path class="point plotly-customdata" transform="translate(125.04,202.92)" d="M4.5,0A4.5,4.5 0 1,1 0,-4.5A4.5,4.5 0 0,1 4.5,0Z" style="opacity: 0.8; stroke-width: 0px; fill: rgb(96, 200, 96); fill-opacity: 1;"/><path class="point plotly-customdata" transform="translate(131.33,174.42)" d="M4.5,0A4.5,4.5 0 1,1 0,-4.5A4.5,4.5 0 0,1 4.5,0Z" style="opacity: 0.8; stroke-width: 0px; fill: rgb(96, 200, 96); fill-opacity: 1;"/><path class="point plotly-customdata" transform="translate(215.62,238.59)" d="M4.5,0A4.5,4.5 0 1,1 0,-4.5A4.5,4.5 0 0,1 4.5,0Z" style="opacity: 0.8; stroke-width: 0px; fill: rgb(96, 200, 96); fill-opacity: 1;"/><path class="point plotly-customdata" transform="translate(210.74,201.54)" d="M4.5,0A4.5,4.5 0 1,1 0,-4.5A4.5,4.5 0 0,1 4.5,0Z" style="opacity: 0.8; stroke-width: 0px; fill: rgb(96, 200, 96); fill-opacity: 1;"/></g><g class="text"/></g></g></g></g><path class="xlines-above crisp" d="M505.65,380.5H822" style="fill: none; stroke-width: 1px; stroke: rgb(36, 36, 36); stroke-opacity: 1;"/><path class="ylines-above crisp" d="M506.15,90V380" style="fill: none; stroke-width: 1px; stroke: rgb(36, 36, 36); stroke-opacity: 1;"/><g class="overlines-above"/><g class="xaxislayer-above"><path class="x2tick ticks crisp" d="M0,381v5" transform="translate(545.91,0)" style="stroke: rgb(68, 68, 68); stroke-opacity: 1; stroke-width: 1px;"/><path class="x2tick ticks crisp" d="M0,381v5" transform="translate(615.86,0)" style="stroke: rgb(68, 68, 68); stroke-opacity: 1; stroke-width: 1px;"/><path class="x2tick ticks crisp" d="M0,381v5" transform="translate(685.81,0)" style="stroke: rgb(68, 68, 68); stroke-opacity: 1; stroke-width: 1px;"/><path class="x2tick ticks crisp" d="M0,381v5" transform="translate(755.76,0)" style="stroke: rgb(68, 68, 68); stroke-opacity: 1; stroke-width: 1px;"/><g class="x2tick"><text text-anchor="middle" x="0" y="405.2" transform="translate(545.91,0)" style="font-family: 'Open Sans', verdana, arial, sans-serif; font-size: 16px; fill: rgb(36, 36, 36); fill-opacity: 1; white-space: pre; opacity: 1;">200</text></g><g class="x2tick"><text text-anchor="middle" x="0" y="405.2" style="font-family: 'Open Sans', verdana, arial, sans-serif; font-size: 16px; fill: rgb(36, 36, 36); fill-opacity: 1; white-space: pre; opacity: 1;" transform="translate(615.86,0)">400</text></g><g class="x2tick"><text text-anchor="middle" x="0" y="405.2" style="font-family: 'Open Sans', verdana, arial, sans-serif; font-size: 16px; fill: rgb(36, 36, 36); fill-opacity: 1; white-space: pre; opacity: 1;" transform="translate(685.81,0)">600</text></g><g class="x2tick"><text text-anchor="middle" x="0" y="405.2" style="font-family: 'Open Sans', verdana, arial, sans-serif; font-size: 16px; fill: rgb(36, 36, 36); fill-opacity: 1; white-space: pre; opacity: 1;" transform="translate(755.76,0)">800</text></g></g><g class="yaxislayer-above"><path class="y2tick ticks crisp" d="M505.65,0h-5" transform="translate(0,377.73)" style="stroke: rgb(68, 68, 68); stroke-opacity: 1; stroke-width: 1px;"/><path class="y2tick ticks crisp" d="M505.65,0h-5" transform="translate(0,342.05)" style="stroke: rgb(68, 68, 68); stroke-opacity: 1; stroke-width: 1px;"/><path class="y2tick ticks crisp" d="M505.65,0h-5" transform="translate(0,306.36)" style="stroke: rgb(68, 68, 68); stroke-opacity: 1; stroke-width: 1px;"/><path class="y2tick ticks crisp" d="M505.65,0h-5" transform="translate(0,270.68)" style="stroke: rgb(68, 68, 68); stroke-opacity: 1; stroke-width: 1px;"/><path class="y2tick ticks crisp" d="M505.65,0h-5" transform="translate(0,235)" style="stroke: rgb(68, 68, 68); stroke-opacity: 1; stroke-width: 1px;"/><path class="y2tick ticks crisp" d="M505.65,0h-5" transform="translate(0,199.32)" style="stroke: rgb(68, 68, 68); stroke-opacity: 1; stroke-width: 1px;"/><path class="y2tick ticks crisp" d="M505.65,0h-5" transform="translate(0,163.64)" style="stroke: rgb(68, 68, 68); stroke-opacity: 1; stroke-width: 1px;"/><path class="y2tick ticks crisp" d="M505.65,0h-5" transform="translate(0,127.95)" style="stroke: rgb(68, 68, 68); stroke-opacity: 1; stroke-width: 1px;"/><path class="y2tick ticks crisp" d="M505.65,0h-5" transform="translate(0,92.27)" style="stroke: rgb(68, 68, 68); stroke-opacity: 1; stroke-width: 1px;"/><g class="y2tick"><text text-anchor="end" x="497.45" y="5.6" transform="translate(0,377.73)" style="font-family: 'Open Sans', verdana, arial, sans-serif; font-size: 16px; fill: rgb(36, 36, 36); fill-opacity: 1; white-space: pre; opacity: 1;">−80</text></g><g class="y2tick"><text text-anchor="end" x="497.45" y="5.6" style="font-family: 'Open Sans', verdana, arial, sans-serif; font-size: 16px; fill: rgb(36, 36, 36); fill-opacity: 1; white-space: pre; opacity: 1;" transform="translate(0,342.05)">−60</text></g><g class="y2tick"><text text-anchor="end" x="497.45" y="5.6" style="font-family: 'Open Sans', verdana, arial, sans-serif; font-size: 16px; fill: rgb(36, 36, 36); fill-opacity: 1; white-space: pre; opacity: 1;" transform="translate(0,306.36)">−40</text></g><g class="y2tick"><text text-anchor="end" x="497.45" y="5.6" style="font-family: 'Open Sans', verdana, arial, sans-serif; font-size: 16px; fill: rgb(36, 36, 36); fill-opacity: 1; white-space: pre; opacity: 1;" transform="translate(0,270.68)">−20</text></g><g class="y2tick"><text text-anchor="end" x="497.45" y="5.6" style="font-family: 'Open Sans', verdana, arial, sans-serif; font-size: 16px; fill: rgb(36, 36, 36); fill-opacity: 1; white-space: pre; opacity: 1;" transform="translate(0,235)">0</text></g><g class="y2tick"><text text-anchor="end" x="497.45" y="5.6" style="font-family: 'Open Sans', verdana, arial, sans-serif; font-size: 16px; fill: rgb(36, 36, 36); fill-opacity: 1; white-space: pre; opacity: 1;" transform="translate(0,199.32)">20</text></g><g class="y2tick"><text text-anchor="end" x="497.45" y="5.6" style="font-family: 'Open Sans', verdana, arial, sans-serif; font-size: 16px; fill: rgb(36, 36, 36); fill-opacity: 1; white-space: pre; opacity: 1;" transform="translate(0,163.64)">40</text></g><g class="y2tick"><text text-anchor="end" x="497.45" y="5.6" style="font-family: 'Open Sans', verdana, arial, sans-serif; font-size: 16px; fill: rgb(36, 36, 36); fill-opacity: 1; white-space: pre; opacity: 1;" transform="translate(0,127.95)">60</text></g><g class="y2tick"><text text-anchor="end" x="497.45" y="5.6" style="font-family: 'Open Sans', verdana, arial, sans-serif; font-size: 16px; fill: rgb(36, 36, 36); fill-opacity: 1; white-space: pre; opacity: 1;" transform="translate(0,92.27)">80</text></g></g><g class="overaxes-above"/></g></g><g class="polarlayer"/><g class="smithlayer"/><g class="ternarylayer"/><g class="geolayer"/><g class="funnelarealayer"/><g class="pielayer"/><g class="iciclelayer"/><g class="treemaplayer"/><g class="sunburstlayer"/><g class="glimages"/><defs id="topdefs-c69f8b"><g class="clips"/><clipPath id="legendc69f8b"><rect width="201" height="105" x="0" y="0"/></clipPath></defs><g class="layer-above"><g class="imagelayer"/><g class="shapelayer"><g class="shape-group" data-index="0" clip-path="url(#clipc69f8bx2y2)"><path data-index="0" fill-rule="evenodd" d="M507.65,227.7L821,227.7" style="opacity: 0.3; stroke: rgb(0, 0, 0); stroke-opacity: 1; fill: rgb(0, 0, 0); fill-opacity: 1; stroke-dasharray: 9px, 9px; stroke-width: 2px;"/></g><g class="shape-group" data-index="1" clip-path="url(#clipc69f8bx2y2)"><path data-index="1" fill-rule="evenodd" d="M507.65,108.91L821,108.91" style="opacity: 0.3; stroke: rgb(0, 0, 0); stroke-opacity: 1; fill: rgb(0, 0, 0); fill-opacity: 1; stroke-dasharray: 3px, 3px; stroke-width: 1.5px;"/></g><g class="shape-group" data-index="2" clip-path="url(#clipc69f8bx2y2)"><path data-index="2" fill-rule="evenodd" d="M507.65,346.49L821,346.49" style="opacity: 0.3; stroke: rgb(0, 0, 0); stroke-opacity: 1; fill: rgb(0, 0, 0); fill-opacity: 1; stroke-dasharray: 3px, 3px; stroke-width: 1.5px;"/></g></g></g><g class="infolayer"><g class="legend" pointer-events="all" transform="translate(836.84,90)"><rect class="bg" shape-rendering="crispEdges" style="stroke: rgb(68, 68, 68); stroke-opacity: 1; fill: rgb(255, 255, 255); fill-opacity: 1; stroke-width: 0px;" width="201" height="105" x="0" y="0"/><g class="scrollbox" transform="" clip-path="url(#legendc69f8b)"><text class="legendtitletext" text-anchor="start" x="2" y="18.2" style="font-family: 'Open Sans', verdana, arial, sans-serif; font-size: 14px; fill: rgb(36, 36, 36); fill-opacity: 1; white-space: pre;">Condition</text><g class="groups"><g class="traces" transform="translate(0,32.7)" style="opacity: 1;"><text class="legendtext" text-anchor="start" x="40" y="4.680000000000001" style="font-family: 'Open Sans', verdana, arial, sans-serif; font-size: 12px; fill: rgb(36, 36, 36); fill-opacity: 1; white-space: pre;">Eyes Open/Solid Ground</text><g class="layers" style="opacity: 1;"><g class="legendfill"/><g class="legendlines"/><g class="legendsymbols"><g class="legendpoints"><path class="scatterpts" transform="translate(20,0)" d="M4.5,0A4.5,4.5 0 1,1 0,-4.5A4.5,4.5 0 0,1 4.5,0Z" style="opacity: 0.8; stroke-width: 0px; fill: rgb(68, 52, 126); fill-opacity: 1;"/></g></g></g><rect class="legendtoggle" x="0" y="-9.5" width="195.625" height="19" style="fill: rgb(0, 0, 0); fill-opacity: 0;"/></g><g class="traces" transform="translate(0,51.7)" style="opacity: 1;"><text class="legendtext" text-anchor="start" x="40" y="4.680000000000001" style="font-family: 'Open Sans', verdana, arial, sans-serif; font-size: 12px; fill: rgb(36, 36, 36); fill-opacity: 1; white-space: pre;">Eyes Closed/Solid Ground</text><g class="layers" style="opacity: 1;"><g class="legendfill"/><g class="legendlines"/><g class="legendsymbols"><g class="legendpoints"><path class="scatterpts" transform="translate(20,0)" d="M4.5,0A4.5,4.5 0 1,1 0,-4.5A4.5,4.5 0 0,1 4.5,0Z" style="opacity: 0.8; stroke-width: 0px; fill: rgb(47, 108, 142); fill-opacity: 1;"/></g></g></g><rect class="legendtoggle" x="0" y="-9.5" width="195.625" height="19" style="fill: rgb(0, 0, 0); fill-opacity: 0;"/></g><g class="traces" transform="translate(0,70.7)" style="opacity: 1;"><text class="legendtext" text-anchor="start" x="40" y="4.680000000000001" style="font-family: 'Open Sans', verdana, arial, sans-serif; font-size: 12px; fill: rgb(36, 36, 36); fill-opacity: 1; white-space: pre;">Eyes Open/Foam</text><g class="layers" style="opacity: 1;"><g class="legendfill"/><g class="legendlines"/><g class="legendsymbols"><g class="legendpoints"><path class="scatterpts" transform="translate(20,0)" d="M4.5,0A4.5,4.5 0 1,1 0,-4.5A4.5,4.5 0 0,1 4.5,0Z" style="opacity: 0.8; stroke-width: 0px; fill: rgb(31, 157, 137); fill-opacity: 1;"/></g></g></g><rect class="legendtoggle" x="0" y="-9.5" width="195.625" height="19" style="fill: rgb(0, 0, 0); fill-opacity: 0;"/></g><g class="traces" transform="translate(0,89.7)" style="opacity: 1;"><text class="legendtext" text-anchor="start" x="40" y="4.680000000000001" style="font-family: 'Open Sans', verdana, arial, sans-serif; font-size: 12px; fill: rgb(36, 36, 36); fill-opacity: 1; white-space: pre;">Eyes Closed/Foam</text><g class="layers" style="opacity: 1;"><g class="legendfill"/><g class="legendlines"/><g class="legendsymbols"><g class="legendpoints"><path class="scatterpts" transform="translate(20,0)" d="M4.5,0A4.5,4.5 0 1,1 0,-4.5A4.5,4.5 0 0,1 4.5,0Z" style="opacity: 0.8; stroke-width: 0px; fill: rgb(96, 200, 96); fill-opacity: 1;"/></g></g></g><rect class="legendtoggle" x="0" y="-9.5" width="195.625" height="19" style="fill: rgb(0, 0, 0); fill-opacity: 0;"/></g></g></g><rect class="scrollbar" rx="20" ry="3" width="0" height="0" style="fill: rgb(128, 139, 164); fill-opacity: 1;" x="0" y="0"/></g><g class="g-gtitle"/><g class="g-xtitle"><text class="xtitle" x="237.67499999999998" y="436.703125" text-anchor="middle" style="opacity: 1; font-family: Arial; font-size: 20px; fill: rgb(36, 36, 36); fill-opacity: 1; white-space: pre;"><tspan style="font-weight:bold">Qualisys path length (mm)</tspan></text></g><g class="g-x2title"><text class="x2title" x="664.325" y="436.703125" text-anchor="middle" style="opacity: 1; font-family: Arial; font-size: 20px; fill: rgb(36, 36, 36); fill-opacity: 1; white-space: pre;"><tspan style="font-weight:bold">Mean of systems (mm)</tspan></text></g><g class="g-ytitle"><text class="ytitle" transform="rotate(-90,18.78125,235)" x="18.78125" y="235" text-anchor="middle" style="opacity: 1; font-family: Arial; font-size: 20px; fill: rgb(36, 36, 36); fill-opacity: 1; white-space: pre;"><tspan style="font-weight:bold">FMC-MediaPipe path length (mm)</tspan></text></g><g class="g-y2title"><text class="y2title" transform="rotate(-90,442.5,235)" x="442.5" y="235" text-anchor="middle" style="opacity: 1; font-family: Arial; font-size: 20px; fill: rgb(36, 36, 36); fill-opacity: 1; white-space: pre;"><tspan style="font-weight:bold">Difference between systems (mm)</tspan></text></g><g class="annotation" data-index="0" style="opacity: 1;"><g class="annotation-text-g" transform="rotate(0,324.5825,348)"><g class="cursor-pointer" transform="translate(270,331)"><rect class="bg" x="0.5" y="0.5" width="109" height="34" style="stroke-width: 1px; stroke: rgb(0, 0, 0); stroke-opacity: 0; fill: rgb(0, 0, 0); fill-opacity: 0;"/><text class="annotation-text" text-anchor="middle" x="54.734375" y="14" style="font-family: 'Open Sans', verdana, arial, sans-serif; font-size: 12px; fill: rgb(36, 36, 36); fill-opacity: 1; white-space: pre;"><tspan class="line" dy="0em" x="54.734375" y="14">ICC(2,1) = 0.984</tspan><tspan class="line" dy="1.3em" x="54.734375" y="14">slope = 0.89</tspan></text></g></g></g></g></svg>