<svg class="main-svg" xmlns="http://www.w3.org/2000/svg" xmlns:xlink="http://www.w3.org/1999/xlink" width="3600" height="1350" style="" viewBox="0 0 1200 450"><rect x="0" y="0" width="1200" height="450" style="fill: rgb(255, 255, 255); fill-opacity: 1;"/><defs id="defs-3fcafb"><g class="clips"><clipPath id="clip3fcafbxyplot" class="plotclip"><rect width="377.825" height="290"/></clipPath><clipPath id="clip3fcafbx2y2plot" class="plotclip"><rect width="377.82500000000005" height="290"/></clipPath><clipPath class="axesclip" id="clip3fcafbx"><rect x="80" y="0" width="377.825" height="450"/></clipPath><clipPath class="axesclip" id="clip3fcafby"><rect x="0" y="90" width="1200" height="290"/></clipPath><clipPath class="axesclip" id="clip3fcafbxy"><rect x="80" y="90" width="377.825" height="290"/></clipPath><clipPath class="axesclip" id="clip3fcafby2"><rect x="0" y="90" width="1200" height="290"/></clipPath><clipPath class="axesclip" id="clip3fcafbxy2"><rect x="80" y="90" width="377.825" height="290"/></clipPath><clipPath class="axesclip" id="clip3fcafbx2"><rect x="591.175" y="0" width="377.82500000000005" height="450"/></clipPath><clipPath class="axesclip" id="clip3fcafbx2y"><rect x="591.175" y="90" width="377.82500000000005" height="290"/></clipPath><clipPath class="axesclip" id="clip3fcafbx2y2"><rect x="591.175" y="90" width="377.82500000000005" height="290"/></clipPath></g><g class="gradients"/><g class="patterns"/></defs><g class="bglayer"/><g class="layer-below"><g class="imagelayer"/><g class="shapelayer"/></g><g class="cartesianlayer"><g class="subplot xy"><g class="layer-subplot"><g class="shapelayer"/><g class="imagelayer"/></g><g class="minor-gridlayer"><g class="x"/><g class="y"/></g><g class="gridlayer"><g class="x"/><g class="y"/></g><g class="zerolinelayer"/><g class="layer-between"><g class="shapelayer"/><g class="imagelayer"/></g><path class="xlines-below"/><path class="ylines-below"/><g class="overlines-below"/><g class="xaxislayer-below"/><g class="yaxislayer-below"/><g class="overaxes-below"/><g class="overplot"><g class="xy" transform="translate(80,90)" clip-path="url(#clip3fcafbxyplot)"><g class="scatterlayer mlayer"><g class="trace scatter tracecec12e" style="stroke-miterlimit: 2; opacity: 1;"><g class="fills"/><g class="errorbars"/><g class="lines"/><g class="points"><path class="point plotly-customdata" transform="translate(59.69,212.31)" d="M4,0A4,4 0 1,1 0,-4A4,4 0 0,1 4,0Z" style="opacity: 0.75; stroke-width: 0px; fill: rgb(31, 119, 180); fill-opacity: 1;"/><path class="point plotly-customdata" transform="translate(61.41,209.21)" d="M4,0A4,4 0 1,1 0,-4A4,4 0 0,1 4,0Z" style="opacity: 0.75; stroke-width: 0px; fill: rgb(31, 119, 180); fill-opacity: 1;"/><path class="point plotly-customdata" transform="translate(156.77,153.68)" d="M4,0A4,4 0 1,1 0,-4A4,4 0 0,1 4,0Z" style="opacity: 0.75; stroke-width: 0px; fill: rgb(31, 119, 180); fill-opacity: 1;"/><path class="point plotly-customdata" transform="translate(227.39,110.14)" d="M4,0A4,4 0 1,1 0,-4A4,4 0 0,1 4,0Z" style="opacity: 0.75; stroke-width: 0px; fill: rgb(31, 119, 180); fill-opacity: 1;"/><path class="point plotly-customdata" transform="translate(52.51,222.6)" d="M4,0A4,4 0 1,1 0,-4A4,4 0 0,1 4,0Z" style="opacity: 0.75; stroke-width: 0px; fill: rgb(31, 119, 180); fill-opacity: 1;"/><path class="point plotly-customdata" transform="translate(64.89,219.23)" d="M4,0A4,4 0 1,1 0,-4A4,4 0 0,1 4,0Z" style="opacity: 0.75; stroke-width: 0px; fill: rgb(31, 119, 180); fill-opacity: 1;"/><path class="point plotly-customdata" transform="translate(133.56,168.85)" d="M4,0A4,4 0 1,1 0,-4A4,4 0 0,1 4,0Z" style="opacity: 0.75; stroke-width: 0px; fill: rgb(31, 119, 180); fill-opacity: 1;"/><path class="point plotly-customdata" transform="translate(223.7,112.27)" d="M4,0A4,4 0 1,1 0,-4A4,4 0 0,1 4,0Z" style="opacity: 0.75; stroke-width: 0px; fill: rgb(31, 119, 180); fill-opacity: 1;"/><path class="point plotly-customdata" transform="translate(61.86,217.08)" d="M4,0A4,4 0 1,1 0,-4A4,4 0 0,1 4,0Z" style="opacity: 0.75; stroke-width: 0px; fill: rgb(31, 119, 180); fill-opacity: 1;"/><path class="point plotly-customdata" transform="translate(90.19,204.41)" d="M4,0A4,4 0 1,1 0,-4A4,4 0 0,1 4,0Z" style="opacity: 0.75; stroke-width: 0px; fill: rgb(31, 119, 180); fill-opacity: 1;"/><path class="point plotly-customdata" transform="translate(175.61,130.22)" d="M4,0A4,4 0 1,1 0,-4A4,4 0 0,1 4,0Z" style="opacity: 0.75; stroke-width: 0px; fill: rgb(31, 119, 180); fill-opacity: 1;"/><path class="point plotly-customdata" transform="translate(338.36,13.18)" d="M4,0A4,4 0 1,1 0,-4A4,4 0 0,1 4,0Z" style="opacity: 0.75; stroke-width: 0px; fill: rgb(31, 119, 180); fill-opacity: 1;"/><path class="point plotly-customdata" transform="translate(61.69,215.59)" d="M4,0A4,4 0 1,1 0,-4A4,4 0 0,1 4,0Z" style="opacity: 0.75; stroke-width: 0px; fill: rgb(31, 119, 180); fill-opacity: 1;"/><path class="point plotly-customdata" transform="translate(74.8,208.41)" d="M4,0A4,4 0 1,1 0,-4A4,4 0 0,1 4,0Z" style="opacity: 0.75; stroke-width: 0px; fill: rgb(31, 119, 180); fill-opacity: 1;"/><path class="point plotly-customdata" transform="translate(154.12,139.54)" d="M4,0A4,4 0 1,1 0,-4A4,4 0 0,1 4,0Z" style="opacity: 0.75; stroke-width: 0px; fill: rgb(31, 119, 180); fill-opacity: 1;"/><path class="point plotly-customdata" transform="translate(313.13,43.46)" d="M4,0A4,4 0 1,1 0,-4A4,4 0 0,1 4,0Z" style="opacity: 0.75; stroke-width: 0px; fill: rgb(31, 119, 180); fill-opacity: 1;"/><path class="point plotly-customdata" transform="translate(26.86,250.13)" d="M4,0A4,4 0 1,1 0,-4A4,4 0 0,1 4,0Z" style="opacity: 0.75; stroke-width: 0px; fill: rgb(31, 119, 180); fill-opacity: 1;"/><path class="point plotly-customdata" transform="translate(33.42,246.32)" d="M4,0A4,4 0 1,1 0,-4A4,4 0 0,1 4,0Z" style="opacity: 0.75; stroke-width: 0px; fill: rgb(31, 119, 180); fill-opacity: 1;"/><path class="point plotly-customdata" transform="translate(86.88,221.24)" d="M4,0A4,4 0 1,1 0,-4A4,4 0 0,1 4,0Z" style="opacity: 0.75; stroke-width: 0px; fill: rgb(31, 119, 180); fill-opacity: 1;"/><path class="point plotly-customdata" transform="translate(125,200.71)" d="M4,0A4,4 0 1,1 0,-4A4,4 0 0,1 4,0Z" style="opacity: 0.75; stroke-width: 0px; fill: rgb(31, 119, 180); fill-opacity: 1;"/><path class="point plotly-customdata" transform="translate(17.17,237.09)" d="M4,0A4,4 0 1,1 0,-4A4,4 0 0,1 4,0Z" style="opacity: 0.75; stroke-width: 0px; fill: rgb(31, 119, 180); fill-opacity: 1;"/><path class="point plotly-customdata" transform="translate(39.51,226.21)" d="M4,0A4,4 0 1,1 0,-4A4,4 0 0,1 4,0Z" style="opacity: 0.75; stroke-width: 0px; fill: rgb(31, 119, 180); fill-opacity: 1;"/><path class="point plotly-customdata" transform="translate(66.86,219.76)" d="M4,0A4,4 0 1,1 0,-4A4,4 0 0,1 4,0Z" style="opacity: 0.75; stroke-width: 0px; fill: rgb(31, 119, 180); fill-opacity: 1;"/><path class="point plotly-customdata" transform="translate(155.29,183.72)" d="M4,0A4,4 0 1,1 0,-4A4,4 0 0,1 4,0Z" style="opacity: 0.75; stroke-width: 0px; fill: rgb(31, 119, 180); fill-opacity: 1;"/><path class="point plotly-customdata" transform="translate(42.44,222.37)" d="M4,0A4,4 0 1,1 0,-4A4,4 0 0,1 4,0Z" style="opacity: 0.75; stroke-width: 0px; fill: rgb(31, 119, 180); fill-opacity: 1;"/><path class="point plotly-customdata" transform="translate(117.78,176.34)" d="M4,0A4,4 0 1,1 0,-4A4,4 0 0,1 4,0Z" style="opacity: 0.75; stroke-width: 0px; fill: rgb(31, 119, 180); fill-opacity: 1;"/><path class="point plotly-customdata" transform="translate(139.9,165.97)" d="M4,0A4,4 0 1,1 0,-4A4,4 0 0,1 4,0Z" style="opacity: 0.75; stroke-width: 0px; fill: rgb(31, 119, 180); fill-opacity: 1;"/><path class="point plotly-customdata" transform="translate(294.91,51.75)" d="M4,0A4,4 0 1,1 0,-4A4,4 0 0,1 4,0Z" style="opacity: 0.75; stroke-width: 0px; fill: rgb(31, 119, 180); fill-opacity: 1;"/><path class="point plotly-customdata" transform="translate(59.85,223.03)" d="M4,0A4,4 0 1,1 0,-4A4,4 0 0,1 4,0Z" style="opacity: 0.75; stroke-width: 0px; fill: rgb(31, 119, 180); fill-opacity: 1;"/><path class="point plotly-customdata" transform="translate(70.08,215.69)" d="M4,0A4,4 0 1,1 0,-4A4,4 0 0,1 4,0Z" style="opacity: 0.75; stroke-width: 0px; fill: rgb(31, 119, 180); fill-opacity: 1;"/><path class="point plotly-customdata" transform="translate(130.65,173.09)" d="M4,0A4,4 0 1,1 0,-4A4,4 0 0,1 4,0Z" style="opacity: 0.75; stroke-width: 0px; fill: rgb(31, 119, 180); fill-opacity: 1;"/><path class="point plotly-customdata" transform="translate(173.64,151.06)" d="M4,0A4,4 0 1,1 0,-4A4,4 0 0,1 4,0Z" style="opacity: 0.75; stroke-width: 0px; fill: rgb(31, 119, 180); fill-opacity: 1;"/><path class="point plotly-customdata" transform="translate(47.23,241.22)" d="M4,0A4,4 0 1,1 0,-4A4,4 0 0,1 4,0Z" style="opacity: 0.75; stroke-width: 0px; fill: rgb(31, 119, 180); fill-opacity: 1;"/><path class="point plotly-customdata" transform="translate(66.48,233.45)" d="M4,0A4,4 0 1,1 0,-4A4,4 0 0,1 4,0Z" style="opacity: 0.75; stroke-width: 0px; fill: rgb(31, 119, 180); fill-opacity: 1;"/><path class="point plotly-customdata" transform="translate(140.99,181.39)" d="M4,0A4,4 0 1,1 0,-4A4,4 0 0,1 4,0Z" style="opacity: 0.75; stroke-width: 0px; fill: rgb(31, 119, 180); fill-opacity: 1;"/><path class="point plotly-customdata" transform="translate(258.04,101.44)" d="M4,0A4,4 0 1,1 0,-4A4,4 0 0,1 4,0Z" style="opacity: 0.75; stroke-width: 0px; fill: rgb(31, 119, 180); fill-opacity: 1;"/><path class="point plotly-customdata" transform="translate(66.16,229.84)" d="M4,0A4,4 0 1,1 0,-4A4,4 0 0,1 4,0Z" style="opacity: 0.75; stroke-width: 0px; fill: rgb(31, 119, 180); fill-opacity: 1;"/><path class="point plotly-customdata" transform="translate(91.68,207.38)" d="M4,0A4,4 0 1,1 0,-4A4,4 0 0,1 4,0Z" style="opacity: 0.75; stroke-width: 0px; fill: rgb(31, 119, 180); fill-opacity: 1;"/><path class="point plotly-customdata" transform="translate(153.44,176.49)" d="M4,0A4,4 0 1,1 0,-4A4,4 0 0,1 4,0Z" style="opacity: 0.75; stroke-width: 0px; fill: rgb(31, 119, 180); fill-opacity: 1;"/><path class="point plotly-customdata" transform="translate(248.34,97.84)" d="M4,0A4,4 0 1,1 0,-4A4,4 0 0,1 4,0Z" style="opacity: 0.75; stroke-width: 0px; fill: rgb(31, 119, 180); fill-opacity: 1;"/></g><g class="text"/></g><g class="trace scatter trace061da1" style="stroke-miterlimit: 2; opacity: 1;"><g class="fills"/><g class="errorbars"/><g class="lines"><path class="js-line" d="M0,290L377.83,0" style="vector-effect: none; fill: none; stroke: rgb(0, 0, 0); stroke-opacity: 1; stroke-dasharray: 9px, 9px; stroke-width: 2px; opacity: 1;"/></g><g class="points"/><g class="text"/></g><g class="trace scatter trace03b9f6" style="stroke-miterlimit: 2; opacity: 0.7;"><g class="fills"/><g class="errorbars"/><g class="lines"><path class="js-line" d="M0,264.98L377.83,4.05" style="vector-effect: none; fill: none; stroke: rgb(255, 0, 0); stroke-opacity: 1; stroke-width: 1.5px; opacity: 1;"/></g><g class="points"/><g class="text"/></g></g></g></g><path class="xlines-above crisp" d="M79,380.5H457.825" style="fill: none; stroke-width: 1px; stroke: rgb(36, 36, 36); stroke-opacity: 1;"/><path class="ylines-above crisp" d="M79.5,90V380" style="fill: none; stroke-width: 1px; stroke: rgb(36, 36, 36); stroke-opacity: 1;"/><g class="overlines-above"/><g class="xaxislayer-above"><path class="xtick ticks crisp" d="M0,381v5" transform="translate(174.37,0)" style="stroke: rgb(68, 68, 68); stroke-opacity: 1; stroke-width: 1px;"/><path class="xtick ticks crisp" d="M0,381v5" transform="translate(301.82,0)" style="stroke: rgb(68, 68, 68); stroke-opacity: 1; stroke-width: 1px;"/><path class="xtick ticks crisp" d="M0,381v5" transform="translate(429.27,0)" style="stroke: rgb(68, 68, 68); stroke-opacity: 1; stroke-width: 1px;"/><g class="xtick"><text text-anchor="middle" x="0" y="405.2" transform="translate(174.37,0)" style="font-family: 'Open Sans', verdana, arial, sans-serif; font-size: 16px; fill: rgb(36, 36, 36); fill-opacity: 1; white-space: pre; opacity: 1;">0.2</text></g><g class="xtick"><text text-anchor="middle" x="0" y="405.2" style="font-family: 'Open Sans', verdana, arial, sans-serif; font-size: 16px; fill: rgb(36, 36, 36); fill-opacity: 1; white-space: pre; opacity: 1;" transform="translate(301.82,0)">0.4</text></g><g class="xtick"><text text-anchor="middle" x="0" y="405.2" style="font-family: 'Open Sans', verdana, arial, sans-serif; font-size: 16px; fill: rgb(36, 36, 36); fill-opacity: 1; white-space: pre; opacity: 1;" transform="translate(429.27,0)">0.6</text></g></g><g class="yaxislayer-above"><path class="ytick ticks crisp" d="M79,0h-5" transform="translate(0,356.48)" style="stroke: rgb(68, 68, 68); stroke-opacity: 1; stroke-width: 1px;"/><path class="ytick ticks crisp" d="M79,0h-5" transform="translate(0,307.57)" style="stroke: rgb(68, 68, 68); stroke-opacity: 1; stroke-width: 1px;"/><path class="ytick ticks crisp" d="M79,0h-5" transform="translate(0,258.65999999999997)" style="stroke: rgb(68, 68, 68); stroke-opacity: 1; stroke-width: 1px;"/><path class="ytick ticks crisp" d="M79,0h-5" transform="translate(0,209.74)" style="stroke: rgb(68, 68, 68); stroke-opacity: 1; stroke-width: 1px;"/><path class="ytick ticks crisp" d="M79,0h-5" transform="translate(0,160.82999999999998)" style="stroke: rgb(68, 68, 68); stroke-opacity: 1; stroke-width: 1px;"/><path class="ytick ticks crisp" d="M79,0h-5" transform="translate(0,111.92)" style="stroke: rgb(68, 68, 68); stroke-opacity: 1; stroke-width: 1px;"/><g class="ytick"><text text-anchor="end" x="70.8" y="5.6" transform="translate(0,356.48)" style="font-family: 'Open Sans', verdana, arial, sans-serif; font-size: 16px; fill: rgb(36, 36, 36); fill-opacity: 1; white-space: pre; opacity: 1;">0.1</text></g><g class="ytick"><text text-anchor="end" x="70.8" y="5.6" style="font-family: 'Open Sans', verdana, arial, sans-serif; font-size: 16px; fill: rgb(36, 36, 36); fill-opacity: 1; white-space: pre; opacity: 1;" transform="translate(0,307.57)">0.2</text></g><g class="ytick"><text text-anchor="end" x="70.8" y="5.6" style="font-family: 'Open Sans', verdana, arial, sans-serif; font-size: 16px; fill: rgb(36, 36, 36); fill-opacity: 1; white-space: pre; opacity: 1;" transform="translate(0,258.65999999999997)">0.3</text></g><g class="ytick"><text text-anchor="end" x="70.8" y="5.6" style="font-family: 'Open Sans', verdana, arial, sans-serif; font-size: 16px; fill: rgb(36, 36, 36); fill-opacity: 1; white-space: pre; opacity: 1;" transform="translate(0,209.74)">0.4</text></g><g class="ytick"><text text-anchor="end" x="70.8" y="5.6" style="font-family: 'Open Sans', verdana, arial, sans-serif; font-size: 16px; fill: rgb(36, 36, 36); fill-opacity: 1; white-space: pre; opacity: 1;" transform="translate(0,160.82999999999998)">0.5</text></g><g class="ytick"><text text-anchor="end" x="70.8" y="5.6" style="font-family: 'Open Sans', verdana, arial, sans-serif; font-size: 16px; fill: rgb(36, 36, 36); fill-opacity: 1; white-space: pre; opacity: 1;" transform="translate(0,111.92)">0.6</text></g></g><g class="overaxes-above"/></g><g class="subplot x2y2"><g class="layer-subplot"><g class="shapelayer"/><g class="imagelayer"/></g><g class="minor-gridlayer"><g class="x2"/><g class="y2"/></g><g class="gridlayer"><g class="x2"/><g class="y2"/></g><g class="zerolinelayer"/><g class="layer-between"><g class="shapelayer"/><g class="imagelayer"/></g><path class="xlines-below"/><path class="ylines-below"/><g class="overlines-below"/><g class="xaxislayer-below"/><g class="yaxislayer-below"/><g class="overaxes-below"/><g class="overplot"><g class="x2y2" transform="translate(591.175,90)" clip-path="url(#clip3fcafbx2y2plot)"><g class="scatterlayer mlayer"><g class="trace scatter tracecec0e4" style="stroke-miterlimit: 2; opacity: 1;"><g class="fills"/><g class="errorbars"/><g class="lines"/><g class="points"><path class="point plotly-customdata" transform="translate(69.81,46.04)" d="M4.5,0A4.5,4.5 0 1,1 0,-4.5A4.5,4.5 0 0,1 4.5,0Z" style="opacity: 0.8; stroke-width: 0px; fill: rgb(68, 52, 126); fill-opacity: 1;"/><path class="point plotly-customdata" transform="translate(59.05,60.87)" d="M4.5,0A4.5,4.5 0 1,1 0,-4.5A4.5,4.5 0 0,1 4.5,0Z" style="opacity: 0.8; stroke-width: 0px; fill: rgb(68, 52, 126); fill-opacity: 1;"/><path class="point plotly-customdata" transform="translate(67.69,66.01)" d="M4.5,0A4.5,4.5 0 1,1 0,-4.5A4.5,4.5 0 0,1 4.5,0Z" style="opacity: 0.8; stroke-width: 0px; fill: rgb(68, 52, 126); fill-opacity: 1;"/><path class="point plotly-customdata" transform="translate(68.62,60.97)" d="M4.5,0A4.5,4.5 0 1,1 0,-4.5A4.5,4.5 0 0,1 4.5,0Z" style="opacity: 0.8; stroke-width: 0px; fill: rgb(68, 52, 126); fill-opacity: 1;"/><path class="point plotly-customdata" transform="translate(26.92,85.22)" d="M4.5,0A4.5,4.5 0 1,1 0,-4.5A4.5,4.5 0 0,1 4.5,0Z" style="opacity: 0.8; stroke-width: 0px; fill: rgb(68, 52, 126); fill-opacity: 1;"/><path class="point plotly-customdata" transform="translate(30.73,21.65)" d="M4.5,0A4.5,4.5 0 1,1 0,-4.5A4.5,4.5 0 0,1 4.5,0Z" style="opacity: 0.8; stroke-width: 0px; fill: rgb(68, 52, 126); fill-opacity: 1;"/><path class="point plotly-customdata" transform="translate(53.94,36.16)" d="M4.5,0A4.5,4.5 0 1,1 0,-4.5A4.5,4.5 0 0,1 4.5,0Z" style="opacity: 0.8; stroke-width: 0px; fill: rgb(68, 52, 126); fill-opacity: 1;"/><path class="point plotly-customdata" transform="translate(62.6,79.7)" d="M4.5,0A4.5,4.5 0 1,1 0,-4.5A4.5,4.5 0 0,1 4.5,0Z" style="opacity: 0.8; stroke-width: 0px; fill: rgb(68, 52, 126); fill-opacity: 1;"/><path class="point plotly-customdata" transform="translate(43.62,106.09)" d="M4.5,0A4.5,4.5 0 1,1 0,-4.5A4.5,4.5 0 0,1 4.5,0Z" style="opacity: 0.8; stroke-width: 0px; fill: rgb(68, 52, 126); fill-opacity: 1;"/><path class="point plotly-customdata" transform="translate(61.25,115.86)" d="M4.5,0A4.5,4.5 0 1,1 0,-4.5A4.5,4.5 0 0,1 4.5,0Z" style="opacity: 0.8; stroke-width: 0px; fill: rgb(68, 52, 126); fill-opacity: 1;"/></g><g class="text"/></g><g class="trace scatter trace797b87" style="stroke-miterlimit: 2; opacity: 1;"><g class="fills"/><g class="errorbars"/><g class="lines"/><g class="points"><path class="point plotly-customdata" transform="translate(72.82,40.49)" d="M4.5,0A4.5,4.5 0 1,1 0,-4.5A4.5,4.5 0 0,1 4.5,0Z" style="opacity: 0.8; stroke-width: 0px; fill: rgb(47, 108, 142); fill-opacity: 1;"/><path class="point plotly-customdata" transform="translate(67.81,79.92)" d="M4.5,0A4.5,4.5 0 1,1 0,-4.5A4.5,4.5 0 0,1 4.5,0Z" style="opacity: 0.8; stroke-width: 0px; fill: rgb(47, 108, 142); fill-opacity: 1;"/><path class="point plotly-customdata" transform="translate(91.12,94.2)" d="M4.5,0A4.5,4.5 0 1,1 0,-4.5A4.5,4.5 0 0,1 4.5,0Z" style="opacity: 0.8; stroke-width: 0px; fill: rgb(47, 108, 142); fill-opacity: 1;"/><path class="point plotly-customdata" transform="translate(80.35,69.96)" d="M4.5,0A4.5,4.5 0 1,1 0,-4.5A4.5,4.5 0 0,1 4.5,0Z" style="opacity: 0.8; stroke-width: 0px; fill: rgb(47, 108, 142); fill-opacity: 1;"/><path class="point plotly-customdata" transform="translate(32.93,89.02)" d="M4.5,0A4.5,4.5 0 1,1 0,-4.5A4.5,4.5 0 0,1 4.5,0Z" style="opacity: 0.8; stroke-width: 0px; fill: rgb(47, 108, 142); fill-opacity: 1;"/><path class="point plotly-customdata" transform="translate(49.81,41.09)" d="M4.5,0A4.5,4.5 0 1,1 0,-4.5A4.5,4.5 0 0,1 4.5,0Z" style="opacity: 0.8; stroke-width: 0px; fill: rgb(47, 108, 142); fill-opacity: 1;"/><path class="point plotly-customdata" transform="translate(124.63,72.8)" d="M4.5,0A4.5,4.5 0 1,1 0,-4.5A4.5,4.5 0 0,1 4.5,0Z" style="opacity: 0.8; stroke-width: 0px; fill: rgb(47, 108, 142); fill-opacity: 1;"/><path class="point plotly-customdata" transform="translate(72.93,81.29)" d="M4.5,0A4.5,4.5 0 1,1 0,-4.5A4.5,4.5 0 0,1 4.5,0Z" style="opacity: 0.8; stroke-width: 0px; fill: rgb(47, 108, 142); fill-opacity: 1;"/><path class="point plotly-customdata" transform="translate(58.96,127.86)" d="M4.5,0A4.5,4.5 0 1,1 0,-4.5A4.5,4.5 0 0,1 4.5,0Z" style="opacity: 0.8; stroke-width: 0px; fill: rgb(47, 108, 142); fill-opacity: 1;"/><path class="point plotly-customdata" transform="translate(89.87,106.98)" d="M4.5,0A4.5,4.5 0 1,1 0,-4.5A4.5,4.5 0 0,1 4.5,0Z" style="opacity: 0.8; stroke-width: 0px; fill: rgb(47, 108, 142); fill-opacity: 1;"/></g><g class="text"/></g><g class="trace scatter trace2dd372" style="stroke-miterlimit: 2; opacity: 1;"><g class="fills"/><g class="errorbars"/><g class="lines"/><g class="points"><path class="point plotly-customdata" transform="translate(160.42,95.36)" d="M4.5,0A4.5,4.5 0 1,1 0,-4.5A4.5,4.5 0 0,1 4.5,0Z" style="opacity: 0.8; stroke-width: 0px; fill: rgb(31, 157, 137); fill-opacity: 1;"/><path class="point plotly-customdata" transform="translate(137.97,87.13)" d="M4.5,0A4.5,4.5 0 1,1 0,-4.5A4.5,4.5 0 0,1 4.5,0Z" style="opacity: 0.8; stroke-width: 0px; fill: rgb(31, 157, 137); fill-opacity: 1;"/><path class="point plotly-customdata" transform="translate(186.24,67.41)" d="M4.5,0A4.5,4.5 0 1,1 0,-4.5A4.5,4.5 0 0,1 4.5,0Z" style="opacity: 0.8; stroke-width: 0px; fill: rgb(31, 157, 137); fill-opacity: 1;"/><path class="point plotly-customdata" transform="translate(168.66,45.14)" d="M4.5,0A4.5,4.5 0 1,1 0,-4.5A4.5,4.5 0 0,1 4.5,0Z" style="opacity: 0.8; stroke-width: 0px; fill: rgb(31, 157, 137); fill-opacity: 1;"/><path class="point plotly-customdata" transform="translate(77.93,138.57)" d="M4.5,0A4.5,4.5 0 1,1 0,-4.5A4.5,4.5 0 0,1 4.5,0Z" style="opacity: 0.8; stroke-width: 0px; fill: rgb(31, 157, 137); fill-opacity: 1;"/><path class="point plotly-customdata" transform="translate(68.48,86.26)" d="M4.5,0A4.5,4.5 0 1,1 0,-4.5A4.5,4.5 0 0,1 4.5,0Z" style="opacity: 0.8; stroke-width: 0px; fill: rgb(31, 157, 137); fill-opacity: 1;"/><path class="point plotly-customdata" transform="translate(143.24,93.31)" d="M4.5,0A4.5,4.5 0 1,1 0,-4.5A4.5,4.5 0 0,1 4.5,0Z" style="opacity: 0.8; stroke-width: 0px; fill: rgb(31, 157, 137); fill-opacity: 1;"/><path class="point plotly-customdata" transform="translate(133.57,93.36)" d="M4.5,0A4.5,4.5 0 1,1 0,-4.5A4.5,4.5 0 0,1 4.5,0Z" style="opacity: 0.8; stroke-width: 0px; fill: rgb(31, 157, 137); fill-opacity: 1;"/><path class="point plotly-customdata" transform="translate(133.32,143.79)" d="M4.5,0A4.5,4.5 0 1,1 0,-4.5A4.5,4.5 0 0,1 4.5,0Z" style="opacity: 0.8; stroke-width: 0px; fill: rgb(31, 157, 137); fill-opacity: 1;"/><path class="point plotly-customdata" transform="translate(143.16,158.23)" d="M4.5,0A4.5,4.5 0 1,1 0,-4.5A4.5,4.5 0 0,1 4.5,0Z" style="opacity: 0.8; stroke-width: 0px; fill: rgb(31, 157, 137); fill-opacity: 1;"/></g><g class="text"/></g><g class="trace scatter trace225110" style="stroke-miterlimit: 2; opacity: 1;"><g class="fills"/><g class="errorbars"/><g class="lines"/><g class="points"><path class="point plotly-customdata" transform="translate(226.95,128.48)" d="M4.5,0A4.5,4.5 0 1,1 0,-4.5A4.5,4.5 0 0,1 4.5,0Z" style="opacity: 0.8; stroke-width: 0px; fill: rgb(96, 200, 96); fill-opacity: 1;"/><path class="point plotly-customdata" transform="translate(223.57,126.3)" d="M4.5,0A4.5,4.5 0 1,1 0,-4.5A4.5,4.5 0 0,1 4.5,0Z" style="opacity: 0.8; stroke-width: 0px; fill: rgb(96, 200, 96); fill-opacity: 1;"/><path class="point plotly-customdata" transform="translate(350.91,91.87)" d="M4.5,0A4.5,4.5 0 1,1 0,-4.5A4.5,4.5 0 0,1 4.5,0Z" style="opacity: 0.8; stroke-width: 0px; fill: rgb(96, 200, 96); fill-opacity: 1;"/><path class="point plotly-customdata" transform="translate(317.12,125.75)" d="M4.5,0A4.5,4.5 0 1,1 0,-4.5A4.5,4.5 0 0,1 4.5,0Z" style="opacity: 0.8; stroke-width: 0px; fill: rgb(96, 200, 96); fill-opacity: 1;"/><path class="point plotly-customdata" transform="translate(111.81,165.67)" d="M4.5,0A4.5,4.5 0 1,1 0,-4.5A4.5,4.5 0 0,1 4.5,0Z" style="opacity: 0.8; stroke-width: 0px; fill: rgb(96, 200, 96); fill-opacity: 1;"/><path class="point plotly-customdata" transform="translate(139.21,185.07)" d="M4.5,0A4.5,4.5 0 1,1 0,-4.5A4.5,4.5 0 0,1 4.5,0Z" style="opacity: 0.8; stroke-width: 0px; fill: rgb(96, 200, 96); fill-opacity: 1;"/><path class="point plotly-customdata" transform="translate(301.96,108.06)" d="M4.5,0A4.5,4.5 0 1,1 0,-4.5A4.5,4.5 0 0,1 4.5,0Z" style="opacity: 0.8; stroke-width: 0px; fill: rgb(96, 200, 96); fill-opacity: 1;"/><path class="point plotly-customdata" transform="translate(171.02,127.42)" d="M4.5,0A4.5,4.5 0 1,1 0,-4.5A4.5,4.5 0 0,1 4.5,0Z" style="opacity: 0.8; stroke-width: 0px; fill: rgb(96, 200, 96); fill-opacity: 1;"/><path class="point plotly-customdata" transform="translate(248.88,174.48)" d="M4.5,0A4.5,4.5 0 1,1 0,-4.5A4.5,4.5 0 0,1 4.5,0Z" style="opacity: 0.8; stroke-width: 0px; fill: rgb(96, 200, 96); fill-opacity: 1;"/><path class="point plotly-customdata" transform="translate(246.26,140.19)" d="M4.5,0A4.5,4.5 0 1,1 0,-4.5A4.5,4.5 0 0,1 4.5,0Z" style="opacity: 0.8; stroke-width: 0px; fill: rgb(96, 200, 96); fill-opacity: 1;"/></g><g class="text"/></g></g></g></g><path class="xlines-above crisp" d="M590.175,380.5H969" style="fill: none; stroke-width: 1px; stroke: rgb(36, 36, 36); stroke-opacity: 1;"/><path class="ylines-above crisp" d="M590.675,90V380" style="fill: none; stroke-width: 1px; stroke: rgb(36, 36, 36); stroke-opacity: 1;"/><g class="overlines-above"/><g class="xaxislayer-above"><path class="x2tick ticks crisp" d="M0,381v5" transform="translate(608.935,0)" style="stroke: rgb(68, 68, 68); stroke-opacity: 1; stroke-width: 1px;"/><path class="x2tick ticks crisp" d="M0,381v5" transform="translate(675.515,0)" style="stroke: rgb(68, 68, 68); stroke-opacity: 1; stroke-width: 1px;"/><path class="x2tick ticks crisp" d="M0,381v5" transform="translate(742.0949999999999,0)" style="stroke: rgb(68, 68, 68); stroke-opacity: 1; stroke-width: 1px;"/><path class="x2tick ticks crisp" d="M0,381v5" transform="translate(808.675,0)" style="stroke: rgb(68, 68, 68); stroke-opacity: 1; stroke-width: 1px;"/><path class="x2tick ticks crisp" d="M0,381v5" transform="translate(875.2549999999999,0)" style="stroke: rgb(68, 68, 68); stroke-opacity: 1; stroke-width: 1px;"/><path class="x2tick ticks crisp" d="M0,381v5" transform="translate(941.835,0)" style="stroke: rgb(68, 68, 68); stroke-opacity: 1; stroke-width: 1px;"/><g class="x2tick"><text text-anchor="middle" x="0" y="405.2" transform="translate(608.935,0)" style="font-family: 'Open Sans', verdana, arial, sans-serif; font-size: 16px; fill: rgb(36, 36, 36); fill-opacity: 1; white-space: pre; opacity: 1;">0.1</text></g><g class="x2tick"><text text-anchor="middle" x="0" y="405.2" style="font-family: 'Open Sans', verdana, arial, sans-serif; font-size: 16px; fill: rgb(36, 36, 36); fill-opacity: 1; white-space: pre; opacity: 1;" transform="translate(675.515,0)">0.2</text></g><g class="x2tick"><text text-anchor="middle" x="0" y="405.2" style="font-family: 'Open Sans', verdana, arial, sans-serif; font-size: 16px; fill: rgb(36, 36, 36); fill-opacity: 1; white-space: pre; opacity: 1;" transform="translate(742.0949999999999,0)">0.3</text></g><g class="x2tick"><text text-anchor="middle" x="0" y="405.2" style="font-family: 'Open Sans', verdana, arial, sans-serif; font-size: 16px; fill: rgb(36, 36, 36); fill-opacity: 1; white-space: pre; opacity: 1;" transform="translate(808.675,0)">0.4</text></g><g class="x2tick"><text text-anchor="middle" x="0" y="405.2" style="font-family: 'Open Sans', verdana, arial, sans-serif; font-size: 16px; fill: rgb(36, 36, 36); fill-opacity: 1; white-space: pre; opacity: 1;" transform="translate(875.2549999999999,0)">0.5</text></g><g class="x2tick"><text text-anchor="middle" x="0" y="405.2" style="font-family: 'Open Sans', verdana, arial, sans-serif; font-size: 16px; fill: rgb(36, 36, 36); fill-opacity: 1; white-space: pre; opacity: 1;" transform="translate(941.835,0)">0.6</text></g></g><g class="yaxislayer-above"><path class="y2tick ticks crisp" d="M590.175,0h-5" transform="translate(0,310.93)" style="stroke: rgb(68, 68, 68); stroke-opacity: 1; stroke-width: 1px;"/><path class="y2tick ticks crisp" d="M590.175,0h-5" transform="translate(0,235)" style="stroke: rgb(68, 68, 68); stroke-opacity: 1; stroke-width: 1px;"/><path class="y2tick ticks crisp" d="M590.175,0h-5" transform="translate(0,159.07)" style="stroke: rgb(68, 68, 68); stroke-opacity: 1; stroke-width: 1px;"/><g class="y2tick"><text text-anchor="end" x="581.9749999999999" y="5.6" transform="translate(0,310.93)" style="font-family: 'Open Sans', verdana, arial, sans-serif; font-size: 16px; fill: rgb(36, 36, 36); fill-opacity: 1; white-space: pre; opacity: 1;">−0.05</text></g><g class="y2tick"><text text-anchor="end" x="581.9749999999999" y="5.6" style="font-family: 'Open Sans', verdana, arial, sans-serif; font-size: 16px; fill: rgb(36, 36, 36); fill-opacity: 1; white-space: pre; opacity: 1;" transform="translate(0,235)">0</text></g><g class="y2tick"><text text-anchor="end" x="581.9749999999999" y="5.6" style="font-family: 'Open Sans', verdana, arial, sans-serif; font-size: 16px; fill: rgb(36, 36, 36); fill-opacity: 1; white-space: pre; opacity: 1;" transform="translate(0,159.07)">0.05</text></g></g><g class="overaxes-above"/></g></g><g class="polarlayer"/><g class="smithlayer"/><g class="ternarylayer"/><g class="geolayer"/><g class="funnelarealayer"/><g class="pielayer"/><g class="iciclelayer"/><g class="treemaplayer"/><g class="sunburstlayer"/><g class="glimages"/><defs id="topdefs-3fcafb"><g class="clips"/><clipPath id="legend3fcafb"><rect width="201" height="105" x="0" y="0"/></clipPath></defs><g class="layer-above"><g class="imagelayer"/><g class="shapelayer"><g class="shape-group" data-index="0" clip-path="url(#clip3fcafbx2y2)"><path data-index="0" fill-rule="evenodd" d="M592.175,186.6L968.0049999999999,186.6" style="opacity: 0.3; stroke: rgb(0, 0, 0); stroke-opacity: 1; fill: rgb(0, 0, 0); fill-opacity: 1; stroke-dasharray: 9px, 9px; stroke-width: 2px;"/></g><g class="shape-group" data-index="1" clip-path="url(#clip3fcafbx2y2)"><path data-index="1" fill-rule="evenodd" d="M592.175,108.91L968.0049999999999,108.91" style="opacity: 0.3; stroke: rgb(0, 0, 0); stroke-opacity: 1; fill: rgb(0, 0, 0); fill-opacity: 1; stroke-dasharray: 3px, 3px; stroke-width: 1.5px;"/></g><g class="shape-group" data-index="2" clip-path="url(#clip3fcafbx2y2)"><path data-index="2" fill-rule="evenodd" d="M592.175,264.28999999999996L968.0049999999999,264.28999999999996" style="opacity: 0.3; stroke: rgb(0, 0, 0); stroke-opacity: 1; fill: rgb(0, 0, 0); fill-opacity: 1; stroke-dasharray: 3px, 3px; stroke-width: 1.5px;"/></g></g></g><g class="infolayer"><g class="legend" pointer-events="all" transform="translate(986.78,90)"><rect class="bg" shape-rendering="crispEdges" style="stroke: rgb(68, 68, 68); stroke-opacity: 1; fill: rgb(255, 255, 255); fill-opacity: 1; stroke-width: 0px;" width="201" height="105" x="0" y="0"/><g class="scrollbox" transform="" clip-path="url(#legend3fcafb)"><text class="legendtitletext" text-anchor="start" x="2" y="18.2" style="font-family: 'Open Sans', verdana, arial, sans-serif; font-size: 14px; fill: rgb(36, 36, 36); fill-opacity: 1; white-space: pre;">Condition</text><g class="groups"><g class="traces" transform="translate(0,32.7)" style="opacity: 1;"><text class="legendtext" text-anchor="start" x="40" y="4.680000000000001" style="font-family: 'Open Sans', verdana, arial, sans-serif; font-size: 12px; fill: rgb(36, 36, 36); fill-opacity: 1; white-space: pre;">Eyes Open/Solid Ground</text><g class="layers" style="opacity: 1;"><g class="legendfill"/><g class="legendlines"/><g class="legendsymbols"><g class="legendpoints"><path class="scatterpts" transform="translate(20,0)" d="M4.5,0A4.5,4.5 0 1,1 0,-4.5A4.5,4.5 0 0,1 4.5,0Z" style="opacity: 0.8; stroke-width: 0px; fill: rgb(68, 52, 126); fill-opacity: 1;"/></g></g></g><rect class="legendtoggle" x="0" y="-9.5" width="195.625" height="19" style="fill: rgb(0, 0, 0); fill-opacity: 0;"/></g><g class="traces" transform="translate(0,51.7)" style="opacity: 1;"><text class="legendtext" text-anchor="start" x="40" y="4.680000000000001" style="font-family: 'Open Sans', verdana, arial, sans-serif; font-size: 12px; fill: rgb(36, 36, 36); fill-opacity: 1; white-space: pre;">Eyes Closed/Solid Ground</text><g class="layers" style="opacity: 1;"><g class="legendfill"/><g class="legendlines"/><g class="legendsymbols"><g class="legendpoints"><path class="scatterpts" transform="translate(20,0)" d="M4.5,0A4.5,4.5 0 1,1 0,-4.5A4.5,4.5 0 0,1 4.5,0Z" style="opacity: 0.8; stroke-width: 0px; fill: rgb(47, 108, 142); fill-opacity: 1;"/></g></g></g><rect class="legendtoggle" x="0" y="-9.5" width="195.625" height="19" style="fill: rgb(0, 0, 0); fill-opacity: 0;"/></g><g class="traces" transform="translate(0,70.7)" style="opacity: 1;"><text class="legendtext" text-anchor="start" x="40" y="4.680000000000001" style="font-family: 'Open Sans', verdana, arial, sans-serif; font-size: 12px; fill: rgb(36, 36, 36); fill-opacity: 1; white-space: pre;">Eyes Open/Foam</text><g class="layers" style="opacity: 1;"><g class="legendfill"/><g class="legendlines"/><g class="legendsymbols"><g class="legendpoints"><path class="scatterpts" transform="translate(20,0)" d="M4.5,0A4.5,4.5 0 1,1 0,-4.5A4.5,4.5 0 0,1 4.5,0Z" style="opacity: 0.8; stroke-width: 0px; fill: rgb(31, 157, 137); fill-opacity: 1;"/></g></g></g><rect class="legendtoggle" x="0" y="-9.5" width="195.625" height="19" style="fill: rgb(0, 0, 0); fill-opacity: 0;"/></g><g class="traces" transform="translate(0,89.7)" style="opacity: 1;"><text class="legendtext" text-anchor="start" x="40" y="4.680000000000001" style="font-family: 'Open Sans', verdana, arial, sans-serif; font-size: 12px; fill: rgb(36, 36, 36); fill-opacity: 1; white-space: pre;">Eyes Closed/Foam</text><g class="layers" style="opacity: 1;"><g class="legendfill"/><g class="legendlines"/><g class="legendsymbols"><g class="legendpoints"><path class="scatterpts" transform="translate(20,0)" d="M4.5,0A4.5,4.5 0 1,1 0,-4.5A4.5,4.5 0 0,1 4.5,0Z" style="opacity: 0.8; stroke-width: 0px; fill: rgb(96, 200, 96); fill-opacity: 1;"/></g></g></g><rect class="legendtoggle" x="0" y="-9.5" width="195.625" height="19" style="fill: rgb(0, 0, 0); fill-opacity: 0;"/></g></g></g><rect class="scrollbar" rx="20" ry="3" width="0" height="0" style="fill: rgb(128, 139, 164); fill-opacity: 1;" x="0" y="0"/></g><g class="g-gtitle"/><g class="g-xtitle"><text class="xtitle" x="268.9125" y="436.703125" text-anchor="middle" style="opacity: 1; font-family: Arial; font-size: 20px; fill: rgb(36, 36, 36); fill-opacity: 1; white-space: pre;"><tspan style="font-weight:bold">FMC-MediaPipe path length (mm)</tspan></text></g><g class="g-x2title"><text class="x2title" x="780.0875" y="436.703125" text-anchor="middle" style="opacity: 1; font-family: Arial; font-size: 20px; fill: rgb(36, 36, 36); fill-opacity: 1; white-space: pre;"><tspan style="font-weight:bold">Mean of systems (mm)</tspan></text></g><g class="g-ytitle"><text class="ytitle" transform="rotate(-90,23.125,235)" x="23.125" y="235" text-anchor="middle" style="opacity: 1; font-family: Arial; font-size: 20px; fill: rgb(36, 36, 36); fill-opacity: 1; white-space: pre;"><tspan style="font-weight:bold">Reference path length (mm)</tspan></text></g><g class="g-y2title"><text class="y2title" transform="rotate(-90,511.03125,235)" x="511.03125" y="235" text-anchor="middle" style="opacity: 1; font-family: Arial; font-size: 20px; fill: rgb(36, 36, 36); fill-opacity: 1; white-space: pre;"><tspan style="font-weight:bold">Difference between systems (mm)</tspan></text></g><g class="annotation" data-index="0" style="opacity: 1;"><g class="annotation-text-g" transform="rotate(0,348.93375,338.5)"><g class="cursor-pointer" transform="translate(259,312)"><rect class="bg" x="0.5" y="0.5" width="179" height="53" style="stroke-width: 1px; stroke: rgb(0, 0, 0); stroke-opacity: 0; fill: rgb(0, 0, 0); fill-opacity: 0;"/><text class="annotation-text" text-anchor="middle" x="89.890625" y="22" style="font-family: 'Open Sans', verdana, arial, sans-serif; font-size: 20px; fill: rgb(36, 36, 36); fill-opacity: 1; white-space: pre;"><tspan class="line" dy="0em" x="89.890625" y="22">ICC(2,1) = 0.948</tspan><tspan class="line" dy="1.3em" x="89.890625" y="22">slope = 0.90</tspan></text></g></g></g></g></svg>