<svg class="main-svg" xmlns="http://www.w3.org/2000/svg" xmlns:xlink="http://www.w3.org/1999/xlink" width="3000" height="1200" style="" viewBox="0 0 1000 400"><rect x="0" y="0" width="1000" height="400" style="fill: rgb(255, 255, 255); fill-opacity: 1;"/><defs id="defs-9cd398"><g class="clips"><clipPath id="clip9cd398xyplot" class="plotclip"><rect width="231.11111111111114" height="245"/></clipPath><clipPath id="clip9cd398x2y2plot" class="plotclip"><rect width="231.11111111111114" height="245"/></clipPath><clipPath id="clip9cd398x3y3plot" class="plotclip"><rect width="231.1111111111111" height="245"/></clipPath><clipPath class="axesclip" id="clip9cd398x"><rect x="120" y="0" width="231.11111111111114" height="400"/></clipPath><clipPath class="axesclip" id="clip9cd398y"><rect x="0" y="60" width="1000" height="245"/></clipPath><clipPath class="axesclip" id="clip9cd398xy"><rect x="120" y="60" width="231.11111111111114" height="245"/></clipPath><clipPath class="axesclip" id="clip9cd398y2"><rect x="0" y="60" width="1000" height="245"/></clipPath><clipPath class="axesclip" id="clip9cd398xy2"><rect x="120" y="60" width="231.11111111111114" height="245"/></clipPath><clipPath class="axesclip" id="clip9cd398y3"><rect x="0" y="60" width="1000" height="245"/></clipPath><clipPath class="axesclip" id="clip9cd398xy3"><rect x="120" y="60" width="231.11111111111114" height="245"/></clipPath><clipPath class="axesclip" id="clip9cd398x2"><rect x="404.44444444444446" y="0" width="231.11111111111114" height="400"/></clipPath><clipPath class="axesclip" id="clip9cd398x2y"><rect x="404.44444444444446" y="60" width="231.11111111111114" height="245"/></clipPath><clipPath class="axesclip" id="clip9cd398x2y2"><rect x="404.44444444444446" y="60" width="231.11111111111114" height="245"/></clipPath><clipPath class="axesclip" id="clip9cd398x2y3"><rect x="404.44444444444446" y="60" width="231.11111111111114" height="245"/></clipPath><clipPath class="axesclip" id="clip9cd398x3"><rect x="688.8888888888889" y="0" width="231.1111111111111" height="400"/></clipPath><clipPath class="axesclip" id="clip9cd398x3y"><rect x="688.8888888888889" y="60" width="231.1111111111111" height="245"/></clipPath><clipPath class="axesclip" id="clip9cd398x3y2"><rect x="688.8888888888889" y="60" width="231.1111111111111" height="245"/></clipPath><clipPath class="axesclip" id="clip9cd398x3y3"><rect x="688.8888888888889" y="60" width="231.1111111111111" height="245"/></clipPath></g><g class="gradients"/><g class="patterns"/></defs><g class="bglayer"/><g class="layer-below"><g class="imagelayer"/><g class="shapelayer"/></g><g class="cartesianlayer"><g class="subplot xy"><g class="layer-subplot"><g class="shapelayer"/><g class="imagelayer"/></g><g class="minor-gridlayer"><g class="x"/><g class="y"/></g><g class="gridlayer"><g class="x"/><g class="y"/></g><g class="zerolinelayer"/><g class="layer-between"><g class="shapelayer"/><g class="imagelayer"/></g><path class="xlines-below"/><path class="ylines-below"/><g class="overlines-below"/><g class="xaxislayer-below"/><g class="yaxislayer-below"/><g class="overaxes-below"/><g class="overplot"><g class="xy" transform="translate(120,60)" clip-path="url(#clip9cd398xyplot)"><g class="scatterlayer mlayer"><g class="trace scatter traced31a53" style="stroke-miterlimit: 2; opacity: 0.7;"><g class="fills"/><g class="errorbars"/><g class="lines"><path class="js-line" d="M4.25,228.62L224.75,53.28" style="vector-effect: none; fill: none; stroke: rgb(255, 0, 0); stroke-opacity: 1; stroke-width: 1.5px; opacity: 1;"/></g><g class="points"/><g class="text"/></g><g class="trace scatter traceee0c90" style="stroke-miterlimit: 2; opacity: 1;"><g class="fills"/><g class="errorbars"/><g class="lines"><path class="js-line" d="M4.25,232.75L224.75,12.25" style="vector-effect: none; fill: none; stroke: rgb(0, 0, 0); stroke-opacity: 1; stroke-dasharray: 9px, 9px; stroke-width: 2px; opacity: 1;"/></g><g class="points"/><g class="text"/></g><g class="trace scatter traceafe433" style="stroke-miterlimit: 2; opacity: 1;"><g class="fills"/><g class="errorbars"/><g class="lines"/><g class="points"><path class="point" transform="translate(38.19,193.35)" d="M4.5,0A4.5,4.5 0 1,1 0,-4.5A4.5,4.5 0 0,1 4.5,0Z" style="opacity: 0.7; stroke-width: 0px; fill: rgb(31, 119, 180); fill-opacity: 1;"/><path class="point" transform="translate(63.2,192.56)" d="M4.5,0A4.5,4.5 0 1,1 0,-4.5A4.5,4.5 0 0,1 4.5,0Z" style="opacity: 0.7; stroke-width: 0px; fill: rgb(31, 119, 180); fill-opacity: 1;"/><path class="point" transform="translate(100.64,164.12)" d="M4.5,0A4.5,4.5 0 1,1 0,-4.5A4.5,4.5 0 0,1 4.5,0Z" style="opacity: 0.7; stroke-width: 0px; fill: rgb(31, 119, 180); fill-opacity: 1;"/><path class="point" transform="translate(64.93,180.91)" d="M4.5,0A4.5,4.5 0 1,1 0,-4.5A4.5,4.5 0 0,1 4.5,0Z" style="opacity: 0.7; stroke-width: 0px; fill: rgb(31, 119, 180); fill-opacity: 1;"/><path class="point" transform="translate(49.53,191.21)" d="M4.5,0A4.5,4.5 0 1,1 0,-4.5A4.5,4.5 0 0,1 4.5,0Z" style="opacity: 0.7; stroke-width: 0px; fill: rgb(31, 119, 180); fill-opacity: 1;"/><path class="point" transform="translate(86.56,169.58)" d="M4.5,0A4.5,4.5 0 1,1 0,-4.5A4.5,4.5 0 0,1 4.5,0Z" style="opacity: 0.7; stroke-width: 0px; fill: rgb(31, 119, 180); fill-opacity: 1;"/><path class="point" transform="translate(210.93,62.14)" d="M4.5,0A4.5,4.5 0 1,1 0,-4.5A4.5,4.5 0 0,1 4.5,0Z" style="opacity: 0.7; stroke-width: 0px; fill: rgb(31, 119, 180); fill-opacity: 1;"/><path class="point" transform="translate(58.14,180.43)" d="M4.5,0A4.5,4.5 0 1,1 0,-4.5A4.5,4.5 0 0,1 4.5,0Z" style="opacity: 0.7; stroke-width: 0px; fill: rgb(31, 119, 180); fill-opacity: 1;"/><path class="point" transform="translate(79.33,179.11)" d="M4.5,0A4.5,4.5 0 1,1 0,-4.5A4.5,4.5 0 0,1 4.5,0Z" style="opacity: 0.7; stroke-width: 0px; fill: rgb(31, 119, 180); fill-opacity: 1;"/><path class="point" transform="translate(94.04,134.22)" d="M4.5,0A4.5,4.5 0 1,1 0,-4.5A4.5,4.5 0 0,1 4.5,0Z" style="opacity: 0.7; stroke-width: 0px; fill: rgb(31, 119, 180); fill-opacity: 1;"/></g><g class="text"/></g></g></g></g><path class="xlines-above crisp" d="M119,305.5H351.11111111111114" style="fill: none; stroke-width: 1px; stroke: rgb(36, 36, 36); stroke-opacity: 1;"/><path class="ylines-above crisp" d="M119.5,60V305" style="fill: none; stroke-width: 1px; stroke: rgb(36, 36, 36); stroke-opacity: 1;"/><g class="overlines-above"/><g class="xaxislayer-above"><path class="xtick ticks crisp" d="M0,306v5" transform="translate(154.15,0)" style="stroke: rgb(68, 68, 68); stroke-opacity: 1; stroke-width: 1px;"/><path class="xtick ticks crisp" d="M0,306v5" transform="translate(228.91,0)" style="stroke: rgb(68, 68, 68); stroke-opacity: 1; stroke-width: 1px;"/><path class="xtick ticks crisp" d="M0,306v5" transform="translate(303.66999999999996,0)" style="stroke: rgb(68, 68, 68); stroke-opacity: 1; stroke-width: 1px;"/><g class="xtick"><text text-anchor="middle" x="0" y="330.2" transform="translate(154.15,0)" style="font-family: Arial; font-size: 16px; fill: rgb(36, 36, 36); fill-opacity: 1; white-space: pre; opacity: 1;">0</text></g><g class="xtick"><text text-anchor="middle" x="0" y="330.2" style="font-family: Arial; font-size: 16px; fill: rgb(36, 36, 36); fill-opacity: 1; white-space: pre; opacity: 1;" transform="translate(228.91,0)">0.05</text></g><g class="xtick"><text text-anchor="middle" x="0" y="330.2" style="font-family: Arial; font-size: 16px; fill: rgb(36, 36, 36); fill-opacity: 1; white-space: pre; opacity: 1;" transform="translate(303.66999999999996,0)">0.1</text></g></g><g class="yaxislayer-above"><path class="ytick ticks crisp" d="M119,0h-5" transform="translate(0,262.85)" style="stroke: rgb(68, 68, 68); stroke-opacity: 1; stroke-width: 1px;"/><path class="ytick ticks crisp" d="M119,0h-5" transform="translate(0,188.09)" style="stroke: rgb(68, 68, 68); stroke-opacity: 1; stroke-width: 1px;"/><path class="ytick ticks crisp" d="M119,0h-5" transform="translate(0,113.33)" style="stroke: rgb(68, 68, 68); stroke-opacity: 1; stroke-width: 1px;"/><g class="ytick"><text text-anchor="end" x="110.8" y="5.6" transform="translate(0,262.85)" style="font-family: Arial; font-size: 16px; fill: rgb(36, 36, 36); fill-opacity: 1; white-space: pre; opacity: 1;">0</text></g><g class="ytick"><text text-anchor="end" x="110.8" y="5.6" style="font-family: Arial; font-size: 16px; fill: rgb(36, 36, 36); fill-opacity: 1; white-space: pre; opacity: 1;" transform="translate(0,188.09)">0.05</text></g><g class="ytick"><text text-anchor="end" x="110.8" y="5.6" style="font-family: Arial; font-size: 16px; fill: rgb(36, 36, 36); fill-opacity: 1; white-space: pre; opacity: 1;" transform="translate(0,113.33)">0.1</text></g></g><g class="overaxes-above"/></g><g class="subplot x2y2"><g class="layer-subplot"><g class="shapelayer"/><g class="imagelayer"/></g><g class="minor-gridlayer"><g class="x2"/><g class="y2"/></g><g class="gridlayer"><g class="x2"/><g class="y2"/></g><g class="zerolinelayer"/><g class="layer-between"><g class="shapelayer"/><g class="imagelayer"/></g><path class="xlines-below"/><path class="ylines-below"/><g class="overlines-below"/><g class="xaxislayer-below"/><g class="yaxislayer-below"/><g class="overaxes-below"/><g class="overplot"><g class="x2y2" transform="translate(404.44444444444446,60)" clip-path="url(#clip9cd398x2y2plot)"><g class="scatterlayer mlayer"><g class="trace scatter trace2a6d11" style="stroke-miterlimit: 2; opacity: 0.7;"><g class="fills"/><g class="errorbars"/><g class="lines"><path class="js-line" d="M28.19,232.75L199.47,17.82" style="vector-effect: none; fill: none; stroke: rgb(255, 0, 0); stroke-opacity: 1; stroke-width: 1.5px; opacity: 1;"/></g><g class="points"/><g class="text"/></g><g class="trace scatter tracedee839" style="stroke-miterlimit: 2; opacity: 1;"><g class="fills"/><g class="errorbars"/><g class="lines"><path class="js-line" d="M28.19,183.53L199.47,12.25" style="vector-effect: none; fill: none; stroke: rgb(0, 0, 0); stroke-opacity: 1; stroke-dasharray: 9px, 9px; stroke-width: 2px; opacity: 1;"/></g><g class="points"/><g class="text"/></g><g class="trace scatter trace83f44f" style="stroke-miterlimit: 2; opacity: 1;"><g class="fills"/><g class="errorbars"/><g class="lines"/><g class="points"><path class="point" transform="translate(169.74,67.64)" d="M4.5,0A4.5,4.5 0 1,1 0,-4.5A4.5,4.5 0 0,1 4.5,0Z" style="opacity: 0.7; stroke-width: 0px; fill: rgb(31, 119, 180); fill-opacity: 1;"/><path class="point" transform="translate(149.85,75.53)" d="M4.5,0A4.5,4.5 0 1,1 0,-4.5A4.5,4.5 0 0,1 4.5,0Z" style="opacity: 0.7; stroke-width: 0px; fill: rgb(31, 119, 180); fill-opacity: 1;"/><path class="point" transform="translate(190.42,22.03)" d="M4.5,0A4.5,4.5 0 1,1 0,-4.5A4.5,4.5 0 0,1 4.5,0Z" style="opacity: 0.7; stroke-width: 0px; fill: rgb(31, 119, 180); fill-opacity: 1;"/><path class="point" transform="translate(163.98,39.5)" d="M4.5,0A4.5,4.5 0 1,1 0,-4.5A4.5,4.5 0 0,1 4.5,0Z" style="opacity: 0.7; stroke-width: 0px; fill: rgb(31, 119, 180); fill-opacity: 1;"/><path class="point" transform="translate(123.78,115.7)" d="M4.5,0A4.5,4.5 0 1,1 0,-4.5A4.5,4.5 0 0,1 4.5,0Z" style="opacity: 0.7; stroke-width: 0px; fill: rgb(31, 119, 180); fill-opacity: 1;"/><path class="point" transform="translate(110.96,134.38)" d="M4.5,0A4.5,4.5 0 1,1 0,-4.5A4.5,4.5 0 0,1 4.5,0Z" style="opacity: 0.7; stroke-width: 0px; fill: rgb(31, 119, 180); fill-opacity: 1;"/><path class="point" transform="translate(170.21,71.24)" d="M4.5,0A4.5,4.5 0 1,1 0,-4.5A4.5,4.5 0 0,1 4.5,0Z" style="opacity: 0.7; stroke-width: 0px; fill: rgb(31, 119, 180); fill-opacity: 1;"/><path class="point" transform="translate(137.14,81.68)" d="M4.5,0A4.5,4.5 0 1,1 0,-4.5A4.5,4.5 0 0,1 4.5,0Z" style="opacity: 0.7; stroke-width: 0px; fill: rgb(31, 119, 180); fill-opacity: 1;"/><path class="point" transform="translate(165.63,65.71)" d="M4.5,0A4.5,4.5 0 1,1 0,-4.5A4.5,4.5 0 0,1 4.5,0Z" style="opacity: 0.7; stroke-width: 0px; fill: rgb(31, 119, 180); fill-opacity: 1;"/><path class="point" transform="translate(157.59,76.18)" d="M4.5,0A4.5,4.5 0 1,1 0,-4.5A4.5,4.5 0 0,1 4.5,0Z" style="opacity: 0.7; stroke-width: 0px; fill: rgb(31, 119, 180); fill-opacity: 1;"/></g><g class="text"/></g></g></g></g><path class="xlines-above crisp" d="M403.44444444444446,305.5H635.5555555555557" style="fill: none; stroke-width: 1px; stroke: rgb(36, 36, 36); stroke-opacity: 1;"/><path class="ylines-above crisp" d="M403.94444444444446,60V305" style="fill: none; stroke-width: 1px; stroke: rgb(36, 36, 36); stroke-opacity: 1;"/><g class="overlines-above"/><g class="xaxislayer-above"><path class="x2tick ticks crisp" d="M0,306v5" transform="translate(453.7944444444445,0)" style="stroke: rgb(68, 68, 68); stroke-opacity: 1; stroke-width: 1px;"/><path class="x2tick ticks crisp" d="M0,306v5" transform="translate(532.8244444444445,0)" style="stroke: rgb(68, 68, 68); stroke-opacity: 1; stroke-width: 1px;"/><path class="x2tick ticks crisp" d="M0,306v5" transform="translate(611.8444444444444,0)" style="stroke: rgb(68, 68, 68); stroke-opacity: 1; stroke-width: 1px;"/><g class="x2tick"><text text-anchor="middle" x="0" y="330.2" transform="translate(453.7944444444445,0)" style="font-family: Arial; font-size: 16px; fill: rgb(36, 36, 36); fill-opacity: 1; white-space: pre; opacity: 1;">0</text></g><g class="x2tick"><text text-anchor="middle" x="0" y="330.2" style="font-family: Arial; font-size: 16px; fill: rgb(36, 36, 36); fill-opacity: 1; white-space: pre; opacity: 1;" transform="translate(532.8244444444445,0)">0.1</text></g><g class="x2tick"><text text-anchor="middle" x="0" y="330.2" style="font-family: Arial; font-size: 16px; fill: rgb(36, 36, 36); fill-opacity: 1; white-space: pre; opacity: 1;" transform="translate(611.8444444444444,0)">0.2</text></g></g><g class="yaxislayer-above"><path class="y2tick ticks crisp" d="M403.44444444444446,0h-5" transform="translate(0,301.4)" style="stroke: rgb(68, 68, 68); stroke-opacity: 1; stroke-width: 1px;"/><path class="y2tick ticks crisp" d="M403.44444444444446,0h-5" transform="translate(0,261.88)" style="stroke: rgb(68, 68, 68); stroke-opacity: 1; stroke-width: 1px;"/><path class="y2tick ticks crisp" d="M403.44444444444446,0h-5" transform="translate(0,222.37)" style="stroke: rgb(68, 68, 68); stroke-opacity: 1; stroke-width: 1px;"/><path class="y2tick ticks crisp" d="M403.44444444444446,0h-5" transform="translate(0,182.85)" style="stroke: rgb(68, 68, 68); stroke-opacity: 1; stroke-width: 1px;"/><path class="y2tick ticks crisp" d="M403.44444444444446,0h-5" transform="translate(0,143.34)" style="stroke: rgb(68, 68, 68); stroke-opacity: 1; stroke-width: 1px;"/><path class="y2tick ticks crisp" d="M403.44444444444446,0h-5" transform="translate(0,103.83)" style="stroke: rgb(68, 68, 68); stroke-opacity: 1; stroke-width: 1px;"/><path class="y2tick ticks crisp" d="M403.44444444444446,0h-5" transform="translate(0,64.31)" style="stroke: rgb(68, 68, 68); stroke-opacity: 1; stroke-width: 1px;"/><g class="y2tick"><text text-anchor="end" x="395.24444444444447" y="5.6" transform="translate(0,301.4)" style="font-family: Arial; font-size: 16px; fill: rgb(36, 36, 36); fill-opacity: 1; white-space: pre; opacity: 1;">−0.1</text></g><g class="y2tick"><text text-anchor="end" x="395.24444444444447" y="5.6" style="font-family: Arial; font-size: 16px; fill: rgb(36, 36, 36); fill-opacity: 1; white-space: pre; opacity: 1;" transform="translate(0,261.88)">−0.05</text></g><g class="y2tick"><text text-anchor="end" x="395.24444444444447" y="5.6" style="font-family: Arial; font-size: 16px; fill: rgb(36, 36, 36); fill-opacity: 1; white-space: pre; opacity: 1;" transform="translate(0,222.37)">0</text></g><g class="y2tick"><text text-anchor="end" x="395.24444444444447" y="5.6" style="font-family: Arial; font-size: 16px; fill: rgb(36, 36, 36); fill-opacity: 1; white-space: pre; opacity: 1;" transform="translate(0,182.85)">0.05</text></g><g class="y2tick"><text text-anchor="end" x="395.24444444444447" y="5.6" style="font-family: Arial; font-size: 16px; fill: rgb(36, 36, 36); fill-opacity: 1; white-space: pre; opacity: 1;" transform="translate(0,143.34)">0.1</text></g><g class="y2tick"><text text-anchor="end" x="395.24444444444447" y="5.6" style="font-family: Arial; font-size: 16px; fill: rgb(36, 36, 36); fill-opacity: 1; white-space: pre; opacity: 1;" transform="translate(0,103.83)">0.15</text></g><g class="y2tick"><text text-anchor="end" x="395.24444444444447" y="5.6" style="font-family: Arial; font-size: 16px; fill: rgb(36, 36, 36); fill-opacity: 1; white-space: pre; opacity: 1;" transform="translate(0,64.31)">0.2</text></g></g><g class="overaxes-above"/></g><g class="subplot x3y3"><g class="layer-subplot"><g class="shapelayer"/><g class="imagelayer"/></g><g class="minor-gridlayer"><g class="x3"/><g class="y3"/></g><g class="gridlayer"><g class="x3"/><g class="y3"/></g><g class="zerolinelayer"/><g class="layer-between"><g class="shapelayer"/><g class="imagelayer"/></g><path class="xlines-below"/><path class="ylines-below"/><g class="overlines-below"/><g class="xaxislayer-below"/><g class="yaxislayer-below"/><g class="overaxes-below"/><g class="overplot"><g class="x3y3" transform="translate(688.8888888888889,60)" clip-path="url(#clip9cd398x3y3plot)"><g class="scatterlayer mlayer"><g class="trace scatter trace6cada9" style="stroke-miterlimit: 2; opacity: 0.7;"><g class="fills"/><g class="errorbars"/><g class="lines"><path class="js-line" d="M18.01,232.75L208.81,22.69" style="vector-effect: none; fill: none; stroke: rgb(255, 0, 0); stroke-opacity: 1; stroke-width: 1.5px; opacity: 1;"/></g><g class="points"/><g class="text"/></g><g class="trace scatter tracecf9fc3" style="stroke-miterlimit: 2; opacity: 1;"><g class="fills"/><g class="errorbars"/><g class="lines"><path class="js-line" d="M18.01,203.04L208.81,12.25" style="vector-effect: none; fill: none; stroke: rgb(0, 0, 0); stroke-opacity: 1; stroke-dasharray: 9px, 9px; stroke-width: 2px; opacity: 1;"/></g><g class="points"/><g class="text"/></g><g class="trace scatter tracea85783" style="stroke-miterlimit: 2; opacity: 1;"><g class="fills"/><g class="errorbars"/><g class="lines"/><g class="points"><path class="point" transform="translate(137.16,103.6)" d="M4.5,0A4.5,4.5 0 1,1 0,-4.5A4.5,4.5 0 0,1 4.5,0Z" style="opacity: 0.7; stroke-width: 0px; fill: rgb(31, 119, 180); fill-opacity: 1;"/><path class="point" transform="translate(139.15,97.54)" d="M4.5,0A4.5,4.5 0 1,1 0,-4.5A4.5,4.5 0 0,1 4.5,0Z" style="opacity: 0.7; stroke-width: 0px; fill: rgb(31, 119, 180); fill-opacity: 1;"/><path class="point" transform="translate(199.14,28.1)" d="M4.5,0A4.5,4.5 0 1,1 0,-4.5A4.5,4.5 0 0,1 4.5,0Z" style="opacity: 0.7; stroke-width: 0px; fill: rgb(31, 119, 180); fill-opacity: 1;"/><path class="point" transform="translate(184.86,51.68)" d="M4.5,0A4.5,4.5 0 1,1 0,-4.5A4.5,4.5 0 0,1 4.5,0Z" style="opacity: 0.7; stroke-width: 0px; fill: rgb(31, 119, 180); fill-opacity: 1;"/><path class="point" transform="translate(97.54,142.75)" d="M4.5,0A4.5,4.5 0 1,1 0,-4.5A4.5,4.5 0 0,1 4.5,0Z" style="opacity: 0.7; stroke-width: 0px; fill: rgb(31, 119, 180); fill-opacity: 1;"/><path class="point" transform="translate(120.31,139.81)" d="M4.5,0A4.5,4.5 0 1,1 0,-4.5A4.5,4.5 0 0,1 4.5,0Z" style="opacity: 0.7; stroke-width: 0px; fill: rgb(31, 119, 180); fill-opacity: 1;"/><path class="point" transform="translate(185.45,52.79)" d="M4.5,0A4.5,4.5 0 1,1 0,-4.5A4.5,4.5 0 0,1 4.5,0Z" style="opacity: 0.7; stroke-width: 0px; fill: rgb(31, 119, 180); fill-opacity: 1;"/><path class="point" transform="translate(106.45,126.01)" d="M4.5,0A4.5,4.5 0 1,1 0,-4.5A4.5,4.5 0 0,1 4.5,0Z" style="opacity: 0.7; stroke-width: 0px; fill: rgb(31, 119, 180); fill-opacity: 1;"/><path class="point" transform="translate(161.72,75.68)" d="M4.5,0A4.5,4.5 0 1,1 0,-4.5A4.5,4.5 0 0,1 4.5,0Z" style="opacity: 0.7; stroke-width: 0px; fill: rgb(31, 119, 180); fill-opacity: 1;"/><path class="point" transform="translate(145.41,81.46)" d="M4.5,0A4.5,4.5 0 1,1 0,-4.5A4.5,4.5 0 0,1 4.5,0Z" style="opacity: 0.7; stroke-width: 0px; fill: rgb(31, 119, 180); fill-opacity: 1;"/></g><g class="text"/></g></g></g></g><path class="xlines-above crisp" d="M687.8888888888889,305.5H920" style="fill: none; stroke-width: 1px; stroke: rgb(36, 36, 36); stroke-opacity: 1;"/><path class="ylines-above crisp" d="M688.3888888888889,60V305" style="fill: none; stroke-width: 1px; stroke: rgb(36, 36, 36); stroke-opacity: 1;"/><g class="overlines-above"/><g class="xaxislayer-above"><path class="x3tick ticks crisp" d="M0,306v5" transform="translate(730.5288888888889,0)" style="stroke: rgb(68, 68, 68); stroke-opacity: 1; stroke-width: 1px;"/><path class="x3tick ticks crisp" d="M0,306v5" transform="translate(803.1288888888889,0)" style="stroke: rgb(68, 68, 68); stroke-opacity: 1; stroke-width: 1px;"/><path class="x3tick ticks crisp" d="M0,306v5" transform="translate(875.728888888889,0)" style="stroke: rgb(68, 68, 68); stroke-opacity: 1; stroke-width: 1px;"/><g class="x3tick"><text text-anchor="middle" x="0" y="330.2" transform="translate(730.5288888888889,0)" style="font-family: Arial; font-size: 16px; fill: rgb(36, 36, 36); fill-opacity: 1; white-space: pre; opacity: 1;">0</text></g><g class="x3tick"><text text-anchor="middle" x="0" y="330.2" style="font-family: Arial; font-size: 16px; fill: rgb(36, 36, 36); fill-opacity: 1; white-space: pre; opacity: 1;" transform="translate(803.1288888888889,0)">0.2</text></g><g class="x3tick"><text text-anchor="middle" x="0" y="330.2" style="font-family: Arial; font-size: 16px; fill: rgb(36, 36, 36); fill-opacity: 1; white-space: pre; opacity: 1;" transform="translate(875.728888888889,0)">0.4</text></g></g><g class="yaxislayer-above"><path class="y3tick ticks crisp" d="M687.8888888888889,0h-5" transform="translate(0,275.72)" style="stroke: rgb(68, 68, 68); stroke-opacity: 1; stroke-width: 1px;"/><path class="y3tick ticks crisp" d="M687.8888888888889,0h-5" transform="translate(0,239.42)" style="stroke: rgb(68, 68, 68); stroke-opacity: 1; stroke-width: 1px;"/><path class="y3tick ticks crisp" d="M687.8888888888889,0h-5" transform="translate(0,203.12)" style="stroke: rgb(68, 68, 68); stroke-opacity: 1; stroke-width: 1px;"/><path class="y3tick ticks crisp" d="M687.8888888888889,0h-5" transform="translate(0,166.82)" style="stroke: rgb(68, 68, 68); stroke-opacity: 1; stroke-width: 1px;"/><path class="y3tick ticks crisp" d="M687.8888888888889,0h-5" transform="translate(0,130.51999999999998)" style="stroke: rgb(68, 68, 68); stroke-opacity: 1; stroke-width: 1px;"/><path class="y3tick ticks crisp" d="M687.8888888888889,0h-5" transform="translate(0,94.22)" style="stroke: rgb(68, 68, 68); stroke-opacity: 1; stroke-width: 1px;"/><g class="y3tick"><text text-anchor="end" x="679.6888888888889" y="5.6" transform="translate(0,275.72)" style="font-family: Arial; font-size: 16px; fill: rgb(36, 36, 36); fill-opacity: 1; white-space: pre; opacity: 1;">−0.1</text></g><g class="y3tick"><text text-anchor="end" x="679.6888888888889" y="5.6" style="font-family: Arial; font-size: 16px; fill: rgb(36, 36, 36); fill-opacity: 1; white-space: pre; opacity: 1;" transform="translate(0,239.42)">0</text></g><g class="y3tick"><text text-anchor="end" x="679.6888888888889" y="5.6" style="font-family: Arial; font-size: 16px; fill: rgb(36, 36, 36); fill-opacity: 1; white-space: pre; opacity: 1;" transform="translate(0,203.12)">0.1</text></g><g class="y3tick"><text text-anchor="end" x="679.6888888888889" y="5.6" style="font-family: Arial; font-size: 16px; fill: rgb(36, 36, 36); fill-opacity: 1; white-space: pre; opacity: 1;" transform="translate(0,166.82)">0.2</text></g><g class="y3tick"><text text-anchor="end" x="679.6888888888889" y="5.6" style="font-family: Arial; font-size: 16px; fill: rgb(36, 36, 36); fill-opacity: 1; white-space: pre; opacity: 1;" transform="translate(0,130.51999999999998)">0.3</text></g><g class="y3tick"><text text-anchor="end" x="679.6888888888889" y="5.6" style="font-family: Arial; font-size: 16px; fill: rgb(36, 36, 36); fill-opacity: 1; white-space: pre; opacity: 1;" transform="translate(0,94.22)">0.4</text></g></g><g class="overaxes-above"/></g></g><g class="polarlayer"/><g class="smithlayer"/><g class="ternarylayer"/><g class="geolayer"/><g class="funnelarealayer"/><g class="pielayer"/><g class="iciclelayer"/><g class="treemaplayer"/><g class="sunburstlayer"/><g class="glimages"/><defs id="topdefs-9cd398"><g class="clips"/></defs><g class="layer-above"><g class="imagelayer"/><g class="shapelayer"><g class="shape-group" data-index="0" clip-path="url(#clip9cd398xy)"><path data-index="0" fill-rule="evenodd" d="M124.25,262.85L344.75,262.85" style="opacity: 0.3; stroke: rgb(169, 169, 169); stroke-opacity: 1; fill: rgb(0, 0, 0); fill-opacity: 1; stroke-dasharray: 3px, 3px; stroke-width: 1.5px;"/></g><g class="shape-group" data-index="1" clip-path="url(#clip9cd398xy)"><path data-index="1" fill-rule="evenodd" d="M154.15,292.75L154.15,72.25" style="opacity: 0.3; stroke: rgb(169, 169, 169); stroke-opacity: 1; fill: rgb(0, 0, 0); fill-opacity: 1; stroke-dasharray: 3px, 3px; stroke-width: 1.5px;"/></g><g class="shape-group" data-index="2" clip-path="url(#clip9cd398x2y2)"><path data-index="2" fill-rule="evenodd" d="M432.63444444444445,222.37L603.9144444444445,222.37" style="opacity: 0.3; stroke: rgb(169, 169, 169); stroke-opacity: 1; fill: rgb(0, 0, 0); fill-opacity: 1; stroke-dasharray: 3px, 3px; stroke-width: 1.5px;"/></g><g class="shape-group" data-index="3" clip-path="url(#clip9cd398x2y2)"><path data-index="3" fill-rule="evenodd" d="M453.7944444444445,243.53L453.7944444444445,72.25" style="opacity: 0.3; stroke: rgb(169, 169, 169); stroke-opacity: 1; fill: rgb(0, 0, 0); fill-opacity: 1; stroke-dasharray: 3px, 3px; stroke-width: 1.5px;"/></g><g class="shape-group" data-index="4" clip-path="url(#clip9cd398x3y3)"><path data-index="4" fill-rule="evenodd" d="M706.8988888888889,239.42L897.6988888888889,239.42" style="opacity: 0.3; stroke: rgb(169, 169, 169); stroke-opacity: 1; fill: rgb(0, 0, 0); fill-opacity: 1; stroke-dasharray: 3px, 3px; stroke-width: 1.5px;"/></g><g class="shape-group" data-index="5" clip-path="url(#clip9cd398x3y3)"><path data-index="5" fill-rule="evenodd" d="M730.5288888888889,263.03999999999996L730.5288888888889,72.25" style="opacity: 0.3; stroke: rgb(169, 169, 169); stroke-opacity: 1; fill: rgb(0, 0, 0); fill-opacity: 1; stroke-dasharray: 3px, 3px; stroke-width: 1.5px;"/></g></g></g><g class="infolayer"><g class="g-gtitle"/><g class="g-xtitle"><text class="xtitle" x="235.55555555555557" y="361.703125" text-anchor="middle" style="opacity: 1; font-family: Arial; font-size: 20px; fill: rgb(36, 36, 36); fill-opacity: 1; white-space: pre;"><tspan class="line" dy="0em" x="235.55555555555557" y="361.703125"><tspan style="font-weight:bold"> Reference </tspan></tspan><tspan class="line" dy="1.3em" x="235.55555555555557" y="361.703125"><tspan style="font-weight:bold"> ΔCOM path length (mm) </tspan></tspan></text></g><g class="g-x2title"><text class="x2title" x="520" y="361.703125" text-anchor="middle" style="opacity: 1; font-family: Arial; font-size: 20px; fill: rgb(36, 36, 36); fill-opacity: 1; white-space: pre;"><tspan class="line" dy="0em" x="520" y="361.703125"><tspan style="font-weight:bold"> Reference </tspan></tspan><tspan class="line" dy="1.3em" x="520" y="361.703125"><tspan style="font-weight:bold"> ΔCOM path length (mm) </tspan></tspan></text></g><g class="g-x3title"><text class="x3title" x="804.4444444444445" y="361.703125" text-anchor="middle" style="opacity: 1; font-family: Arial; font-size: 20px; fill: rgb(36, 36, 36); fill-opacity: 1; white-space: pre;"><tspan class="line" dy="0em" x="804.4444444444445" y="361.703125"><tspan style="font-weight:bold"> Reference </tspan></tspan><tspan class="line" dy="1.3em" x="804.4444444444445" y="361.703125"><tspan style="font-weight:bold"> ΔCOM path length (mm) </tspan></tspan></text></g><g class="g-ytitle"><text class="ytitle" transform="rotate(-90,32.15625,182.5)" x="32.15625" y="182.5" text-anchor="middle" style="opacity: 1; font-family: Arial; font-size: 20px; fill: rgb(36, 36, 36); fill-opacity: 1; white-space: pre;"><tspan class="line" dy="0em" x="32.15625" y="182.5"><tspan style="font-weight:bold"> FMC-MediaPipe </tspan></tspan><tspan class="line" dy="1.3em" x="32.15625" y="182.5"><tspan style="font-weight:bold"> ΔCOM path length (mm) </tspan></tspan></text></g><g class="g-y2title"/><g class="g-y3title"/><g class="annotation" data-index="0" style="opacity: 1;"><g class="annotation-text-g" transform="rotate(0,235.55555555555557,45.49999999999999)"><g class="cursor-pointer" transform="translate(123,31)"><rect class="bg" x="0.5" y="0.5" width="225" height="28" style="stroke-width: 1px; stroke: rgb(0, 0, 0); stroke-opacity: 0; fill: rgb(0, 0, 0); fill-opacity: 0;"/><text class="annotation-text" text-anchor="middle" x="112.9375" y="22" style="font-family: Arial; font-size: 22px; fill: rgb(36, 36, 36); fill-opacity: 1; white-space: pre;"><tspan style="font-weight:bold"> EC:Solid − EO:Solid </tspan></text></g></g></g><g class="annotation" data-index="1" style="opacity: 1;"><g class="annotation-text-g" transform="rotate(0,520,45.49999999999999)"><g class="cursor-pointer" transform="translate(404,31)"><rect class="bg" x="0.5" y="0.5" width="231" height="28" style="stroke-width: 1px; stroke: rgb(0, 0, 0); stroke-opacity: 0; fill: rgb(0, 0, 0); fill-opacity: 0;"/><text class="annotation-text" text-anchor="middle" x="116" y="22" style="font-family: Arial; font-size: 22px; fill: rgb(36, 36, 36); fill-opacity: 1; white-space: pre;"><tspan style="font-weight:bold"> EO:Foam − EO:Solid </tspan></text></g></g></g><g class="annotation" data-index="2" style="opacity: 1;"><g class="annotation-text-g" transform="rotate(0,804.4444444444445,45.49999999999999)"><g class="cursor-pointer" transform="translate(689,31)"><rect class="bg" x="0.5" y="0.5" width="230" height="28" style="stroke-width: 1px; stroke: rgb(0, 0, 0); stroke-opacity: 0; fill: rgb(0, 0, 0); fill-opacity: 0;"/><text class="annotation-text" text-anchor="middle" x="115.375" y="22" style="font-family: Arial; font-size: 22px; fill: rgb(36, 36, 36); fill-opacity: 1; white-space: pre;"><tspan style="font-weight:bold"> EC:Foam − EO:Solid </tspan></text></g></g></g><g class="annotation" data-index="3" style="opacity: 1;"><g class="annotation-text-g" transform="rotate(0,277.05555555555554,263.75)"><g class="cursor-pointer" transform="translate(215,235)"><rect class="bg" x="0.5" y="0.5" width="124" height="57" style="stroke-width: 1px; stroke: rgb(0, 0, 0); stroke-opacity: 0; fill: rgb(0, 0, 0); fill-opacity: 0;"/><text class="annotation-text" text-anchor="middle" x="62.25" y="22" style="font-family: Arial; font-size: 22px; fill: rgb(36, 36, 36); fill-opacity: 1; white-space: pre;"><tspan class="line" dy="0em" x="62.25" y="22"><tspan style="font-style:italic">r²</tspan> = 0.93</tspan><tspan class="line" dy="1.3em" x="62.25" y="22">slope = 0.80</tspan></text></g></g></g><g class="annotation" data-index="4" style="opacity: 1;"><g class="annotation-text-g" transform="rotate(0,561.5,263.75)"><g class="cursor-pointer" transform="translate(499,235)"><rect class="bg" x="0.5" y="0.5" width="124" height="57" style="stroke-width: 1px; stroke: rgb(0, 0, 0); stroke-opacity: 0; fill: rgb(0, 0, 0); fill-opacity: 0;"/><text class="annotation-text" text-anchor="middle" x="62.25" y="22" style="font-family: Arial; font-size: 22px; fill: rgb(36, 36, 36); fill-opacity: 1; white-space: pre;"><tspan class="line" dy="0em" x="62.25" y="22"><tspan style="font-style:italic">r²</tspan> = 0.86</tspan><tspan class="line" dy="1.3em" x="62.25" y="22">slope = 1.25</tspan></text></g></g></g><g class="annotation" data-index="5" style="opacity: 1;"><g class="annotation-text-g" transform="rotate(0,845.9444444444445,263.75)"><g class="cursor-pointer" transform="translate(783,235)"><rect class="bg" x="0.5" y="0.5" width="124" height="57" style="stroke-width: 1px; stroke: rgb(0, 0, 0); stroke-opacity: 0; fill: rgb(0, 0, 0); fill-opacity: 0;"/><text class="annotation-text" text-anchor="middle" x="62.25" y="22" style="font-family: Arial; font-size: 22px; fill: rgb(36, 36, 36); fill-opacity: 1; white-space: pre;"><tspan class="line" dy="0em" x="62.25" y="22"><tspan style="font-style:italic">r²</tspan> = 0.95</tspan><tspan class="line" dy="1.3em" x="62.25" y="22">slope = 1.10</tspan></text></g></g></g></g></svg>